<?xml version="1.0" encoding="UTF-8"?>
<svg width="18px" height="18px" viewBox="0 0 18 18" version="1.1" xmlns="http://www.w3.org/2000/svg" xmlns:xlink="http://www.w3.org/1999/xlink">
    <!-- Generator: Sketch 48.2 (47327) - http://www.bohemiancoding.com/sketch -->
    <title>At</title>
    <desc>Created with Sketch.</desc>
    <defs></defs>
    <g id="Email" stroke="none" stroke-width="1" fill="none" fill-rule="evenodd" transform="translate(-791.000000, -313.000000)">
        <g id="Body" transform="translate(220.000000, 0.000000)" fill="#DADBE7">
            <g id="Large-Logo" transform="translate(269.000000, 174.000000)">
                <g id="Icons" transform="translate(301.000000, 36.000000)">
                    <g id="At" transform="translate(0.000000, 102.000000)">
                        <path d="M18.3333333,10 L18.3333333,11.2506939 C18.3333333,12.8605405 17.0257578,14.1666667 15.4166667,14.1666667 C14.4124643,14.1666667 13.5269455,13.660531 13.0023084,12.8891686 C12.2442947,13.6766776 11.1793689,14.1666667 10,14.1666667 C7.69881354,14.1666667 5.83333333,12.3011865 5.83333333,10 C5.83333333,7.69881354 7.69881354,5.83333333 10,5.83333333 C12.3011865,5.83333333 14.1666667,7.69881354 14.1666667,10 L14.1666667,11.2532748 C14.1666667,11.942642 14.7252508,12.5 15.4166667,12.5 C16.1056967,12.5 16.6666667,11.9396519 16.6666667,11.2506939 L16.6666667,10 C16.6666667,6.31810167 13.6818983,3.33333333 10,3.33333333 C6.31810167,3.33333333 3.33333333,6.31810167 3.33333333,10 C3.33333333,13.6818983 6.31810167,16.6666667 10,16.6666667 C10.4602373,16.6666667 10.8333333,17.0397627 10.8333333,17.5 C10.8333333,17.9602373 10.4602373,18.3333333 10,18.3333333 C5.39762708,18.3333333 1.66666667,14.6023729 1.66666667,10 C1.66666667,5.39762708 5.39762708,1.66666667 10,1.66666667 C14.6023729,1.66666667 18.3333333,5.39762708 18.3333333,10 Z M12.5,10 C12.5,8.61928813 11.3807119,7.5 10,7.5 C8.61928813,7.5 7.5,8.61928813 7.5,10 C7.5,11.3807119 8.61928813,12.5 10,12.5 C11.3807119,12.5 12.5,11.3807119 12.5,10 Z"></path>
                    </g>
                </g>
            </g>
        </g>
    </g>
</svg>