<?xml version="1.0" encoding="UTF-8"?>
<svg width="18px" height="18px" viewBox="0 0 18 18" version="1.1" xmlns="http://www.w3.org/2000/svg" xmlns:xlink="http://www.w3.org/1999/xlink">
    <!-- Generator: Sketch 48.2 (47327) - http://www.bohemiancoding.com/sketch -->
    <title>GitHub</title>
    <desc>Created with Sketch.</desc>
    <defs></defs>
    <g id="Email" stroke="none" stroke-width="1" fill="none" fill-rule="evenodd" transform="translate(-896.000000, -313.000000)">
        <g id="Body" transform="translate(220.000000, 0.000000)" fill="#DADBE7">
            <g id="Large-Logo" transform="translate(269.000000, 174.000000)">
                <g id="Icons" transform="translate(301.000000, 36.000000)">
                    <g id="Github" transform="translate(105.000000, 102.000000)">
                        <path d="M14.1666667,9.79166667 C14.1666667,11.2435828 13.1388108,12.4914406 11.6678618,13.0381917 C11.7373215,13.5727027 11.8423762,14.3351752 11.9090975,14.6292417 C12.0970759,15.4577343 12.3420862,15.9998828 12.4760502,16.1917095 C14.9319213,15.2087243 16.6666667,12.8069479 16.6666667,10 C16.6666667,6.31810167 13.6818983,3.33333333 10,3.33333333 C6.31810167,3.33333333 3.33333333,6.31810167 3.33333333,10 C3.33333333,12.8161679 5.07949378,15.2244983 7.54817375,16.20135 C7.58258835,16.1594049 7.63468788,16.0856634 7.70229991,15.9628601 C7.87329391,15.6522848 8.02475167,15.1851663 8.14576047,14.6118598 C8.15635319,14.5616744 8.16849267,14.4995555 8.1816408,14.4286269 C7.92315835,14.5214391 7.63481756,14.5713298 7.31862386,14.5713298 C6.50591318,14.5713298 5.82491596,14.2495191 5.2894155,13.7290331 C4.97691917,13.4252986 4.77381093,13.1205212 4.66132993,12.8886968 C4.46042303,12.4746258 4.63322667,11.9760877 5.04729766,11.7751808 C5.46136865,11.5742739 5.95990673,11.7470776 6.16081362,12.1611486 C6.19547821,12.2325926 6.29552397,12.3827179 6.45105284,12.533886 C6.69559439,12.7715711 6.97723603,12.9046631 7.31862386,12.9046631 C7.52769292,12.9046631 7.66270452,12.8616609 7.76160435,12.7793956 C6.60219551,12.1505055 5.83333333,11.0474065 5.83333333,9.79166667 C5.83333333,9.31510583 5.94406858,8.86052906 6.14486099,8.44551271 L5.85376096,6.45951567 C5.78669301,6.00195216 6.09081264,5.74512591 6.53234537,5.88119947 L8.49817479,6.48703771 C8.96410516,6.33394727 9.47051909,6.25 10,6.25 C10.527142,6.25 11.0314204,6.33320726 11.4956484,6.48501302 L13.454908,5.88119947 C13.8964408,5.74512591 14.2005604,6.00195216 14.1334924,6.45951567 L13.8453363,8.42542823 C14.0523243,8.84584613 14.1666667,9.30740631 14.1666667,9.79166667 Z M9.77649726,14.9560622 C9.63926224,15.6062441 9.47095325,16.1696655 9.2536578,16.6253571 C9.49867439,16.6526514 9.74770048,16.6666667 10,16.6666667 C10.2726366,16.6666667 10.5414508,16.6503009 10.8055138,16.6184983 C10.5949046,16.1732816 10.4264532,15.6270025 10.2837425,14.9980218 C10.2128211,14.6854439 10.1055667,13.9205846 10.0284963,13.3332522 C10.0215602,13.3332917 10.01462,13.3333168 10.0076758,13.3333275 C9.94498675,13.8686472 9.8489088,14.6129961 9.77649726,14.9560622 Z M10,18.3333333 C5.39762709,18.3333333 1.66666667,14.6023729 1.66666667,10 C1.66666667,5.39762709 5.39762709,1.66666667 10,1.66666667 C14.6023729,1.66666667 18.3333333,5.39762709 18.3333333,10 C18.3333333,13.70117 15.9204568,16.8387826 12.5819026,17.9256386 C11.7463507,18.193986 10.8894485,18.3333333 10,18.3333333 Z M7.5,10.4166667 C7.5,11.1056179 8.05911278,11.6666667 8.74881335,11.6666667 L11.2511867,11.6666667 C11.9409905,11.6666667 12.5,11.1070226 12.5,10.4166667 C12.5,9.72771546 11.9408872,9.16666667 11.2511867,9.16666667 L8.74881335,9.16666667 C8.05900949,9.16666667 7.5,9.72631073 7.5,10.4166667 Z" id="GitHub"></path>
                    </g>
                </g>
            </g>
        </g>
    </g>
</svg>