<?xml version="1.0" encoding="UTF-8"?>
<svg width="16px" height="16px" viewBox="0 0 16 16" version="1.1" xmlns="http://www.w3.org/2000/svg" xmlns:xlink="http://www.w3.org/1999/xlink">
    <!-- Generator: Sketch 48.2 (47327) - http://www.bohemiancoding.com/sketch -->
    <title>iMac</title>
    <desc>Created with Sketch.</desc>
    <defs></defs>
    <g id="Email" stroke="none" stroke-width="1" fill="none" fill-rule="evenodd" transform="translate(-956.000000, -315.000000)">
        <g id="Body" transform="translate(220.000000, 0.000000)" fill="#DADBE7">
            <g id="Large-Logo" transform="translate(269.000000, 174.000000)">
                <g id="Icons" transform="translate(301.000000, 36.000000)">
                    <g id="iMac" transform="translate(29.000000, 0.000000)">
                        <path d="M138.6,114.6 L138.6,116.2 L151.4,116.2 L151.4,114.6 L145.8,114.6 C145.8,115.042202 145.444908,115.4 145,115.4 C144.558172,115.4 144.2,115.040696 144.2,114.600835 L138.6,114.6 Z M151.4,106.6 L138.6,106.6 L138.6,113 L151.4,113 L151.4,106.6 Z M147.133333,119.4 L148.998021,119.4 C149.440942,119.4 149.8,119.755092 149.8,120.2 C149.8,120.641828 149.44119,121 148.998021,121 L141.001979,121 C140.559058,121 140.2,120.644908 140.2,120.2 C140.2,119.758172 140.55881,119.4 141.001979,119.4 L142.866667,119.4 L143.133333,117.8 L137.798917,117.8 C137.357687,117.8 137,117.444295 137,116.999303 L137,105.800697 C137,105.358484 137.356616,105 137.798917,105 L152.201083,105 C152.642313,105 153,105.355705 153,105.800697 L153,116.999303 C153,117.441516 152.643384,117.8 152.201083,117.8 L146.866667,117.8 L147.133333,119.4 Z"></path>
                    </g>
                </g>
            </g>
        </g>
    </g>
</svg>