<?xml version="1.0" encoding="UTF-8"?>
<svg width="18px" height="18px" viewBox="0 0 18 18" version="1.1" xmlns="http://www.w3.org/2000/svg" xmlns:xlink="http://www.w3.org/1999/xlink">
    <!-- Generator: Sketch 48.2 (47327) - http://www.bohemiancoding.com/sketch -->
    <title>Pen</title>
    <desc>Created with Sketch.</desc>
    <defs></defs>
    <g id="Email" stroke="none" stroke-width="1" fill="none" fill-rule="evenodd" transform="translate(-861.000000, -313.000000)">
        <g id="Body" transform="translate(220.000000, 0.000000)" fill="#DADBE7">
            <g id="Large-Logo" transform="translate(269.000000, 174.000000)">
                <g id="Icons" transform="translate(301.000000, 36.000000)">
                    <g id="Edit-Note" transform="translate(70.000000, 102.000000)">
                        <path d="M1.66666667,17.5 C1.66666667,17.0397627 2.03814159,16.6666667 2.49887151,16.6666667 L17.5011285,16.6666667 C17.9607425,16.6666667 18.3333333,17.036554 18.3333333,17.5 C18.3333333,17.9602373 17.9618584,18.3333333 17.5011285,18.3333333 L2.49887151,18.3333333 C2.03925747,18.3333333 1.66666667,17.963446 1.66666667,17.5 Z M16.5529222,2.26731066 L17.7338929,3.44828137 C18.3840876,4.09847605 18.3840773,5.15266026 17.7314088,5.80532871 L9.48308413,14.0536534 L6.3809212,14.8320662 C5.48748538,15.0562523 4.94566979,14.5108549 5.16913742,13.6202824 L5.94755022,10.5181195 L14.1958749,2.26979481 C14.8474415,1.61822818 15.9049458,1.61933421 16.5529222,2.26731066 Z M9.1884563,11.9912586 L8.01039384,10.8131961 L7.45263916,11.3708512 L7.06152696,12.9396766 L8.62353118,12.5561837 L9.1884563,11.9912586 Z M14.7851305,6.39458436 L13.606644,5.21358892 L9.18895644,9.63473614 L10.3669676,10.8127473 L14.7851305,6.39458436 Z" id="Pen"></path>
                    </g>
                </g>
            </g>
        </g>
    </g>
</svg>