<?xml version="1.0" encoding="UTF-8"?>
<svg width="20px" height="16px" viewBox="0 0 20 16" version="1.1" xmlns="http://www.w3.org/2000/svg" xmlns:xlink="http://www.w3.org/1999/xlink">
    <!-- Generator: Sketch 48.2 (47327) - http://www.bohemiancoding.com/sketch -->
    <title>Speedometer</title>
    <desc>Created with Sketch.</desc>
    <defs></defs>
    <g id="Email" stroke="none" stroke-width="1" fill="none" fill-rule="evenodd" transform="translate(-825.000000, -314.000000)">
        <g id="Body" transform="translate(220.000000, 0.000000)" fill="#DADBE7">
            <g id="Large-Logo" transform="translate(269.000000, 174.000000)">
                <g id="Icons" transform="translate(301.000000, 36.000000)">
                    <g id="Dashboard-1" transform="translate(35.000000, 102.000000)">
                        <path d="M2.5,11.6666667 C2.5,13.1785355 2.94768993,14.6207185 3.76989596,15.8333333 C3.9990284,15.8438993 16.239392,15.8291626 16.2393914,15.8291626 C17.0556808,14.6098386 17.5,13.1728332 17.5,11.6666667 C17.5,10.8118997 17.3570086,9.9905302 17.0936415,9.22517383 L15.9442937,9.88875005 C15.5460949,10.1186502 15.0383473,9.98468933 14.8066243,9.58333333 C14.5765057,9.18475615 14.7099203,8.67691501 15.1109604,8.44537438 L16.3757917,7.71512369 C15.1912142,5.80786416 13.1746893,4.47126442 10.8333333,4.21244065 L10.8333333,5.83412444 C10.8333333,6.29392481 10.463446,6.66666667 10,6.66666667 C9.53976271,6.66666667 9.16666667,6.29720569 9.16666667,5.83412444 L9.16666667,4.21244065 C6.82531069,4.47126442 4.80878585,5.80786416 3.62420831,7.71512369 L4.88903962,8.44537438 C5.29007975,8.67691501 5.42349432,9.18475615 5.19337567,9.58333333 C4.96165268,9.98468933 4.45390509,10.1186502 4.05570628,9.88875005 L2.90635854,9.22517383 C2.64299142,9.9905302 2.5,10.8118997 2.5,11.6666667 Z M17.3335823,17.167148 C17.1761794,17.3767032 16.9293629,17.5 16.667277,17.5 L3.33272302,17.5 C3.07063707,17.5 2.82382063,17.3767032 2.66641766,17.167148 C1.48358738,15.5924118 0.833333333,13.6776818 0.833333333,11.6666667 C0.833333333,6.60405646 4.93738979,2.5 10,2.5 C15.0626102,2.5 19.1666667,6.60405646 19.1666667,11.6666667 C19.1666667,13.6776818 18.5164126,15.5924118 17.3335823,17.167148 Z M10.7618446,12.8529595 C10.1109708,13.5038333 9.05569585,13.5038333 8.40482203,12.8529595 C7.75394821,12.2020857 7.75394821,11.1468107 8.40482203,10.4959369 C9.60235898,9.29839994 12.3717543,8.38616334 12.3717543,8.38616334 C12.8076948,8.2240855 13.0307693,8.44823243 12.8751564,8.87673435 C12.8751564,8.87673435 11.9593816,11.6554225 10.7618446,12.8529595 Z" id="Speedometer"></path>
                    </g>
                </g>
            </g>
        </g>
    </g>
</svg>