<?xml version="1.0" encoding="UTF-8"?>
<svg width="18px" height="16px" viewBox="0 0 18 16" version="1.1" xmlns="http://www.w3.org/2000/svg" xmlns:xlink="http://www.w3.org/1999/xlink">
    <!-- Generator: Sketch 48.2 (47327) - http://www.bohemiancoding.com/sketch -->
    <title>Twitter</title>
    <desc>Created with Sketch.</desc>
    <defs></defs>
    <g id="Email" stroke="none" stroke-width="1" fill="none" fill-rule="evenodd" transform="translate(-931.000000, -314.000000)">
        <g id="Body" transform="translate(220.000000, 0.000000)" fill="#DADBE7">
            <g id="Large-Logo" transform="translate(269.000000, 174.000000)">
                <g id="Icons" transform="translate(301.000000, 36.000000)">
                    <g id="Twitter" transform="translate(140.000000, 102.000000)">
                        <path d="M6.49188508,13.0596106 C7.02831086,13.4222303 6.9643379,14.2313377 6.37759173,14.5051526 C6.15778911,14.6077272 4.20382182,15.1354218 4.20382182,15.1354218 C4.9823044,15.5939429 6.07344185,15.8333333 7.5,15.8333333 C12.0771937,15.8333333 15.4171188,12.4713057 15.4205324,7.43941677 C15.4205914,7.35251966 15.4166667,7.10690639 15.4166667,7.08333333 C15.4166667,5.35055078 14.5078558,4.15838909 12.9210076,4.16665536 C11.3228458,4.17498057 10.4166667,5.35857271 10.4166667,7.08333333 C10.4166667,7.18346525 10.4140218,7.80542526 10.4140218,7.906545 C10.4140218,8.40635055 9.97710658,8.7937331 9.48089754,8.73388182 C7.39082156,8.481783 5.49318349,7.56434355 4.0289787,6.14287213 C4.0289787,6.14287213 3.83647007,6.86868982 3.78943062,7.20226781 C3.81665599,7.23461279 4.33343095,7.75755158 4.62810101,7.96795994 C4.8542117,8.12941368 5.09903641,8.27578257 5.36290094,8.40343009 C5.77720556,8.60385474 5.95058954,9.10219128 5.75016488,9.51649591 C5.54974023,9.93080053 5.05140369,10.1041845 4.63709906,9.90375985 C4.37506736,9.77699899 4.12689987,9.63617882 3.89244029,9.48328799 C4.22234631,10.8305692 5.05542027,12.0885715 6.49188508,13.0596106 Z M17.4521623,4.17514176 C18.2922584,4.13003898 18.587522,4.65271939 18.102873,5.34305245 L17.0771873,6.80403685 C17.0812772,6.89635959 17.0872741,7.32939407 17.0871987,7.44054742 C17.0831628,13.3897669 12.9999509,17.5 7.5,17.5 C4.78387647,17.5 3.0290938,16.7904084 1.81981513,15.1346415 C1.45905675,14.6406844 1.73566033,13.9393309 2.33647476,13.824604 C2.3640342,13.8193415 4.2874283,13.4036417 4.2874283,13.4036417 C1.74738566,10.8352661 1.51318611,7.18673416 3.01582666,4.21170218 C3.29308569,3.66276553 4.04907066,3.59297176 4.42214418,4.08186865 C5.50233656,5.49741455 7.02011118,6.49048654 8.75501841,6.91182861 C8.83783916,4.41041243 10.3621255,2.51329591 12.9123257,2.50001131 C14.43341,2.49208762 15.5913714,3.16771017 16.2967764,4.23717169 L17.4521623,4.17514176 Z"></path>
                    </g>
                </g>
            </g>
        </g>
    </g>
</svg>