<?xml version="1.0" encoding="UTF-8"?>
<svg width="30px" height="30px" viewBox="0 0 30 30" version="1.1" xmlns="http://www.w3.org/2000/svg" xmlns:xlink="http://www.w3.org/1999/xlink">
    <!-- Generator: Sketch 48.2 (47327) - http://www.bohemiancoding.com/sketch -->
    <title>apollostack</title>
    <desc>Created with Sketch.</desc>
    <defs></defs>
    <g id="Skills" stroke="none" stroke-width="1" fill="none" fill-rule="evenodd" transform="translate(-560.000000, -529.000000)">
        <g id="Body" transform="translate(486.000000, 174.000000)" fill="#F2F2F8" fill-rule="nonzero">
            <g id="Daily-Skills" transform="translate(0.000000, 238.000000)">
                <g id="Skills" transform="translate(0.000000, 74.000000)">
                    <g id="Tooling" transform="translate(8.000000, 0.000000)">
                        <g id="Logos" transform="translate(0.000000, 38.000000)">
                            <g id="apollostack" transform="translate(66.000000, 5.000000)">
                                <path d="M18.3187072,20.4099806 L21.4776373,20.4099806 L16.4348965,7.32265818 L12.9422381,7.32265818 L7.89949732,20.4099806 L11.058656,20.4099806 L11.8827446,18.1931275 L16.6474355,18.1931275 L15.7849321,15.7400691 L12.6477247,15.7400691 L14.6885101,10.1088733 L18.3187072,20.4099806 Z M28.7355162,10.7204687 C28.6232444,10.3161988 28.2057123,10.078736 27.7997275,10.1914651 C27.3953433,10.3037369 27.1583378,10.722641 27.2706096,11.1270252 C27.5876459,12.2686074 27.7482791,13.4486044 27.7482791,14.6342035 C27.7482791,21.8653293 21.8653293,27.7480505 14.6342035,27.7480505 C7.4030777,27.7480505 1.52024222,21.8653293 1.52024222,14.6342035 C1.52024222,7.40296337 7.4030777,1.52012789 14.6342035,1.52012789 C17.6974396,1.52012789 20.6614374,2.60831812 23.0007377,4.54483483 C22.9097313,4.76206128 22.8591975,5.00043874 22.8591975,5.25059216 C22.8591975,6.26069519 23.6780269,7.07952461 24.68813,7.07952461 C25.698233,7.07952461 26.5170624,6.26069519 26.5170624,5.25059216 C26.5170624,4.24048913 25.698233,3.42165971 24.68813,3.42165971 C24.4936551,3.42165971 24.3064974,3.45264306 24.1306583,3.50889328 C21.4965017,1.26402933 18.1227461,0 14.6342035,0 C6.56492656,0 0,6.56481223 0,14.6342035 C0,22.7034805 6.56492656,29.2682927 14.6342035,29.2682927 C22.7034805,29.2682927 29.268407,22.7034805 29.268407,14.6342035 C29.268407,13.31118 29.0892523,11.9943304 28.7355162,10.7204687 Z" id="Shape"></path>
                            </g>
                        </g>
                    </g>
                </g>
            </g>
        </g>
    </g>
</svg>