<?xml version="1.0" encoding="UTF-8"?>
<svg width="33px" height="30px" viewBox="0 0 33 30" version="1.1" xmlns="http://www.w3.org/2000/svg" xmlns:xlink="http://www.w3.org/1999/xlink">
    <!-- Generator: Sketch 48.2 (47327) - http://www.bohemiancoding.com/sketch -->
    <title>asana</title>
    <desc>Created with Sketch.</desc>
    <defs></defs>
    <g id="Skills" stroke="none" stroke-width="1" fill="none" fill-rule="evenodd" transform="translate(-741.000000, -754.000000)">
        <g id="Body" transform="translate(489.000000, 174.000000)" fill="#FFFFFF" fill-rule="nonzero">
            <g id="Daily-Skills" transform="translate(5.000000, 238.000000)">
                <g id="Skills" transform="translate(0.000000, 74.000000)">
                    <g id="The-rest" transform="translate(3.000000, 226.000000)">
                        <g id="Logos" transform="translate(0.000000, 42.000000)">
                            <g id="asana" transform="translate(244.500000, 0.000000)">
                                <path d="M25.2441807,15.7859363 C21.3690003,15.7859363 18.2281007,18.9269577 18.2281007,22.8017727 C18.2281007,26.6768312 21.3690003,29.8180961 25.2441807,29.8180961 C29.118874,29.8180961 32.260017,26.6768312 32.260017,22.8017727 C32.260017,18.9269577 29.118874,15.7859363 25.2441807,15.7859363 Z M7.015958,15.7864232 C3.14126487,15.7864232 0,18.9269577 0,22.8021379 C0,26.6768312 3.14126487,29.8180961 7.015958,29.8180961 C10.890895,29.8180961 14.0322817,26.6768312 14.0322817,22.8021379 C14.0322817,18.9269577 10.890895,15.7864232 7.015958,15.7864232 Z M23.145784,7.01583643 C23.145784,10.8906515 20.0048843,14.0324032 16.130191,14.0324032 C12.2551327,14.0324032 9.11411133,10.8906515 9.11411133,7.01583643 C9.11411133,3.14126486 12.2551327,0 16.130191,0 C20.0048843,0 23.145784,3.14126486 23.145784,7.01583643 Z" id="Shape"></path>
                            </g>
                        </g>
                    </g>
                </g>
            </g>
        </g>
    </g>
</svg>