<?xml version="1.0" encoding="UTF-8"?>
<svg width="30px" height="30px" viewBox="0 0 30 30" version="1.1" xmlns="http://www.w3.org/2000/svg" xmlns:xlink="http://www.w3.org/1999/xlink">
    <!-- Generator: Sketch 48.2 (47327) - http://www.bohemiancoding.com/sketch -->
    <title>atom</title>
    <desc>Created with Sketch.</desc>
    <defs></defs>
    <g id="Skills" stroke="none" stroke-width="1" fill="none" fill-rule="evenodd" transform="translate(-497.000000, -1698.000000)">
        <g id="Body" transform="translate(489.000000, 174.000000)" fill="#F2F2F8" fill-rule="nonzero">
            <g id="Previously" transform="translate(8.000000, 1182.000000)">
                <g id="Skills" transform="translate(0.000000, 74.000000)">
                    <g id="The-rest" transform="translate(0.000000, 226.000000)">
                        <g id="Logos" transform="translate(0.000000, 42.000000)">
                            <g id="atom">
                                <path d="M15,29.8671835 C6.78908129,29.8671835 0.132816512,23.2109187 0.132816512,15 C0.132816512,6.78908129 6.78908129,0.132816512 15,0.132816512 C23.2109187,0.132816512 29.8671835,6.78908129 29.8671835,15 C29.8671835,23.2109187 23.2109187,29.8671835 15,29.8671835 Z M14.9834626,28.6103359 C22.4911102,28.6103359 28.577261,22.524185 28.577261,15.0165374 C28.577261,7.50888984 22.4911102,1.42273895 14.9834626,1.42273895 C7.47581496,1.42273895 1.38966407,7.50888984 1.38966407,15.0165374 C1.38966407,22.524185 7.47581496,28.6103359 14.9834626,28.6103359 Z M13.9760567,15.1317095 C13.9760567,14.5324908 14.4613983,14.0467193 15.0600877,14.0467193 C15.6588101,14.0467193 16.1441517,14.5324908 16.1441517,15.1317095 C16.1441517,15.7309281 15.6588101,16.2166996 15.0600877,16.2166996 C14.4613983,16.2166996 13.9760567,15.7309281 13.9760567,15.1317095 Z M11.7968554,12.9182254 C11.636905,13.164766 11.4823458,13.4123649 11.3331778,13.6603277 C11.1700192,13.2112032 11.0267716,12.768892 10.9047582,12.3373964 C11.3385029,12.2752486 11.7995344,12.2261985 12.2854714,12.1922636 C12.1204605,12.4288156 11.9574011,12.6708249 11.7968554,12.9182254 Z M23.7896285,13.7874016 C23.309149,13.3261716 22.6222486,12.9035401 21.748012,12.5312156 C20.0124708,11.79209 17.6877659,11.3132311 15.2020853,11.1828497 C14.9023272,11.1671391 14.6096802,11.1563897 14.326658,11.1506678 C16.2244316,8.88546466 18.057246,7.68021401 19.1246403,7.63966414 C19.3506745,7.63103158 19.5404253,7.6757489 19.6890972,7.77236078 C20.188661,8.09702435 20.327245,9.10402383 20.0598672,10.4660827 C20.0071127,10.7349489 20.1822445,10.9957117 20.4511107,11.0484993 C20.7200099,11.1010884 20.9807065,10.926122 21.0335272,10.6572228 C21.4931695,8.31571583 20.8501928,7.34361039 20.2298724,6.94039386 C19.9061019,6.72993804 19.5213412,6.63163933 19.086968,6.64814373 C17.4450951,6.71052306 15.144568,8.46121247 13.0454342,11.1601603 C12.2143603,11.1888362 11.413153,11.2605758 10.663675,11.3725013 C10.5814176,10.9905189 10.5178476,10.6202781 10.474784,10.265384 C10.2865215,8.71377266 10.5174176,7.61237731 11.0923923,7.31913494 C11.1847706,7.27203623 11.2857153,7.24491479 11.4010145,7.23628223 C11.9147675,7.19761763 12.6396709,7.5428538 13.440845,8.20822228 C13.6515654,8.38325484 13.9643882,8.35431427 14.1394869,8.14349463 C14.3145194,7.93270807 14.2855458,7.61991841 14.0747592,7.44488585 C13.0457318,6.59029567 12.1212213,6.1871122 11.3267613,6.24681246 C11.0811138,6.2652352 10.8506145,6.32863985 10.641614,6.43520729 C10.10752,6.70757939 9.74253805,7.22913804 9.55678921,7.98539644 C9.39769878,8.63300367 9.37514167,9.44032978 9.4897794,10.3848838 C9.53509206,10.7584321 9.60137423,11.1471949 9.68680679,11.5474678 C9.10081815,11.6709696 8.55772772,11.8214275 8.07093081,11.9972869 C5.94116958,12.766643 5.44947759,13.7807205 5.41203676,14.495966 C5.37624968,15.1791949 5.72598405,16.1960176 7.59524709,17.1599866 C7.83877785,17.2856052 8.13800679,17.1899194 8.26359231,16.9464218 C8.38917785,16.702891 8.29355821,16.4036621 8.05002745,16.2781096 C6.97472823,15.7235422 6.37438508,15.0929355 6.40292875,14.5478605 C6.44314787,13.7798605 7.73042436,12.9670109 9.92316028,12.5089892 C10.1262735,13.2425582 10.3871685,14.0044393 10.6999913,14.7769706 C9.91188172,16.2563794 9.3368409,17.7144218 9.03867035,19.0113892 C8.82556855,19.938149 8.76328844,20.7427629 8.85354994,21.4029055 C8.95895976,22.1739153 9.26735045,22.7305334 9.7700564,23.0573137 C10.0263872,23.2239122 10.3718548,23.3542274 10.825643,23.3542274 C11.4836357,23.3541944 12.3692502,23.0801024 13.5400037,22.2450595 C13.763061,22.0859691 13.8149556,21.7761562 13.6558321,21.5530657 C13.4967747,21.3300084 13.1869287,21.2781469 12.9638383,21.4372373 C11.8097877,22.2603731 10.8180027,22.5550048 10.3107985,22.2253799 C9.76989102,21.8737934 9.65581557,20.7553974 10.0056822,19.2336858 C10.2376698,18.2246688 10.6516357,17.1062398 11.2130166,15.9535453 C11.3348977,16.2144734 11.4621039,16.475567 11.5947675,16.7361644 C12.7246404,18.9556249 14.1078011,20.8866388 15.4894735,22.1735515 C16.1852709,22.8215887 16.8507716,23.2778905 17.4674869,23.5297892 C17.8416306,23.6825623 18.1929856,23.7589655 18.5191706,23.7589655 C18.8210786,23.7589323 19.101521,23.6934771 19.3582817,23.5625334 C19.8734238,23.2998192 20.2316585,22.8042905 20.4230631,22.0897397 C20.5869494,21.4778202 20.6237619,20.7144838 20.5325412,19.8208983 C20.3531427,18.0639247 19.6892295,15.9210657 18.6631127,13.7870378 C18.5444067,13.5400672 18.247923,13.4362119 18.0009856,13.5548848 C17.7540481,13.6736238 17.6501266,13.9700745 17.7688657,14.2170119 C18.7464615,16.2501282 19.3774321,18.2761003 19.5454197,19.9216776 C19.6931655,21.3689044 19.4546951,22.3995194 18.9075034,22.6785727 C18.3328926,22.9715835 17.3079995,22.5113458 16.1657567,21.4474574 C14.8668709,20.2376755 13.5575665,18.4046295 12.4789928,16.2860145 C12.2324192,15.8016321 12.0052605,15.3162574 11.7985753,14.834521 C12.0551045,14.3758378 12.3325039,13.9156001 12.6292192,13.458306 C12.9317556,12.9920486 13.2380295,12.5526481 13.5451303,12.1404683 C13.6265939,12.1393437 13.7084874,12.1385168 13.7910755,12.1382523 C14.2171468,12.1368962 14.6738125,12.1487701 15.1501246,12.1737417 C17.522722,12.2982026 19.727828,12.7493778 21.3592492,13.4441168 C22.7942052,14.0552424 23.6307365,14.8050512 23.5970001,15.4498802 C23.5683241,15.9973696 22.9030879,16.5632817 21.7718921,17.0024838 C21.5164543,17.1016755 21.3897773,17.3891298 21.4889359,17.6445344 C21.5652067,17.8409665 21.7528078,17.961227 21.9515881,17.961227 C22.0112553,17.961227 22.0720141,17.9503784 22.1309866,17.9274574 C24.09663,17.1642533 24.5520057,16.1871205 24.5878921,15.5017417 C24.6192471,14.9027546 24.3506786,14.3259939 23.7896285,13.7874016 Z" id="Shape"></path>
                            </g>
                        </g>
                    </g>
                </g>
            </g>
        </g>
    </g>
</svg>