<?xml version="1.0" encoding="UTF-8"?>
<svg width="30px" height="30px" viewBox="0 0 30 30" version="1.1" xmlns="http://www.w3.org/2000/svg" xmlns:xlink="http://www.w3.org/1999/xlink">
    <!-- Generator: Sketch 48.2 (47327) - http://www.bohemiancoding.com/sketch -->
    <title>bootstrap</title>
    <desc>Created with Sketch.</desc>
    <defs></defs>
    <g id="Skills" stroke="none" stroke-width="1" fill="none" fill-rule="evenodd" transform="translate(-556.000000, -1475.000000)">
        <g id="Body" transform="translate(489.000000, 174.000000)" fill="#F2F2F8">
            <g id="Previously" transform="translate(8.000000, 1182.000000)">
                <g id="Skills" transform="translate(0.000000, 74.000000)">
                    <g id="Tooling">
                        <g id="Logos" transform="translate(0.000000, 42.000000)">
                            <g id="bootstrap" transform="translate(59.000000, 3.000000)">
                                <path d="M0,26.1317842 L0,3.86821579 C0,1.7318592 1.73162418,0 3.86821579,0 L26.1317842,0 C28.2681408,0 30,1.73162418 30,3.86821579 L30,26.1317842 C30,28.2681408 28.2683759,30 26.1317842,30 L3.86821579,30 C1.7318592,30 0,28.2683759 0,26.1317842 Z M8.44628086,5.91796875 L8.44628086,24.0820312 L17.2484736,24.0820312 C18.0625533,24.0820312 18.8554212,23.9802728 19.6271009,23.7767529 C20.3987805,23.573233 21.08565,23.2594778 21.6877297,22.8354779 C22.2898096,22.4114781 22.7689222,21.8645265 23.1250821,21.1946067 C23.4812419,20.524687 23.6593192,19.7318191 23.6593192,18.8159795 C23.6593192,17.6796599 23.3837235,16.7087148 22.8325236,15.9031152 C22.2813238,15.0975155 21.4460566,14.5336041 20.3266971,14.2113642 C21.1407768,13.8212844 21.7555673,13.3209721 22.1710871,12.7104123 C22.5866071,12.0998525 22.7943639,11.3366642 22.7943639,10.4208246 C22.7943639,9.57282489 22.654446,8.86051584 22.3746061,8.28387605 C22.0947662,7.70723626 21.7004523,7.24508337 21.1916524,6.89740349 C20.6828527,6.54972362 20.072302,6.29956746 19.3599823,6.14692752 C18.6476625,5.99428758 17.8590347,5.91796875 16.9940749,5.91796875 L8.44628086,5.91796875 Z M12.4403394,13.2700893 L12.4403394,9.02163209 L16.1799994,9.02163209 C16.5361593,9.02163209 16.879594,9.05131164 17.2103139,9.11067162 C17.5410337,9.17003159 17.8335892,9.27602996 18.0879891,9.42866991 C18.3423891,9.58130985 18.5459059,9.79330659 18.6985458,10.0646665 C18.8511858,10.3360264 18.9275046,10.6837011 18.9275046,11.1077009 C18.9275046,11.8709006 18.6985481,12.4220921 18.2406282,12.7612921 C17.7827085,13.1004919 17.1975975,13.2700893 16.4852777,13.2700893 L12.4403394,13.2700893 Z M12.4403394,20.9783679 L12.4403394,15.9921547 L16.7905561,15.9921547 C17.6555157,15.9921547 18.3508651,16.1914316 18.8766248,16.5899914 C19.4023847,16.9885513 19.6652606,17.6542211 19.6652606,18.5870208 C19.6652606,19.0619006 19.5847018,19.4519746 19.4235819,19.7572545 C19.262462,20.0625343 19.0462253,20.3042106 18.7748654,20.4822906 C18.5035055,20.6603705 18.1897504,20.7875686 17.8335905,20.8638885 C17.4774306,20.9402085 17.1043164,20.9783679 16.7142364,20.9783679 L12.4403394,20.9783679 Z" id="Combined-Shape"></path>
                            </g>
                        </g>
                    </g>
                </g>
            </g>
        </g>
    </g>
</svg>