<?xml version="1.0" encoding="UTF-8"?>
<svg width="27px" height="30px" viewBox="0 0 27 30" version="1.1" xmlns="http://www.w3.org/2000/svg" xmlns:xlink="http://www.w3.org/1999/xlink">
    <!-- Generator: Sketch 48.2 (47327) - http://www.bohemiancoding.com/sketch -->
    <title>c</title>
    <desc>Created with Sketch.</desc>
    <defs></defs>
    <g id="Skills" stroke="none" stroke-width="1" fill="none" fill-rule="evenodd" transform="translate(-611.000000, -1586.000000)">
        <g id="Body" transform="translate(489.000000, 174.000000)" fill="#F2F2F8" fill-rule="nonzero">
            <g id="Previously" transform="translate(8.000000, 1182.000000)">
                <g id="Skills" transform="translate(0.000000, 74.000000)">
                    <g id="Languages" transform="translate(0.000000, 114.000000)">
                        <g id="Logos" transform="translate(0.000000, 42.000000)">
                            <g id="c" transform="translate(114.000000, 0.000000)">
                                <path d="M26.6653125,8.82 C26.6666667,12.9407292 26.6666667,21.1796875 26.6666667,21.1796875 C26.6664583,21.673125 26.5630208,22.1102083 26.355,22.4870833 C26.1408333,22.8742708 25.8157292,23.1984375 25.3757292,23.4533333 C21.8251042,25.5022917 18.2713542,27.5448958 14.7223958,29.5960417 C13.7653125,30.1490625 12.8376042,30.1290625 11.8875,29.5679167 C10.4747917,28.7335417 3.39927083,24.6767708 1.29104167,23.4545833 C0.851041667,23.1995833 0.5259375,22.875625 0.311770833,22.488125 C0.1034375,22.11125 0.000208333333,21.6741667 0,21.1808333 C0.00135416667,17.0601042 0,12.9396875 0.00135416667,8.8190625 C0.0015625,7.81833333 0.4240625,7.0484375 1.2921875,6.5453125 C3.4003125,5.323125 10.4748958,1.26604167 11.8879167,0.431875 C12.8376042,-0.128958333 13.7653125,-0.1490625 14.7220833,0.40375 C18.2709375,2.45479167 21.8244792,4.4975 25.3745833,6.54645833 C25.8045833,6.79583333 26.1253125,7.11104167 26.339375,7.48729167 C26.5572917,7.86979167 26.6651042,8.31552083 26.6653125,8.82 Z M16.0891667,13.1216667 L20.2390625,13.1509375 C20.2390625,11.421875 18.4888542,7.1875 13.4710417,7.1875 C10.2740625,7.1875 5.97614583,9.22 5.97614583,15.0635417 C5.97614583,20.9069792 10.189375,22.8125 13.4710417,22.8125 C18.7853125,22.8125 20.0554167,19.1352083 20.0554167,17.0570833 L16.0963542,16.8307292 C16.0963542,16.8307292 16.2022917,19.234375 13.4498958,19.234375 C10.9092708,19.234375 10.4853125,16.1220833 10.4853125,15.0635417 C10.4853125,13.4544792 11.0575,10.8714583 13.4498958,10.8714583 C15.8423958,10.8714583 16.0891667,13.1216667 16.0891667,13.1216667 Z" id="Combined-Shape"></path>
                            </g>
                        </g>
                    </g>
                </g>
            </g>
        </g>
    </g>
</svg>