<?xml version="1.0" encoding="UTF-8"?>
<svg width="27px" height="30px" viewBox="0 0 27 30" version="1.1" xmlns="http://www.w3.org/2000/svg" xmlns:xlink="http://www.w3.org/1999/xlink">
    <!-- Generator: Sketch 48.2 (47327) - http://www.bohemiancoding.com/sketch -->
    <title>c++</title>
    <desc>Created with Sketch.</desc>
    <defs></defs>
    <g id="Skills" stroke="none" stroke-width="1" fill="none" fill-rule="evenodd" transform="translate(-668.000000, -1586.000000)">
        <g id="Body" transform="translate(489.000000, 174.000000)" fill="#F2F2F8" fill-rule="nonzero">
            <g id="Previously" transform="translate(8.000000, 1182.000000)">
                <g id="Skills" transform="translate(0.000000, 74.000000)">
                    <g id="Languages" transform="translate(0.000000, 114.000000)">
                        <g id="Logos" transform="translate(0.000000, 42.000000)">
                            <g id="c++" transform="translate(171.000000, 0.000000)">
                                <path d="M26.6217708,8.825 C26.623125,12.935 26.623125,21.1526042 26.623125,21.1526042 C26.6229167,21.6447917 26.5196875,22.0807292 26.3119792,22.4565625 C26.098125,22.8428125 25.7735417,23.1661458 25.3342708,23.4203125 C21.7894792,25.4639583 18.2415625,27.50125 14.6983333,29.5470833 C13.7428125,30.09875 12.8166667,30.07875 11.868125,29.5190625 C10.4577083,28.686875 3.39375,24.640625 1.28895833,23.4215625 C0.8496875,23.1672917 0.525104167,22.8441667 0.31125,22.4576042 C0.103229167,22.0817708 0.000208333333,21.6458333 0,21.15375 C0.00135416667,17.04375 0,12.9339583 0.00135416667,8.8240625 C0.0015625,7.8259375 0.423333333,7.05802083 1.29010417,6.55625 C3.39479167,5.3371875 10.4578125,1.290625 11.8685417,0.458645833 C12.8166667,-0.100729167 13.7428125,-0.120833333 14.6980208,0.430625 C18.2411458,2.47635417 21.7888542,4.51375 25.333125,6.55739583 C25.7625,6.80604167 26.0826042,7.12052083 26.2963542,7.49572917 C26.5139583,7.87729167 26.6215625,8.321875 26.6217708,8.825 Z M25.9091667,15.4855208 L25.9091667,14.4729167 L24.8964583,14.4729167 L24.8964583,13.4602083 L23.8835417,13.4602083 L23.8835417,14.4729167 L22.8709375,14.4729167 L22.8709375,15.4855208 L23.8835417,15.4855208 L23.8835417,16.4984375 L24.8964583,16.4984375 L24.8964583,15.4855208 L25.9091667,15.4855208 Z M22.2138542,15.4855208 L22.2138542,14.4729167 L21.20125,14.4729167 L21.20125,13.4602083 L20.1885417,13.4602083 L20.1885417,14.4729167 L19.1758333,14.4729167 L19.1758333,15.4855208 L20.1885417,15.4855208 L20.1885417,16.4984375 L21.20125,16.4984375 L21.20125,15.4855208 L22.2138542,15.4855208 Z M17.1478125,17.1475 C16.3928125,18.4864583 14.958125,19.3913542 13.3115625,19.3913542 C11.6751042,19.3913542 10.2485417,18.4978125 9.4896875,17.1730208 C9.12104167,16.5292708 8.9090625,15.7839583 8.9090625,14.9888542 C8.9090625,12.5575 10.8802083,10.5864583 13.3115625,10.5864583 C14.9375,10.5864583 16.3565625,11.4688542 17.1191667,12.7801042 L20.9671875,10.5642708 C19.4377083,7.9240625 16.5821875,6.1478125 13.3115625,6.1478125 C8.42864583,6.1478125 4.47041667,10.1061458 4.47041667,14.9888542 C4.47041667,16.5907292 4.8965625,18.0929167 5.64135417,19.3886458 C7.16697917,22.0428125 10.030625,23.83 13.3115625,23.83 C16.5985417,23.83 19.4666667,22.035625 20.9901042,19.3736458 L17.1478125,17.1475 Z" id="Combined-Shape"></path>
                            </g>
                        </g>
                    </g>
                </g>
            </g>
        </g>
    </g>
</svg>