<?xml version="1.0" encoding="UTF-8"?>
<svg width="26px" height="30px" viewBox="0 0 26 30" version="1.1" xmlns="http://www.w3.org/2000/svg" xmlns:xlink="http://www.w3.org/1999/xlink">
    <!-- Generator: Sketch 48.2 (47327) - http://www.bohemiancoding.com/sketch -->
    <title>css-3</title>
    <desc>Created with Sketch.</desc>
    <defs></defs>
    <g id="Skills" stroke="none" stroke-width="1" fill="none" fill-rule="evenodd" transform="translate(-726.000000, -642.000000)">
        <g id="Body" transform="translate(489.000000, 174.000000)" fill="#F2F2F8" fill-rule="nonzero">
            <g id="Daily-Skills" transform="translate(5.000000, 238.000000)">
                <g id="Skills" transform="translate(0.000000, 74.000000)">
                    <g id="Languages" transform="translate(3.000000, 114.000000)">
                        <g id="Logos" transform="translate(0.000000, 42.000000)">
                            <g id="css-3" transform="translate(229.024390, 0.000000)">
                                <path d="M12.8924773,11.9239585 L5.38416205,11.9239585 L5.67372876,15.1547261 L12.8924773,15.1547261 L16.8708534,15.1547261 L16.4958398,19.3448346 L12.8924773,20.3174087 L12.8894892,20.318476 L9.29132047,19.3468979 L9.06130348,16.770181 L5.81808523,16.770181 L6.27071997,21.8430055 L12.8887777,23.6802244 L12.9036473,23.676098 L12.9036473,23.6755635 L19.5157999,21.8430055 L19.564393,21.2971687 L20.3235985,12.7915203 L20.4024289,11.9239585 L20.9856889,5.3847312 L12.8924773,5.3847312 L4.80232507,5.3847312 L5.09601828,8.61556998 L12.8924773,8.61556998 L17.4450067,8.61556998 L17.1510289,11.9239585 L12.8924773,11.9239585 Z M12.8878528,29.2682927 L2.34862077,26.3425306 L0,0 L25.8072947,0 L23.4561837,26.3384042 L12.8878528,29.2682927 Z" id="Combined-Shape"></path>
                            </g>
                        </g>
                    </g>
                </g>
            </g>
        </g>
    </g>
</svg>