<?xml version="1.0" encoding="UTF-8"?>
<svg width="30px" height="30px" viewBox="0 0 30 30" version="1.1" xmlns="http://www.w3.org/2000/svg" xmlns:xlink="http://www.w3.org/1999/xlink">
    <!-- Generator: Sketch 48.2 (47327) - http://www.bohemiancoding.com/sketch -->
    <title>digital-ocean</title>
    <desc>Created with Sketch.</desc>
    <defs></defs>
    <g id="Skills" stroke="none" stroke-width="1" fill="none" fill-rule="evenodd" transform="translate(-497.000000, -1226.000000)">
        <g id="Body" transform="translate(489.000000, 174.000000)" fill="#F2F2F8" fill-rule="nonzero">
            <g id="Occasionally" transform="translate(8.000000, 710.000000)">
                <g id="Skills" transform="translate(0.000000, 74.000000)">
                    <g id="The-rest" transform="translate(0.000000, 226.000000)">
                        <g id="Logos" transform="translate(0.000000, 42.000000)">
                            <g id="digital-ocean">
                                <path d="M15.0712484,24.0539481 L15.0712484,29.7993174 C24.809334,29.7993174 32.3915147,20.3916253 29.2059767,10.1872113 C27.813906,5.72782923 24.2704842,2.1844074 19.8111021,0.792336781 C9.60668814,-2.39320114 0.198827326,5.18914816 0.198827326,14.9272337 L5.9573516,14.9272337 C5.95819488,14.9272337 5.95886949,14.9257158 5.95886949,14.9257158 C5.95971277,8.81436721 12.007816,4.08952367 18.4330298,6.42099744 C20.8134133,7.28484353 22.7121207,9.18321365 23.5764728,11.5634284 C25.908296,17.9848748 21.190556,24.0305937 15.0844035,24.039266 L15.0844035,18.312458 C15.0844035,18.312458 15.0838974,18.3121207 15.0833916,18.3121207 L9.34257581,18.3121207 C9.34207,18.3121207 9.34156395,18.312964 9.34156395,18.312964 L9.34156395,24.0539481 L15.0712484,24.0539481 Z M9.34055209,28.4664444 L4.92957374,28.4664444 L4.92856184,28.4654326 L4.92856184,24.0539481 L9.34156395,24.0539481 L9.34156395,28.4654326 C9.34156395,28.4654326 9.34105814,28.4664444 9.34055209,28.4664444 Z M4.9315976,24.0539481 L1.2338573,24.0539481 C1.23233942,24.0539481 1.23115884,24.0529363 1.23115884,24.0529363 L1.23115884,20.3568825 C1.23115884,20.3568825 1.23233942,20.3541841 1.2338573,20.3541841 L4.92889914,20.3541841 C4.93041702,20.3541841 4.9315976,20.3553647 4.9315976,20.3553647 L4.9315976,24.0539481 Z" id="Shape"></path>
                            </g>
                        </g>
                    </g>
                </g>
            </g>
        </g>
    </g>
</svg>