<?xml version="1.0" encoding="UTF-8"?>
<svg width="33px" height="30px" viewBox="0 0 33 30" version="1.1" xmlns="http://www.w3.org/2000/svg" xmlns:xlink="http://www.w3.org/1999/xlink">
    <!-- Generator: Sketch 48.2 (47327) - http://www.bohemiancoding.com/sketch -->
    <title>dotnet</title>
    <desc>Created with Sketch.</desc>
    <defs></defs>
    <g id="Skills" stroke="none" stroke-width="1" fill="none" fill-rule="evenodd" transform="translate(-803.000000, -1475.000000)">
        <g id="Body" transform="translate(489.000000, 174.000000)" fill="#F2F2F8">
            <g id="Previously" transform="translate(8.000000, 1182.000000)">
                <g id="Skills" transform="translate(0.000000, 74.000000)">
                    <g id="Tooling">
                        <g id="Logos" transform="translate(0.000000, 42.000000)">
                            <g id="dotnet" transform="translate(306.521368, 2.000000)">
                                <g id="Group" transform="translate(3.286989, 15.343225)" fill-rule="nonzero">
                                    <path d="M23.0575764,1.3951575 C23.0575764,1.34237642 23.0430938,1.30464578 23.0133216,1.27998339 C22.9803422,1.25343847 22.9232979,1.2392845 22.8438922,1.2392845 L22.7297341,1.2392845 L22.7297341,1.55304255 L22.8675087,1.55304255 C22.9947352,1.55304255 23.0575764,1.50026147 23.0575764,1.3951575 Z M23.2355718,2.049348 L23.0786929,2.049348 L22.9786489,1.82859182 C22.92784,1.71796971 22.8735349,1.66265865 22.8142098,1.66265865 L22.7297341,1.66265865 L22.7297341,2.049348 L22.6004857,2.049348 L22.6004857,1.12914049 L22.8594606,1.12914049 C22.9746248,1.12914049 23.0610725,1.15408176 23.1204476,1.20609587 C23.1707286,1.2508288 23.1958691,1.30818178 23.1958691,1.37958912 C23.1958691,1.44294832 23.1753503,1.49624736 23.1340039,1.54045238 C23.0937732,1.58522516 23.035932,1.61539573 22.9620347,1.63100394 L22.9620347,1.63498817 C23.0133216,1.64706038 23.0646086,1.70337746 23.1143716,1.80494543 L23.2355718,2.04984602 L23.2355718,2.049348 Z M23.5221773,1.59829343 C23.5221773,1.41727993 23.4603521,1.26442499 23.3371398,1.14322474 C23.2134494,1.02206433 23.0625965,0.961235111 22.8846011,0.961235111 C22.7010477,0.961235111 22.5482326,1.02206433 22.4270324,1.1442706 C22.3058321,1.26695497 22.2455308,1.41876406 22.2455308,1.59829343 C22.2455308,1.78184685 22.3083621,1.93518987 22.4330684,2.05739614 C22.5562807,2.17956257 22.7071237,2.23990371 22.8846011,2.23990371 C23.0610725,2.23990371 23.2119155,2.17907449 23.3361338,2.05534426 C23.4603521,1.93365595 23.5221773,1.78084084 23.5221773,1.59829343 Z M23.6091531,1.59430919 C23.6091531,1.79749491 23.5392797,1.96793027 23.399005,2.10518696 C23.2587004,2.24347956 23.086731,2.31234696 22.8810652,2.31234696 C22.673935,2.31234696 22.5019757,2.24448558 22.3651672,2.11121311 C22.2284384,1.97597841 22.1605372,1.80602117 22.1605372,1.5998672 C22.1605372,1.3982154 22.2299225,1.22877609 22.3687032,1.08951733 C22.5074839,0.950736668 22.6804493,0.881351318 22.8871311,0.881351318 C23.0897491,0.881351318 23.2597064,0.947718614 23.397481,1.07994522 C23.5387517,1.21570782 23.6091531,1.38667109 23.6091531,1.59430919 Z" id="Shape"></path>
                                    <path d="M3.94242059,4.16020253 L3.49643594,4.16020253 L3.49643594,1.60786553 C3.49643594,1.40625358 3.50971339,1.16087487 3.53344943,0.871251298 L3.52338925,0.871251298 C3.48163453,1.04068064 3.44341581,1.16337497 3.40974907,1.23932434 L2.11347018,4.16020253 L1.89625001,4.16020253 L0.597435152,1.26044075 C0.560829052,1.1794613 0.522534633,1.04921685 0.483796971,0.871251298 L0.474145175,0.871251298 C0.487822038,1.0235883 0.495465781,1.27049098 0.495465781,1.61289562 L0.495465781,4.16020253 L0.065530608,4.16020253 L0.065530608,0.359377464 L0.653834904,0.359377464 L1.81990421,3.00974642 C1.90787898,3.20938618 1.96471799,3.36123511 1.9923526,3.46481511 L2.01085736,3.46481511 C2.08676289,3.25713717 2.14710205,3.1012542 2.19287886,2.99868022 L3.3840508,0.359377464 L3.94218154,0.359377464 L3.94218154,4.16020253 L3.94242059,4.16020253 Z" id="Shape"></path>
                                    <path d="M5.31433011,4.16008301 L4.88093564,4.16008301 L4.88093564,1.44583689 L5.31433011,1.44583689 L5.31433011,4.16008301 Z M5.38927346,0.472858269 C5.38927346,0.552821747 5.36111492,0.619677112 5.30527595,0.674510064 C5.2504928,0.729293214 5.18263142,0.756973646 5.10314604,0.756973646 C5.02571255,0.756973646 4.95832928,0.730418759 4.90305807,0.677528118 C4.847747,0.624229093 4.82055464,0.556327869 4.82055464,0.472858269 C4.82055464,0.394418759 4.84790637,0.327563395 4.90305807,0.273258353 C4.95832928,0.218953309 5.02571255,0.192806807 5.10314604,0.192806807 C5.18259157,0.192806807 5.2504928,0.218953309 5.30527595,0.273258353 C5.36111492,0.327563395 5.38927346,0.394418759 5.38927346,0.472858269 Z" id="Shape"></path>
                                    <path d="M8.02297838,4.03450011 C7.81481236,4.16221457 7.56641561,4.22557377 7.27928218,4.22557377 C6.89014252,4.22557377 6.57686259,4.09636522 6.33751998,3.83839635 C6.10520955,3.58798755 5.9880732,3.26469724 5.9880732,2.86846565 C5.9880732,2.42393525 6.11526973,2.06395019 6.37170467,1.79041295 C6.62665549,1.51635775 6.96958805,1.37958912 7.40101034,1.37958912 C7.63681693,1.37958912 7.84598895,1.42584602 8.02901448,1.51736377 L8.02901448,1.96338825 C7.82639651,1.82107159 7.61219439,1.75067026 7.38238407,1.75067026 C7.10582876,1.75067026 6.88108836,1.84721809 6.70658909,2.03981573 C6.52504768,2.23692551 6.43305183,2.50040257 6.43305183,2.82925088 C6.43305183,3.14502096 6.51703939,3.39491181 6.68397858,3.5794613 C6.85140585,3.76297489 7.07417406,3.85501059 7.35523155,3.85501059 C7.59256211,3.85501059 7.81481236,3.77704918 8.02297838,3.62170409 L8.02297838,4.03450011 Z" id="Shape"></path>
                                    <path d="M10.0961421,1.88619381 C10.0197146,1.82738659 9.90962042,1.79870014 9.7642857,1.79870014 C9.58781423,1.79870014 9.43946147,1.87766757 9.31930708,2.03703673 C9.18301656,2.21504212 9.11515517,2.46142686 9.11515517,2.77619091 L9.11515517,4.15996348 L8.68071483,4.15996348 L8.68071483,1.44571737 L9.11515517,1.44571737 L9.11515517,2.00538203 L9.12561377,2.00538203 C9.18949093,1.80726623 9.2880508,1.6548894 9.41978934,1.54680722 C9.54296177,1.44825732 9.68226038,1.39845445 9.8356034,1.39845445 C9.95125561,1.39845445 10.0372552,1.41092509 10.0960624,1.43545798 L10.0960624,1.88599461 L10.0961421,1.88619381 Z" id="Shape"></path>
                                    <path d="M12.5174677,2.80788546 C12.5174677,2.46046067 12.4390282,2.19497157 12.2821492,2.0129421 C12.1298122,1.83796472 11.9170942,1.75047106 11.6430788,1.75047106 C11.3730377,1.75047106 11.1563455,1.83897074 10.9943965,2.01596015 C10.8229452,2.20502179 10.7374735,2.47200498 10.7374735,2.81847354 C10.7374735,3.14329778 10.8189311,3.39820876 10.9833702,3.58022827 C11.1467634,3.76325379 11.3670016,3.85477153 11.6430788,3.85477153 C11.9286783,3.85477153 12.1473926,3.76176966 12.2972294,3.5767321 C12.4440583,3.39570866 12.5174677,3.13975182 12.5174677,2.80788546 M12.9629742,2.79260593 C12.9629742,3.22503424 12.8408078,3.57250882 12.5974312,3.83296784 C12.3530684,4.09443286 12.0242201,4.22517535 11.6108962,4.22517535 C11.2036084,4.22517535 10.8792623,4.09443286 10.6414536,3.83296784 C10.4086252,3.58103507 10.2914889,3.24816269 10.2914889,2.83436066 C10.2914889,2.36218966 10.4237055,1.99814069 10.6891946,1.73969372 C10.9345733,1.49986305 11.2629037,1.37918074 11.6742554,1.37918074 C12.0790033,1.37918074 12.3953013,1.50537124 12.6230597,1.75530193 C12.8488459,2.00670679 12.9629742,2.35265739 12.9629742,2.79260593" id="Shape"></path>
                                    <path d="M15.1175058,3.43392736 C15.1175058,3.65617763 15.0345642,3.84020918 14.868113,3.98703798 C14.6866115,4.14592903 14.4372087,4.22537455 14.1234507,4.22537455 C13.8664879,4.22537455 13.6412195,4.17158747 13.4501458,4.06197136 L13.4501458,3.59483046 C13.6628639,3.76780577 13.8976544,3.85481137 14.1556233,3.85481137 C14.4995619,3.85481137 14.6720093,3.72810293 14.6720093,3.47568209 C14.6720093,3.36956216 14.6341989,3.28159038 14.557891,3.21368915 C14.4814536,3.1443038 14.3331009,3.06135215 14.1123845,2.96428636 C13.8851041,2.86473044 13.723195,2.76267441 13.6276632,2.65656444 C13.5130169,2.53085205 13.4551759,2.3674588 13.4551759,2.16632496 C13.4551759,1.94105666 13.5451995,1.75348911 13.723195,1.60417016 C13.9016785,1.4543233 14.1309709,1.37938992 14.4125464,1.37938992 C14.6282824,1.37938992 14.8213681,1.42162274 14.9928095,1.50661632 L14.9928095,1.9440747 C14.813808,1.81483628 14.609178,1.75047106 14.3768675,1.75047106 C14.2330667,1.75047106 14.1174145,1.78626936 14.031415,1.85606308 C13.9444393,1.92746047 13.9006725,2.01850011 13.9006725,2.12960034 C13.9006725,2.24979456 13.9372777,2.34332434 14.0098105,2.4101797 C14.0741658,2.47204483 14.2109343,2.54746628 14.4170983,2.63543806 C14.6488809,2.73250384 14.816338,2.83307575 14.918394,2.93612782 C15.0506505,3.06638224 15.1175058,3.23231541 15.1175058,3.43392736" id="Shape"></path>
                                    <path d="M17.7725862,2.80788546 C17.7725862,2.46046067 17.6941467,2.19497157 17.5367796,2.0129421 C17.3849307,1.83796472 17.1717246,1.75047106 16.8981973,1.75047106 C16.6281562,1.75047106 16.411454,1.83897074 16.2485389,2.01596015 C16.0775856,2.20502179 15.9925821,2.47200498 15.9925821,2.81847354 C15.9925821,3.14329778 16.0740396,3.39820876 16.2369547,3.58022827 C16.4024098,3.76325379 16.622648,3.85477153 16.8981973,3.85477153 C17.1842749,3.85477153 17.4025011,3.76176966 17.552348,3.5767321 C17.6991668,3.39570866 17.7725862,3.13975182 17.7725862,2.80788546 M18.2190888,2.79260593 C18.2190888,3.22503424 18.0959163,3.57250882 17.8520318,3.83296784 C17.608665,4.09443286 17.2798167,4.22517535 16.8664928,4.22517535 C16.4587269,4.22517535 16.1343808,4.09443286 15.896562,3.83296784 C15.6637437,3.58103507 15.5465974,3.24816269 15.5465974,2.83436066 C15.5465974,2.36218966 15.67983,1.99814069 15.943835,1.73969372 C16.1892136,1.49986305 16.518062,1.37918074 16.929852,1.37918074 C17.3346397,1.37918074 17.6504197,1.50537124 17.8776901,1.75530193 C18.1039645,2.00670679 18.2190888,2.35265739 18.2190888,2.79260593" id="Shape"></path>
                                    <path d="M20.133481,0.523577506 C20.0479993,0.476314589 19.9529955,0.452180121 19.8448634,0.452180121 C19.5406376,0.452180121 19.3897848,0.643731895 19.3897848,1.02741316 L19.3897848,1.44575721 L20.0258769,1.44575721 L20.0258769,1.81383026 L19.3897848,1.81383026 L19.3897848,4.16000332 L18.9548663,4.16000332 L18.9548663,1.81383026 L18.4932734,1.81383026 L18.4932734,1.44575721 L18.9548663,1.44575721 L18.9548663,1.00580867 C18.9548663,0.707091097 19.0463741,0.472778584 19.2324277,0.30382735 C19.3918366,0.156998548 19.5868945,0.0841070761 19.8187169,0.0841070761 C19.9529955,0.0841070761 20.0575814,0.100203362 20.133481,0.131379954 L20.133481,0.523577506 Z" id="Shape"></path>
                                    <path d="M21.8481936,4.13273127 C21.7456196,4.19157834 21.608851,4.2207429 21.4398997,4.2207429 C20.9662446,4.2207429 20.729432,3.95372982 20.729432,3.41972359 L20.729432,1.81422868 L20.2638151,1.81422868 L20.2638151,1.44563769 L20.729432,1.44563769 L20.729432,0.783438888 C20.8682127,0.739672131 21.0125015,0.691921146 21.1648784,0.642646193 L21.1648784,1.44563769 L21.8481936,1.44563769 L21.8481936,1.81422868 L21.1648784,1.81422868 L21.1648784,3.34583607 C21.1648784,3.52785557 21.1946405,3.65807014 21.2568743,3.73349159 C21.3197453,3.81144304 21.4223193,3.84966176 21.5671361,3.84966176 C21.6752282,3.84966176 21.768748,3.82069641 21.8481936,3.76216809 L21.8481936,4.13273127 Z" id="Shape"></path>
                                </g>
                                <g id="Group" transform="translate(0.000000, 20.721934)" fill-rule="nonzero">
                                    <path d="M1.64931048,9.37471177 C1.64931048,9.58738992 1.57340394,9.77142145 1.42002208,9.92681635 C1.26716315,10.0816833 1.08160166,10.1596447 0.863898402,10.1596447 C0.6511834,10.1596447 0.470166922,10.0816833 0.321853994,9.92681635 C0.173501224,9.77142145 0.0996057273,9.58738992 0.0996057273,9.37471177 C0.0996057273,9.15600748 0.173501224,8.97144802 0.321853994,8.81859307 C0.470166922,8.6652102 0.6511834,8.58930069 0.863898402,8.58930069 C1.08160166,8.58930069 1.26716315,8.66625607 1.42002208,8.82161112 C1.57340394,8.97700602 1.64931048,9.16151567 1.64931048,9.37471177" id="Shape"></path>
                                    <path d="M11.3767829,9.99978751 L9.95983167,9.99978751 L4.81645885,2.05668894 C4.69626363,1.86561527 4.59268263,1.65793734 4.50470786,1.43117493 L4.46243021,1.43117493 C4.49903631,1.64385309 4.51778111,2.10041586 4.51778111,2.7998672 L4.51778111,9.99978751 L3.34970077,9.99978751 L3.34970077,0.0343340942 L4.86573579,0.0343340942 L9.85524566,7.85224818 C10.0538794,8.16247022 10.1896022,8.38471052 10.2585094,8.51847106 L10.2862596,8.51847106 C10.2400027,8.23185557 10.215908,7.74311019 10.215908,7.05324092 L10.215908,0.0343340942 L11.3769124,0.0343340942 L11.3769124,9.99978751 L11.3767829,9.99978751 Z" id="Shape"></path>
                                    <polygon id="Shape" points="18.8650917 9.99978751 13.5834183 9.99978751 13.5834183 0.0343340942 18.6357993 0.0343340942 18.6357993 1.09026437 14.7504986 1.09026437 14.7504986 4.40536211 18.3507177 4.40536211 18.3507177 5.4618203 14.7504986 5.4618203 14.7504986 8.94336916 18.8650917 8.94336916"></polygon>
                                    <polygon id="Shape" points="26.8764301 1.0903839 24.0058429 1.0903839 24.0058429 9.99994688 22.8382844 9.99994688 22.8382844 1.0903839 19.9621292 1.0903839 19.9621292 0.0339755136 26.8764301 0.0339755136"></polygon>
                                </g>
                                <g id="dotnet-icon" transform="translate(0.099606, 0.793651)">
                                    <path d="M20.5988571,10.2684444 C20.7205079,9.95555556 20.8584127,9.64749206 20.9612698,9.32850794 C21.5423492,7.52609524 22.1178413,5.72215873 22.6895238,3.91669841 C22.9092063,3.22311111 23.1499683,2.54019048 23.5822222,1.94412698 C24.2659048,1.00215873 25.2182857,0.508698413 26.3453968,0.336253968 C26.7875556,0.268698413 27.2388571,0.237460317 27.6863492,0.233142857 C29.024,0.220444444 30.3621587,0.229333333 31.7000635,0.230603175 C31.7711746,0.230603175 31.8422857,0.237968254 31.9431111,0.243809524 C31.9103492,0.321015873 31.8925714,0.377142857 31.864127,0.42768254 C31.367619,1.31504762 30.8807619,2.20774603 30.3695238,3.08622222 C29.4793651,4.61561905 28.5876825,6.14450794 27.6695873,7.65714286 C27.0806349,8.62704762 26.4419048,9.56698413 25.7173333,10.4441905 C25.1827302,11.0913016 24.6199365,11.7099683 23.9024762,12.1635556 C23.4135873,12.4726349 22.8914286,12.6534603 22.2986667,12.6504127 C20.1963175,12.6389841 18.0939683,12.6473651 15.991619,12.6443175 C15.3666032,12.6433016 14.8314921,12.4053333 14.3773968,11.9832381 C13.7264762,11.3785397 13.3379048,10.6087619 13.0199365,9.79707937 C12.439873,8.3151746 12.1150476,6.76190476 11.7422222,5.22209524 C11.5674921,4.50133333 11.3688889,3.78615873 11.1796825,3.06895238 C11.1674921,3.02247619 11.143619,2.97904762 11.1161905,2.91225397 L10.9696508,3.04990476 C10.1498413,3.86438095 9.42780952,4.76190476 8.78171429,5.71606349 C8.60571429,5.97612698 8.54653968,6.31898413 8.44825397,6.62806349 C8.08660317,7.76330159 7.75695238,8.90946032 7.36533333,10.0340317 C6.99022222,11.1113651 6.31771429,11.968254 5.26653968,12.4746667 C4.65193651,12.7705397 3.99568254,12.9305397 3.31377778,12.9457778 C2.30298413,12.968127 1.29168254,12.9706667 0.280634921,12.9798095 C0.0388571429,12.9820952 0.0276825397,12.9622857 0.0906666667,12.728381 C0.524190476,11.1187302 1.07352381,9.55022222 1.76177778,8.032 C2.47136508,6.46577778 3.3071746,4.97219048 4.36012698,3.60812698 C5.07707937,2.67936508 5.86895238,1.82247619 6.85993651,1.17460317 C7.36253968,0.846222222 7.89688889,0.586666667 8.50488889,0.518349206 C8.60495238,0.506920635 8.70628571,0.499809524 8.80685714,0.499809524 C10.96,0.498793651 13.1131429,0.520634921 15.2660317,0.489904762 C16.4208254,0.473396825 17.2568889,0.961015873 17.8829206,1.89053968 C18.272254,2.46857143 18.5508571,3.09968254 18.7852698,3.75161905 C19.2579048,5.06666667 19.551746,6.43022222 19.8836825,7.78412698 C20.0736508,8.55898413 20.2852063,9.32850794 20.487873,10.1003175 C20.5031111,10.1582222 20.527746,10.2135873 20.5483175,10.2699683 L20.5988571,10.2684444 Z" id="Shape"></path>
                                </g>
                            </g>
                        </g>
                    </g>
                </g>
            </g>
        </g>
    </g>
</svg>