<?xml version="1.0" encoding="UTF-8"?>
<svg width="70px" height="20px" viewBox="0 0 70 20" version="1.1" xmlns="http://www.w3.org/2000/svg" xmlns:xlink="http://www.w3.org/1999/xlink">
    <!-- Generator: Sketch 48.2 (47327) - http://www.bohemiancoding.com/sketch -->
    <title>express</title>
    <desc>Created with Sketch.</desc>
    <defs></defs>
    <g id="Skills" stroke="none" stroke-width="1" fill="none" fill-rule="evenodd" transform="translate(-688.000000, -1005.000000)">
        <g id="Body" transform="translate(489.000000, 174.000000)" fill="#F2F2F8" fill-rule="nonzero">
            <g id="Occasionally" transform="translate(8.000000, 710.000000)">
                <g id="Skills" transform="translate(0.000000, 74.000000)">
                    <g id="Tooling">
                        <g id="Logos" transform="translate(0.000000, 42.000000)">
                            <g id="express" transform="translate(191.647643, 5.000000)">
                                <path d="M0.447281694,15.5206748 L0.447281694,7.8721578 L9.99674585,7.8721578 L9.99674585,7.42487611 L0.447281694,7.42487611 L0.447281694,0.447281694 L10.6005761,0.447281694 L10.6005761,0 L-3.55271368e-15,0 L-3.55271368e-15,15.9679565 L10.6900325,15.9679565 L10.6900325,15.5206748 L0.447281694,15.5206748 Z M19.3002051,4.47281694 L15.3417621,9.68364867 L11.4727754,4.47281694 L10.8913092,4.47281694 L15.073393,10.0191099 L10.4887557,15.9679565 L11.0254937,15.9679565 L15.3417621,10.3545712 L19.6803945,15.9679565 L20.2394966,15.9679565 L15.6324952,10.0191099 L19.8369431,4.47281694 L19.3002051,4.47281694 Z M21.5813417,19.9040353 L21.5813417,12.7475283 L21.6260699,12.7475283 C21.8944403,13.7911907 22.4237183,14.6298356 23.2139199,15.2634878 C24.0041215,15.89714 25.0104953,16.2139613 26.2330713,16.2139613 C27.023273,16.2139613 27.7240072,16.0536871 28.3352953,15.7331336 C28.9465834,15.4125801 29.4572247,14.9764848 29.8672352,14.4248346 C30.2772454,13.8731844 30.5903393,13.2320871 30.8065267,12.5015233 C31.0227138,11.7709596 31.1308059,11.0031337 31.1308059,10.1980226 C31.1308059,9.33327369 31.0189866,8.53562932 30.7953447,7.80506556 C30.5717026,7.0745018 30.2474266,6.44085906 29.8225068,5.90411836 C29.3975871,5.36737764 28.8832183,4.9499189 28.279385,4.65172961 C27.6755517,4.35354032 26.993454,4.20444792 26.2330713,4.20444792 C25.6516023,4.20444792 25.1111423,4.29017605 24.6116752,4.4616349 C24.1122082,4.63309374 23.6686583,4.87536889 23.2810122,5.18846765 C22.893366,5.50156639 22.5579082,5.87057009 22.2746283,6.29548983 C21.9913485,6.72040956 21.7751646,7.18632333 21.6260699,7.69324513 L21.5813417,7.69324513 L21.5813417,4.47281694 L21.13406,4.47281694 L21.13406,19.9040353 L21.5813417,19.9040353 Z M26.2330713,15.7890438 C24.8315817,15.7890438 23.705934,15.3082208 22.8560945,14.3465603 C22.006255,13.3848999 21.5813417,12.0020678 21.5813417,10.1980226 C21.5813417,9.4525494 21.6857064,8.74436046 21.8944389,8.07343458 C22.1031714,7.40250867 22.4050835,6.81359366 22.8001843,6.30667187 C23.1952851,5.79975009 23.6835628,5.39720059 24.2650318,5.0990113 C24.8465009,4.80082201 25.5025075,4.65172961 26.2330713,4.65172961 C26.9785444,4.65172961 27.6308239,4.80082201 28.1899289,5.0990113 C28.7490336,5.39720059 29.2112201,5.8034774 29.576502,6.31785393 C29.9417839,6.83223044 30.2176048,7.42114545 30.4039732,8.08461662 C30.5903415,8.74808779 30.6835243,9.4525494 30.6835243,10.1980226 C30.6835243,10.8689485 30.597796,11.536137 30.4263372,12.1996082 C30.2548784,12.8630794 29.9902395,13.459449 29.6324121,13.9887349 C29.274585,14.5180209 28.8161259,14.950389 28.2570209,15.2858518 C27.697916,15.6213148 27.023273,15.7890438 26.2330713,15.7890438 Z M33.5908553,15.9679565 L33.5908553,9.46000781 C33.5908553,8.83381031 33.6803106,8.22253144 33.8592242,7.62615289 C34.0381377,7.02977431 34.3139587,6.50422357 34.6866953,6.04948491 C35.0594319,5.59474626 35.5328003,5.23692446 36.1068148,4.97600883 C36.680829,4.71509321 37.362927,4.60700121 38.1531286,4.65172961 L38.1531286,4.20444792 C37.4672932,4.18953844 36.8671962,4.26408467 36.3528196,4.42808878 C35.8384432,4.59209289 35.3948932,4.81573149 35.0221565,5.0990113 C34.6494199,5.38229114 34.3512352,5.71402174 34.1275933,6.09421307 C33.9039511,6.4744044 33.7399495,6.88068123 33.6355834,7.31305568 L33.5908553,7.31305568 L33.5908553,4.47281694 L33.1435734,4.47281694 L33.1435734,15.9679565 L33.5908553,15.9679565 Z M38.7122306,10.309843 L48.3287871,10.309843 C48.3586059,9.51964142 48.2803323,8.75927015 48.093964,8.02870639 C47.9075957,7.29814266 47.609411,6.64959068 47.1994008,6.08303103 C46.7893903,5.51647138 46.2601125,5.06173954 45.6115506,4.71882188 C44.962989,4.37590419 44.1914357,4.20444792 43.2968679,4.20444792 C42.6557611,4.20444792 42.0295729,4.33863109 41.4182848,4.60700145 C40.8069968,4.87537181 40.2702642,5.26673938 39.8080706,5.78111589 C39.3458773,6.2954924 38.9731463,6.92540784 38.6898666,7.67088105 C38.4065866,8.41635426 38.264949,9.26618099 38.264949,10.2203867 C38.264949,11.0702262 38.3618591,11.8641432 38.5556819,12.6021617 C38.749505,13.3401802 39.0476899,13.9812776 39.4502454,14.525473 C39.8528008,15.0696685 40.3708969,15.4908545 41.0045493,15.7890438 C41.6382016,16.087233 42.4023001,16.2288709 43.2968679,16.2139613 C44.6089007,16.2139613 45.7121847,15.8449577 46.6067525,15.1069392 C47.5013203,14.3689207 48.0305984,13.3290012 48.1946024,11.9871494 L47.7473208,11.9871494 C47.5534977,13.2544539 47.0577654,14.204918 46.2601093,14.8385702 C45.4624529,15.4722224 44.4598064,15.7890438 43.2521399,15.7890438 C42.4321192,15.7890438 41.7388395,15.647406 41.17228,15.3641262 C40.6057203,15.0808463 40.1435337,14.693206 39.7857066,14.2011938 C39.4278795,13.7091815 39.1632405,13.1314484 38.9917817,12.4679772 C38.8203227,11.804506 38.7271401,11.0851352 38.7122306,10.309843 Z M47.8815052,9.86256134 L38.7122306,9.86256134 C38.7569589,9.05745028 38.9060513,8.33435211 39.1595122,7.69324513 C39.4129732,7.05213817 39.7447039,6.50422357 40.1547141,6.04948491 C40.5647243,5.59474626 41.0418201,5.24810639 41.5860156,5.00955498 C42.130211,4.77100354 42.7153987,4.65172961 43.341596,4.65172961 C44.0870693,4.65172961 44.743076,4.78964008 45.3096354,5.06546518 C45.8761952,5.34129028 46.3495635,5.71774859 46.7297549,6.19485146 C47.1099463,6.67195431 47.3969493,7.22732352 47.5907721,7.86097576 C47.7845952,8.494628 47.8815052,9.16181651 47.8815052,9.86256134 Z M57.6098821,7.8721578 L58.0571638,7.8721578 C58.0571638,6.58994387 57.6844328,5.65811632 56.9389595,5.07664722 C56.1934864,4.49517812 55.179658,4.20444792 53.897444,4.20444792 C53.1817898,4.20444792 52.5779656,4.29390336 52.0859533,4.47281694 C51.5939409,4.6517305 51.1913914,4.88282373 50.8782926,5.16610357 C50.5651938,5.44938338 50.3415552,5.76247745 50.2073702,6.10539511 C50.073185,6.44831281 50.0060934,6.77631608 50.0060934,7.08941485 C50.0060934,7.71561235 50.1179128,8.21507192 50.3415546,8.58780851 C50.5651965,8.96054513 50.9155638,9.25127533 51.3926666,9.46000781 C51.7206749,9.60910247 52.0934059,9.74328564 52.5108709,9.86256134 C52.9283358,9.98183705 53.4128862,10.1085656 53.9645364,10.2427508 C54.4565487,10.3620265 54.9410991,10.4813004 55.4182019,10.6005761 C55.8953047,10.7198518 56.3164907,10.8801262 56.6817726,11.0814039 C57.0470545,11.2826817 57.3452392,11.5398661 57.5763361,11.8529649 C57.8074328,12.1660636 57.9229793,12.5760678 57.9229793,13.0829895 C57.9229793,13.5750019 57.8074328,13.9924605 57.5763361,14.3353783 C57.3452392,14.678296 57.0507817,14.9578442 56.6929546,15.1740314 C56.3351275,15.3902187 55.9363052,15.5467658 55.4964762,15.6436772 C55.056647,15.7405887 54.6280062,15.7890438 54.2105412,15.7890438 C52.8537801,15.7890438 51.8138604,15.4871317 51.0907514,14.8832984 C50.3676424,14.2794651 50.0060934,13.329001 50.0060934,12.0318776 L49.5588115,12.0318776 C49.5588115,13.4780956 49.9501793,14.5366517 50.7329262,15.2075776 C51.515673,15.8785035 52.6748663,16.2139613 54.2105412,16.2139613 C54.7025536,16.2139613 55.1982859,16.1580517 55.697753,16.0462307 C56.1972199,15.9344098 56.6444972,15.7517715 57.0395979,15.4983107 C57.4346988,15.2448498 57.7552475,14.9168464 58.0012537,14.514291 C58.2472599,14.1117354 58.3702609,13.6197305 58.3702609,13.0382614 C58.3702609,12.4866112 58.2621691,12.039334 58.0459817,11.6964163 C57.8297946,11.3534986 57.5465189,11.070223 57.1961466,10.8465811 C56.8457742,10.6229391 56.4506792,10.4477555 56.0108502,10.3210251 C55.5710209,10.1942946 55.1274709,10.0712934 54.6801871,9.95201769 C54.0539895,9.78801358 53.5060749,9.64637579 53.0364268,9.52710008 C52.5667788,9.40782435 52.1306835,9.26618658 51.7281278,9.10218247 C51.3404819,8.93817836 51.0311152,8.70335783 50.8000183,8.3977138 C50.5689216,8.09206977 50.453375,7.6559745 50.453375,7.08941485 C50.453375,6.98504859 50.4831936,6.79868309 50.5428314,6.53031272 C50.6024693,6.26194236 50.7441071,5.98984872 50.967749,5.71402362 C51.1913909,5.43819855 51.5343034,5.19219608 51.9964969,4.97600883 C52.4586902,4.75982161 53.0923329,4.65172961 53.897444,4.65172961 C54.4490942,4.65172961 54.9522811,4.71136658 55.4070199,4.83064228 C55.8617584,4.94991801 56.2531259,5.14001082 56.5811342,5.40092644 C56.9091426,5.66184207 57.1625995,5.99357267 57.341513,6.39612821 C57.5204266,6.79868376 57.6098821,7.2906887 57.6098821,7.8721578 Z M67.9644534,7.8721578 L68.411735,7.8721578 C68.411735,6.58994387 68.039004,5.65811632 67.2935307,5.07664722 C66.5480574,4.49517812 65.5342293,4.20444792 64.2520153,4.20444792 C63.5363611,4.20444792 62.9325366,4.29390336 62.4405243,4.47281694 C61.9485122,4.6517305 61.5459627,4.88282373 61.2328639,5.16610357 C60.9197651,5.44938338 60.6961264,5.76247745 60.5619412,6.10539511 C60.4277562,6.44831281 60.3606644,6.77631608 60.3606644,7.08941485 C60.3606644,7.71561235 60.4724838,8.21507192 60.6961259,8.58780851 C60.9197678,8.96054513 61.270135,9.25127533 61.7472379,9.46000781 C62.0752459,9.60910247 62.4479769,9.74328564 62.8654421,9.86256134 C63.2829071,9.98183705 63.7674574,10.1085656 64.3191077,10.2427508 C64.8111197,10.3620265 65.2956701,10.4813004 65.7727732,10.6005761 C66.249876,10.7198518 66.671062,10.8801262 67.0363439,11.0814039 C67.4016258,11.2826817 67.6998105,11.5398661 67.9309071,11.8529649 C68.162004,12.1660636 68.2775506,12.5760678 68.2775506,13.0829895 C68.2775506,13.5750019 68.162004,13.9924605 67.9309071,14.3353783 C67.6998105,14.678296 67.405353,14.9578442 67.0475259,15.1740314 C66.6896988,15.3902187 66.2908765,15.5467658 65.8510472,15.6436772 C65.4112183,15.7405887 64.9825774,15.7890438 64.5651125,15.7890438 C63.2083511,15.7890438 62.1684317,15.4871317 61.4453227,14.8832984 C60.7222137,14.2794651 60.3606644,13.329001 60.3606644,12.0318776 L59.9133828,12.0318776 C59.9133828,13.4780956 60.3047503,14.5366517 61.0874972,15.2075776 C61.8702443,15.8785035 63.0294376,16.2139613 64.5651125,16.2139613 C65.0571248,16.2139613 65.5528569,16.1580517 66.052324,16.0462307 C66.5517911,15.9344098 66.9990685,15.7517715 67.3941691,15.4983107 C67.7892701,15.2448498 68.1098185,14.9168464 68.3558247,14.514291 C68.6018309,14.1117354 68.7248322,13.6197305 68.7248322,13.0382614 C68.7248322,12.4866112 68.6167401,12.039334 68.400553,11.6964163 C68.1843656,11.3534986 67.9010902,11.070223 67.5507179,10.8465811 C67.2003452,10.6229391 66.8052505,10.4477555 66.3654212,10.3210251 C65.9255922,10.1942946 65.4820421,10.0712934 65.0347581,9.95201769 C64.4085608,9.78801358 63.8606462,9.64637579 63.3909981,9.52710008 C62.9213498,9.40782435 62.4852545,9.26618658 62.0826991,9.10218247 C61.6950529,8.93817836 61.3856862,8.70335783 61.1545895,8.3977138 C60.9234929,8.09206977 60.8079463,7.6559745 60.8079463,7.08941485 C60.8079463,6.98504859 60.8377648,6.79868309 60.8974027,6.53031272 C60.9570405,6.26194236 61.0986781,5.98984872 61.3223203,5.71402362 C61.5459621,5.43819855 61.8888746,5.19219608 62.3510682,4.97600883 C62.8132615,4.75982161 63.4469042,4.65172961 64.2520153,4.65172961 C64.8036655,4.65172961 65.3068523,4.71136658 65.7615909,4.83064228 C66.2163297,4.94991801 66.6076972,5.14001082 66.9357055,5.40092644 C67.2637136,5.66184207 67.5171707,5.99357267 67.6960843,6.39612821 C67.8749979,6.79868376 67.9644534,7.2906887 67.9644534,7.8721578 Z" id="Shape"></path>
                            </g>
                        </g>
                    </g>
                </g>
            </g>
        </g>
    </g>
</svg>