<?xml version="1.0" encoding="UTF-8"?>
<svg width="30px" height="30px" viewBox="0 0 30 30" version="1.1" xmlns="http://www.w3.org/2000/svg" xmlns:xlink="http://www.w3.org/1999/xlink">
    <!-- Generator: Sketch 48.2 (47327) - http://www.bohemiancoding.com/sketch -->
    <title>gatsby</title>
    <desc>Created with Sketch.</desc>
    <defs></defs>
    <g id="Skills" stroke="none" stroke-width="1" fill="none" fill-rule="evenodd" transform="translate(-794.000000, -529.000000)">
        <g id="Body" transform="translate(486.000000, 174.000000)" fill="#F2F2F8" fill-rule="nonzero">
            <g id="Daily-Skills" transform="translate(0.000000, 238.000000)">
                <g id="Skills" transform="translate(0.000000, 74.000000)">
                    <g id="Tooling" transform="translate(8.000000, 0.000000)">
                        <g id="Logos" transform="translate(0.000000, 38.000000)">
                            <g id="gatsby" transform="translate(300.000000, 5.000000)">
                                <path d="M14.6341463,0 C6.55193576,0 0,6.55191014 0,14.6341463 C0,22.7164082 6.55196137,29.2682927 14.6341463,29.2682927 C22.7164082,29.2682927 29.2682927,22.7163825 29.2682927,14.6341463 C29.2682927,6.55191014 22.7164082,0 14.6341463,0 Z M3.14450911,14.7866974 L14.4815697,26.1237836 C8.25622537,26.0426416 3.22562551,21.0120417 3.14450911,14.7866974 Z M17.2061279,25.8365081 L3.43178462,12.0621648 C4.59978905,6.95388071 9.17176237,3.14258814 14.6341463,3.14258814 C18.4524568,3.14258814 21.835167,5.00534544 23.9248555,7.87115939 L22.3337754,9.27505964 C20.6386809,6.84418019 17.8224025,5.25327936 14.6341463,5.25327936 C10.5748686,5.25327936 7.11808571,7.83168974 5.81148928,11.4399736 L17.8283447,23.456829 C20.7466397,22.4000363 22.9910564,19.9365771 23.742747,16.8855554 L18.761734,16.8855554 L18.761734,14.634172 L24.0150134,14.634172 L24.0150134,14.6341207 L26.1257045,14.6341207 L26.1257045,14.6341463 C26.1257045,20.0965303 22.3144375,24.6685036 17.2061279,25.8365081 Z" id="Shape"></path>
                            </g>
                        </g>
                    </g>
                </g>
            </g>
        </g>
    </g>
</svg>