<?xml version="1.0" encoding="UTF-8"?>
<svg width="30px" height="30px" viewBox="0 0 30 30" version="1.1" xmlns="http://www.w3.org/2000/svg" xmlns:xlink="http://www.w3.org/1999/xlink">
    <!-- Generator: Sketch 48.2 (47327) - http://www.bohemiancoding.com/sketch -->
    <title>git-icon</title>
    <desc>Created with Sketch.</desc>
    <defs></defs>
    <g id="Skills" stroke="none" stroke-width="1" fill="none" fill-rule="evenodd" transform="translate(-557.000000, -754.000000)">
        <g id="Body" transform="translate(489.000000, 174.000000)" fill="#FFFFFF" fill-rule="nonzero">
            <g id="Daily-Skills" transform="translate(5.000000, 238.000000)">
                <g id="Skills" transform="translate(0.000000, 74.000000)">
                    <g id="The-rest" transform="translate(3.000000, 226.000000)">
                        <g id="Logos" transform="translate(0.000000, 42.000000)">
                            <g id="git-icon" transform="translate(60.000000, 0.000000)">
                                <path d="M29.4342187,13.6633594 L16.3359375,0.56578125 C15.5820703,-0.188554688 14.3586328,-0.188554688 13.6038281,0.56578125 L10.8839062,3.28570313 L14.3342578,6.73605469 C15.1360547,6.46511719 16.0555078,6.646875 16.6946484,7.28601563 C17.3368359,7.92925781 17.5173047,8.8565625 17.2398047,9.6609375 L20.565,12.98625 C21.3694922,12.7091016 22.2977344,12.8883984 22.9402734,13.5319922 C23.8382813,14.4296484 23.8382813,15.8845313 22.9402734,16.7827734 C22.0420313,17.6811328 20.5871484,17.6811328 19.6884375,16.7827734 C19.0129687,16.1066016 18.8460938,15.1146094 19.1880469,14.2824609 L16.0870313,11.1814453 L16.0866797,19.3420313 C16.3114778,19.4531818 16.5167918,19.6000043 16.6946484,19.7767969 C17.5926562,20.6744531 17.5926562,22.1294531 16.6946484,23.0283984 C15.7964062,23.9262891 14.3408203,23.9262891 13.4438672,23.0283984 C12.5458594,22.1294531 12.5458594,20.6745703 13.4438672,19.7769141 C13.6590689,19.5616038 13.9148186,19.3910907 14.1963281,19.2752344 L14.1963281,11.0385938 C13.914409,10.9235081 13.658515,10.7528989 13.4438672,10.5369141 C12.7634766,9.85746094 12.5998828,8.85914063 12.9485156,8.02371094 L9.54726562,4.62210938 L0.566015625,13.6027734 C-0.188671875,14.3578125 -0.188671875,15.5813672 0.566015625,16.3358203 L13.6645312,29.4336328 C14.4186328,30.1880859 15.6418359,30.1880859 16.396875,29.4336328 L29.4341016,16.3966406 C30.1885547,15.6419531 30.1885547,14.4176953 29.4341016,13.6633594" id="Shape"></path>
                            </g>
                        </g>
                    </g>
                </g>
            </g>
        </g>
    </g>
</svg>