<?xml version="1.0" encoding="UTF-8"?>
<svg width="23px" height="30px" viewBox="0 0 23 30" version="1.1" xmlns="http://www.w3.org/2000/svg" xmlns:xlink="http://www.w3.org/1999/xlink">
    <!-- Generator: Sketch 48.2 (47327) - http://www.bohemiancoding.com/sketch -->
    <title>glamorous</title>
    <desc>Created with Sketch.</desc>
    <defs></defs>
    <g id="Skills" stroke="none" stroke-width="1" fill="none" fill-rule="evenodd" transform="translate(-854.000000, -529.000000)">
        <g id="Body" transform="translate(486.000000, 174.000000)" fill="#F2F2F8" fill-rule="nonzero">
            <g id="Daily-Skills" transform="translate(0.000000, 238.000000)">
                <g id="Skills" transform="translate(0.000000, 74.000000)">
                    <g id="Tooling" transform="translate(8.000000, 0.000000)">
                        <g id="Logos" transform="translate(0.000000, 38.000000)">
                            <g id="glamorous" transform="translate(360.000000, 5.000000)">
                                <g id="Group" transform="translate(13.161793, 0.000000)">
                                    <path d="M8.79588307,18.3512203 L9.25330211,18.3512203 L9.25330211,29.101037 L8.79588307,29.101037 L8.79588307,29.9743314 L0.478814815,29.9743314 L0.478814815,29.101037 L0.0212709552,29.101037 L0.0212709552,18.3512203 L0.478814815,18.3512203 L0.478814815,17.1972242 L0.62434308,17.1972242 L0.62434308,10.0445068 L1.19113773,10.0445068 C1.19626053,5.71537377 1.20243898,0.479047582 1.20243898,0.406194152 C1.20243898,-0.549376998 3.37681716,0.305952437 5.27910175,1.67590175 C7.08158129,2.97392904 8.14849746,4.31612008 8.13215439,4.95867758 L8.13215439,10.0445068 L8.65035477,10.0445068 L8.65035477,17.1972242 L8.79588307,17.1972242 L8.79588307,18.3512203 Z" id="Combined-Shape"></path>
                                </g>
                                <path d="M17.3972086,4.51318518 C16.6306432,4.53638986 15.608577,4.69907212 14.2613333,6.88249512 C13.6109786,8.1368577 13.146386,8.99318518 13.146386,8.99318518 C13.146386,8.99318518 9.75500974,8.64792203 7.50172319,9.94869395 C6.08480312,10.7384639 3.62254971,12.5735049 4.13361404,15.4074074 C4.41238207,16.4526783 5.31830019,17.6606316 8.52385185,17.9393372 C8.54705653,17.9858713 3.69222612,19.6118207 3.29737232,21.4004523 C3.01866667,22.7245536 3.5528733,23.4445848 5.94551267,24.1646783 L1.46226901,25.3493021 C1.46226901,25.3493021 0.0046159844,25.7947446 0,27.0636413 L0,27.074308 C0.00024951267,27.1613255 0.00729824561,27.2522105 0.0221442495,27.3470254 C0.115025341,27.8812319 1.02094347,29.4375673 5.94551267,29.3446861 C7.89663938,29.1820663 14.4704249,28.5781209 14.4007485,24.1646783 C14.3774815,23.0962027 13.5180351,22.0276024 11.822347,21.2610994 C10.3124834,20.657154 8.5005848,19.9834698 8.5005848,19.9834698 C8.5005848,19.9834698 6.78169201,19.4724678 8.22187914,18.6594932 C9.29035474,18.1019571 9.87109553,17.9161949 9.87109553,17.9161949 L10.4285692,17.7767797 C10.4285692,17.7767797 14.4704249,17.4051306 16.2821989,14.1531072 C16.5376998,13.5492242 18.1395088,10.1356413 13.7291228,9.08968421 C13.7974269,9.07153219 14.8110721,6.36120078 16.1196413,5.48877973 C16.21246,5.44237037 16.6073762,5.37269396 16.4216764,5.6048655 C16.0336842,6.09004289 15.5803196,6.446846 15.3283743,7.04392982 C14.8580429,8.1585653 15.5059649,9.21911895 16.6802339,9.33177386 C18.6121482,9.51716175 20.3963509,6.94555946 19.2717349,5.22984796 C18.9122495,4.68129435 18.2790488,4.50332944 17.6564523,4.50326705 C17.5695595,4.50326705 17.4829786,4.50676024 17.3972086,4.51318518 M9.40656526,17.2534893 C8.65528265,17.1037817 8.59926705,15.2102924 9.0666043,13.0687252 C9.53400386,10.9272203 10.5628694,9.36383623 11.3112826,9.52720465 C12.0597582,9.69057307 12.2443353,11.5187525 11.7769357,13.6602573 C11.3351735,15.6844912 10.4984327,17.2694581 9.56881088,17.2696453 C9.51491614,17.2696453 9.46095904,17.2643431 9.40656526,17.2534893 M5.06273684,28.0206472 C5.08600389,26.1159298 6.66554386,24.2342924 6.66554386,24.2342924 C6.66554386,24.2342924 7.45893177,24.5348304 8.55061209,24.8600078 C10.5215126,25.4947681 10.5679844,25.9532475 10.4518362,26.5163353 C10.1730682,28.0316881 7.96637817,28.5781209 7.17660818,28.7175361 C6.82529435,28.7740507 6.53217933,28.7982534 6.28778168,28.7982534 C5.12611306,28.7983158 5.06273684,28.2509474 5.06273684,28.0206472" id="Shape"></path>
                            </g>
                        </g>
                    </g>
                </g>
            </g>
        </g>
    </g>
</svg>