<?xml version="1.0" encoding="UTF-8"?>
<svg width="27px" height="30px" viewBox="0 0 27 30" version="1.1" xmlns="http://www.w3.org/2000/svg" xmlns:xlink="http://www.w3.org/1999/xlink">
    <!-- Generator: Sketch 48.2 (47327) - http://www.bohemiancoding.com/sketch -->
    <title>graphql</title>
    <desc>Created with Sketch.</desc>
    <defs></defs>
    <g id="Skills" stroke="none" stroke-width="1" fill="none" fill-rule="evenodd" transform="translate(-613.000000, -642.000000)">
        <g id="Body" transform="translate(489.000000, 174.000000)" fill="#F2F2F8">
            <g id="Daily-Skills" transform="translate(5.000000, 238.000000)">
                <g id="Skills" transform="translate(0.000000, 74.000000)">
                    <g id="Languages" transform="translate(3.000000, 114.000000)">
                        <g id="Logos" transform="translate(0.000000, 42.000000)">
                            <g id="graphql" transform="translate(116.341463, 0.000000)">
                                <path d="M15.5057173,3.34989837 L21.5164897,6.82042683 C21.6900233,6.6368132 21.8891656,6.4792245 22.1077498,6.35254065 C23.3542946,5.63587398 24.9443352,6.06138211 25.6684206,7.30802846 C26.3850872,8.5546748 25.9595791,10.1446138 24.7129328,10.8686992 C24.4959762,10.9936389 24.2621813,11.0867325 24.0187254,11.145122 L24.0187254,18.0887195 C24.2595221,18.1472071 24.49077,18.2396652 24.7055141,18.363313 C25.9595791,19.0873984 26.3850872,20.677439 25.6610019,21.9240854 C24.9443352,23.1706301 23.3468759,23.5961382 22.1002295,22.8795732 C21.8587186,22.7410144 21.6411518,22.5643873 21.4559206,22.3565041 L15.4817336,25.8056911 C15.5692261,26.0706061 15.6136591,26.3478403 15.6133393,26.6268293 C15.6133393,28.060061 14.4489084,29.2321138 13.0081563,29.2321138 C11.5674043,29.2321138 10.4029734,28.0674797 10.4029734,26.6268293 C10.4029734,26.3707317 10.439762,26.123374 10.5083596,25.8897358 L4.49921325,22.4202236 C4.32758266,22.6001958 4.13124234,22.7548591 3.91608317,22.8795732 C2.66201813,23.5961382 1.07197748,23.1706301 0.355310812,21.9240854 C-0.361254228,20.677439 0.0642539019,19.0873984 1.31079862,18.363313 C1.52554315,18.2396423 1.75678943,18.1471506 1.99758724,18.0886179 L1.99758724,11.145122 C1.75413137,11.0867325 1.52033649,10.9936389 1.30337992,10.8686992 C0.0567335767,10.1521341 -0.368774553,8.5546748 0.347892113,7.30802846 C1.06455878,6.06138211 2.6619165,5.63587398 3.90856284,6.35254065 C4.12595019,6.47854829 4.32411172,6.63512669 4.49697748,6.81747967 L10.5094775,3.34603659 C10.4386015,3.10547724 10.4027322,2.85596598 10.4029734,2.60518293 C10.4029734,1.16463415 11.5674043,0 13.0081563,0 C14.4489084,0 15.6133393,1.16453252 15.6133393,2.60518293 C15.6133393,2.86412602 15.5757376,3.11402439 15.5057173,3.34989837 Z M14.8794978,4.41920732 L20.9045994,7.89786585 C20.7107577,8.57546164 20.800128,9.30270969 21.152262,9.91321138 C21.5190303,10.5512195 22.1164897,10.974187 22.7795994,11.1390244 L22.7795994,18.0912602 C22.745758,18.0994919 22.7121198,18.1085366 22.6786848,18.1180894 L14.8094775,4.48882114 C14.833258,4.46605691 14.856632,4.44288618 14.8794978,4.41930894 L14.8794978,4.41920732 Z M11.2084612,4.49034553 L3.33935553,18.1194106 C3.3053301,18.1095725 3.271109,18.1004243 3.23671325,18.0919715 L3.23671325,11.1390244 C3.89982301,10.974187 4.49728236,10.5512195 4.86405065,9.91321138 C5.216901,9.30151084 5.30593102,8.57265316 5.11069699,7.89400407 L11.134071,4.41636179 C11.1583596,4.44146341 11.1831563,4.46615854 11.2084612,4.4902439 L11.2084612,4.49034553 Z M13.7361035,5.10772358 L21.6033799,18.7337398 C21.4231689,18.9056972 21.2686995,19.1027458 21.1447417,19.3188008 C21.0210939,19.5335449 20.9286358,19.7647928 20.8701482,20.0055894 L5.14636772,20.0055894 C5.08780302,19.7647863 4.99527704,19.5335397 4.87157098,19.3188008 C4.74718113,19.1042354 4.59300533,18.9083849 4.41364415,18.7370935 L12.282445,5.10833333 C12.5183555,5.17626215 12.7626609,5.21061064 13.0081563,5.21036585 C13.2609002,5.21036585 13.5051076,5.1745935 13.7361035,5.10772358 Z M14.9347824,24.871748 L20.920758,21.4156504 C20.9028144,21.3592297 20.8867823,21.3022189 20.8726889,21.2447154 L5.14301406,21.2447154 C5.13468073,21.2785569 5.12563602,21.3120935 5.11598154,21.3455285 L11.1312254,24.8185976 C11.6220736,24.3081977 12.3000333,24.0203337 13.0081563,24.0216463 C13.7415689,24.0203646 14.4413559,24.3291376 14.9347824,24.871748 Z" id="Shape"></path>
                            </g>
                        </g>
                    </g>
                </g>
            </g>
        </g>
    </g>
</svg>