<?xml version="1.0" encoding="UTF-8"?>
<svg width="26px" height="30px" viewBox="0 0 26 30" version="1.1" xmlns="http://www.w3.org/2000/svg" xmlns:xlink="http://www.w3.org/1999/xlink">
    <!-- Generator: Sketch 48.2 (47327) - http://www.bohemiancoding.com/sketch -->
    <title>graphcool</title>
    <desc>Created with Sketch.</desc>
    <defs></defs>
    <g id="Skills" stroke="none" stroke-width="1" fill="none" fill-rule="evenodd" transform="translate(-787.000000, -1000.000000)">
        <g id="Body" transform="translate(489.000000, 174.000000)" fill="#F2F2F8" fill-rule="nonzero">
            <g id="Occasionally" transform="translate(8.000000, 710.000000)">
                <g id="Skills" transform="translate(0.000000, 74.000000)">
                    <g id="Tooling">
                        <g id="Logos" transform="translate(0.000000, 42.000000)">
                            <g id="graphcool" transform="translate(290.372475, 0.000000)">
                                <path d="M24.1982317,9.89023279 C22.7429207,9.07063734 20.9138081,10.1400143 20.6206644,10.3238812 L14.3371552,13.8876036 C13.4094466,13.1507635 12.0877352,13.1820658 11.1959479,13.9619974 C10.3041606,14.741929 10.0970415,16.0476982 10.7037042,17.0653158 C11.3103669,18.0829336 12.5575148,18.5217118 13.6677024,18.1081255 C14.7778899,17.694539 15.4339858,16.5467314 15.2269938,15.3802214 L21.4931571,11.8243046 L21.5313179,11.8008876 C21.9432802,11.5406985 22.8990327,11.1512823 23.3456865,11.4036657 C23.6674508,11.5849307 23.8513161,12.1920384 23.86606,13.0862214 L23.8582544,13.0862214 L23.8582544,20.946532 C23.8569536,21.6797505 23.46583,22.3569552 22.8313841,22.7244904 L13.8237201,27.9282711 C13.1882252,28.2937371 12.4063419,28.2937371 11.7708469,27.9282711 L2.7631829,22.7244904 C2.12873699,22.3569552 1.7376134,21.6797505 1.73631267,20.946532 L1.73631267,10.5433073 C1.7376134,9.81008884 2.12873699,9.13288409 2.7631829,8.76534887 L10.9156999,4.06026388 C11.6913493,4.95010187 12.9912206,5.1603533 14.0078347,4.56041012 C15.0244487,3.96046695 15.468749,2.72091259 15.0647364,1.61175738 C14.6607239,0.502602162 13.5232724,-0.16078489 12.3589661,0.0336918057 C11.1946599,0.228168503 10.3345491,1.22521287 10.312934,2.40546164 L1.9002303,7.26232357 C0.727166664,7.93897487 0.003153692,9.18907322 0,10.5433073 L0,20.9439302 C0.00128145568,22.2975338 0.722896827,23.5481467 1.89415928,24.2266484 L10.9018233,29.4304291 C12.0742371,30.1048586 13.5168608,30.1048586 14.6892746,29.4304291 L23.6969386,24.2266484 C24.8673983,23.5486134 25.5888899,22.2992061 25.5910979,20.946532 L25.5910979,13.3854388 L25.5971689,13.3854388 C25.6414007,11.6118169 25.1669935,10.4366298 24.1982317,9.89023279 Z" id="Shape"></path>
                            </g>
                        </g>
                    </g>
                </g>
            </g>
        </g>
    </g>
</svg>