<?xml version="1.0" encoding="UTF-8"?>
<svg width="26px" height="30px" viewBox="0 0 26 30" version="1.1" xmlns="http://www.w3.org/2000/svg" xmlns:xlink="http://www.w3.org/1999/xlink">
    <!-- Generator: Sketch 48.2 (47327) - http://www.bohemiancoding.com/sketch -->
    <title>html-5</title>
    <desc>Created with Sketch.</desc>
    <defs></defs>
    <g id="Skills" stroke="none" stroke-width="1" fill="none" fill-rule="evenodd" transform="translate(-670.000000, -642.000000)">
        <g id="Body" transform="translate(489.000000, 174.000000)" fill="#F2F2F8" fill-rule="nonzero">
            <g id="Daily-Skills" transform="translate(5.000000, 238.000000)">
                <g id="Skills" transform="translate(0.000000, 74.000000)">
                    <g id="Languages" transform="translate(3.000000, 114.000000)">
                        <g id="Logos" transform="translate(0.000000, 42.000000)">
                            <g id="html-5" transform="translate(172.682927, 0.000000)">
                                <path d="M13.2182237,9.17584873 L21.0221532,9.17584873 L21.0869678,8.44965522 L21.2341701,6.81178914 L21.3114354,5.94500995 L13.2182237,5.94500995 L5.12807152,5.94500995 L5.20540789,6.81178914 L5.99947521,15.7150048 L13.2182237,15.7150048 L17.1965999,15.7150048 L16.8215862,19.9051133 L13.2182237,20.8776875 L13.2152356,20.8787547 L9.61706692,19.9071766 L9.38704992,17.3304598 L6.14383168,17.3304598 L6.59646641,22.4032842 L13.2145241,24.2405032 L13.2293938,24.2363767 L13.2293938,24.2358422 L19.8415464,22.4032842 L19.8901394,21.8574475 L20.6493449,13.351799 L20.7281754,12.4842373 L13.2182237,12.4842373 L8.95419395,12.4842373 L8.65893552,9.17584873 L13.2182237,9.17584873 Z M26.1330411,0.560278756 L23.7819302,26.8986829 L13.2135992,29.8285714 L2.67436721,26.9028094 L0.325746449,0.560278756 L26.1330411,0.560278756 Z" id="Combined-Shape"></path>
                            </g>
                        </g>
                    </g>
                </g>
            </g>
        </g>
    </g>
</svg>