<?xml version="1.0" encoding="UTF-8"?>
<svg width="35px" height="30px" viewBox="0 0 35 30" version="1.1" xmlns="http://www.w3.org/2000/svg" xmlns:xlink="http://www.w3.org/1999/xlink">
    <!-- Generator: Sketch 48.2 (47327) - http://www.bohemiancoding.com/sketch -->
    <title>hyper</title>
    <desc>Created with Sketch.</desc>
    <defs></defs>
    <g id="Skills" stroke="none" stroke-width="1" fill="none" fill-rule="evenodd" transform="translate(-617.000000, -754.000000)">
        <g id="Body" transform="translate(489.000000, 174.000000)" fill="#FFFFFF" fill-rule="nonzero">
            <g id="Daily-Skills" transform="translate(5.000000, 238.000000)">
                <g id="Skills" transform="translate(0.000000, 74.000000)">
                    <g id="The-rest" transform="translate(3.000000, 226.000000)">
                        <g id="Logos" transform="translate(0.000000, 42.000000)">
                            <g id="hyper" transform="translate(120.000000, 0.000000)">
                                <path d="M1.14146826,0.0697674419 L33.1841132,0.0697674419 C33.8145287,0.0697674419 34.3255814,0.579755993 34.3255814,1.20885875 L34.3255814,28.7911412 C34.3255814,29.420244 33.8145287,29.9302326 33.1841132,29.9302326 L1.14146826,29.9302326 C0.511052749,29.9302326 0,29.420244 0,28.7911412 L0,1.20885875 C0,0.579755993 0.511052749,0.0697674419 1.14146826,0.0697674419 Z M9.92778502,11.0665153 L9.92778502,12.1092214 L15.2980033,12.1092214 L15.2980033,11.0665153 L9.92778502,11.0665153 Z M8.2892984,8.36471079 L6.08314921,7.20142584 L7.68369377,3.24621963 L2.95553156,7.49408944 L5.03270514,8.89505951 L3.56113619,12.6129824 L8.2892984,8.36471079 Z" id="Combined-Shape"></path>
                            </g>
                        </g>
                    </g>
                </g>
            </g>
        </g>
    </g>
</svg>