<?xml version="1.0" encoding="UTF-8"?>
<svg width="30px" height="30px" viewBox="0 0 30 30" version="1.1" xmlns="http://www.w3.org/2000/svg" xmlns:xlink="http://www.w3.org/1999/xlink">
    <!-- Generator: Sketch 48.2 (47327) - http://www.bohemiancoding.com/sketch -->
    <title>intellij-idea</title>
    <desc>Created with Sketch.</desc>
    <defs></defs>
    <g id="Skills" stroke="none" stroke-width="1" fill="none" fill-rule="evenodd" transform="translate(-557.000000, -1698.000000)">
        <g id="Body" transform="translate(489.000000, 174.000000)" fill="#F2F2F8" fill-rule="nonzero">
            <g id="Previously" transform="translate(8.000000, 1182.000000)">
                <g id="Skills" transform="translate(0.000000, 74.000000)">
                    <g id="The-rest" transform="translate(0.000000, 226.000000)">
                        <g id="Logos" transform="translate(0.000000, 42.000000)">
                            <g id="intellij-idea" transform="translate(60.000000, 0.000000)">
                                <path d="M11.6118349,25.9171362 L2.4375,29.25 L4.359375,22.5 L4.75862871,21.1591102 L0.328125,17.671875 L2.92867303,12.8422858 L0,11.859375 L4.359375,0 L13.734375,1.125 L17.0096392,4.86343292 L20.671875,0.46875 L30,8.015625 L29.4375,25.359375 L17.90625,30 L11.6118349,25.9171362 Z M5.625,5.625 L5.625,24.375 L24.375,24.375 L24.375,5.625 L5.625,5.625 Z M7.40625,20.859375 L14.4375,20.859375 L14.4375,22.03125 L7.40625,22.03125 L7.40625,20.859375 Z M12.421875,9.46875 L11.34375,9.46875 L11.34375,14.390625 L12.421875,14.390625 L12.421875,15.84375 L8.578125,15.84375 L8.578125,14.390625 L9.65625,14.390625 L9.65625,9.46875 L8.578125,9.46875 L8.578125,8.0625 L12.421875,8.0625 L12.421875,9.46875 Z M16.171875,15.9375 C15.6367208,15.9616388 15.1042691,15.8486945 14.625,15.609375 C14.2328866,15.3930498 13.8834377,15.1071371 13.59375,14.765625 L14.671875,13.546875 C14.8665553,13.7607574 15.0869842,13.9496965 15.328125,14.109375 C15.5550152,14.2423973 15.815329,14.3074758 16.078125,14.296875 C16.3671243,14.3189624 16.6482061,14.1959891 16.828125,13.96875 C17.0452344,13.6891338 17.1459915,13.3364843 17.109375,12.984375 L17.109375,7.96875 L18.84375,7.96875 L18.84375,13.03125 C18.8615378,13.4458518 18.7978354,13.8599171 18.65625,14.25 C18.5325679,14.6457459 18.3061161,15.0015986 18,15.28125 C17.4687596,15.6756524 16.8326675,15.903993 16.171875,15.9375 Z" id="Combined-Shape"></path>
                            </g>
                        </g>
                    </g>
                </g>
            </g>
        </g>
    </g>
</svg>