<?xml version="1.0" encoding="UTF-8"?>
<svg width="30px" height="30px" viewBox="0 0 30 30" version="1.1" xmlns="http://www.w3.org/2000/svg" xmlns:xlink="http://www.w3.org/1999/xlink">
    <!-- Generator: Sketch 48.2 (47327) - http://www.bohemiancoding.com/sketch -->
    <title>javascript</title>
    <desc>Created with Sketch.</desc>
    <defs></defs>
    <g id="Skills" stroke="none" stroke-width="1" fill="none" fill-rule="evenodd" transform="translate(-497.000000, -642.000000)">
        <g id="Body" transform="translate(489.000000, 174.000000)" fill="#F2F2F8" fill-rule="nonzero">
            <g id="Daily-Skills" transform="translate(5.000000, 238.000000)">
                <g id="Skills" transform="translate(0.000000, 74.000000)">
                    <g id="Languages" transform="translate(3.000000, 114.000000)">
                        <g id="Logos" transform="translate(0.000000, 42.000000)">
                            <g id="javascript">
                                <path d="M0,0 L29.2682927,0 L29.2682927,29.2682927 L0,29.2682927 L0,0 Z M7.69573171,24.458689 L7.69561738,24.4584604 C8.34397866,25.8337271 9.62115091,26.973247 11.8214177,26.973247 C14.2577744,26.973247 15.9276677,25.6765244 15.9276677,22.827782 L15.9276677,13.4370046 L13.1772485,13.4370046 L13.1772485,22.7889101 C13.1772485,24.1640625 12.6073171,24.5175686 11.7035442,24.5175686 C10.7606707,24.5175686 10.3676067,23.8693216 9.93544207,23.1032012 L7.69573171,24.458689 Z M17.4216082,24.1639482 L17.4214939,24.1640625 C18.2269436,25.7555259 19.8772866,26.9735899 22.4312881,26.9735899 C25.0442835,26.9735899 26.989253,25.6181021 26.989253,23.1424162 C26.989253,20.8439405 25.6729802,19.8224085 23.3349466,18.8203125 L22.6473704,18.525686 C21.4686357,18.0148628 20.9578125,17.6806784 20.9578125,16.855564 C20.9578125,16.1876524 21.4686357,15.6768293 22.2741997,15.6768293 C23.0600991,15.6768293 23.5706936,16.0107851 24.0423018,16.855564 L26.1839177,15.4801829 C25.2802591,13.8888338 24.0228659,13.2796875 22.274314,13.2796875 C19.818407,13.2796875 18.2467226,14.8514863 18.2467226,16.9144436 C18.2467226,19.154154 19.5629954,20.2151296 21.5474085,21.0596799 L22.2348704,21.3546494 C23.4922637,21.9045732 24.2388338,22.2386433 24.2388338,23.1816311 C24.2388338,23.9675305 23.512157,24.5373476 22.3724085,24.5373476 C21.0169207,24.5373476 20.250686,23.8301067 19.6610899,22.8673399 L17.4216082,24.1639482 Z" id="Combined-Shape"></path>
                            </g>
                        </g>
                    </g>
                </g>
            </g>
        </g>
    </g>
</svg>