<?xml version="1.0" encoding="UTF-8"?>
<svg width="23px" height="30px" viewBox="0 0 23 30" version="1.1" xmlns="http://www.w3.org/2000/svg" xmlns:xlink="http://www.w3.org/1999/xlink">
    <!-- Generator: Sketch 48.2 (47327) - http://www.bohemiancoding.com/sketch -->
    <title>java</title>
    <desc>Created with Sketch.</desc>
    <defs></defs>
    <g id="Skills" stroke="none" stroke-width="1" fill="none" fill-rule="evenodd" transform="translate(-558.000000, -1586.000000)">
        <g id="Body" transform="translate(489.000000, 174.000000)" fill="#F2F2F8" fill-rule="nonzero">
            <g id="Previously" transform="translate(8.000000, 1182.000000)">
                <g id="Skills" transform="translate(0.000000, 74.000000)">
                    <g id="Languages" transform="translate(0.000000, 114.000000)">
                        <g id="Logos" transform="translate(0.000000, 42.000000)">
                            <g id="java" transform="translate(61.000000, 0.000000)">
                                <path d="M7.15785686,23.1912593 C2.55332759,24.477851 9.95857491,27.1358655 15.8208807,24.6233795 C14.8606991,24.2499935 14.1731716,23.8188965 14.1731716,23.8188965 C11.5580973,24.3138388 10.3452788,24.3526626 7.97226779,24.0819455 C6.01348439,23.8567516 7.15785686,23.1912593 7.15785686,23.1912593 Z M6.44151424,19.9126297 C1.36908208,21.5961761 9.26370234,23.50532 16.3515796,21.4327289 C15.598189,21.167097 15.1190667,20.6813562 15.1190667,20.6813562 C11.6550356,21.3483821 9.65315064,21.3269927 7.11822596,21.0654773 C5.1579897,20.862722 6.44151424,19.9126297 6.44151424,19.9126297 Z M12.4805045,14.350986 C7.58403027,8.70903121 17.8358415,6.14860073 17.8358415,6.14860073 C11.3046533,9.9364591 12.5110953,11.0350663 14.0843048,13.2461638 C15.7687391,15.6171569 12.1009842,17.5105614 12.1009842,17.5105614 C12.1009842,17.5105614 13.924974,16.0140309 12.4805045,14.350986 Z M20.2338741,25.6163312 C20.2338741,25.6163312 21.0807323,26.3141095 19.3012162,26.8539291 C15.9174154,27.8790054 5.2174764,28.1885461 2.2450783,26.8947708 C1.17657761,26.4299351 3.18031908,25.7848634 3.81061986,25.649505 C4.46796006,25.5069629 4.84360609,25.5335181 4.84360609,25.5335181 C3.65532486,24.6964262 -2.8369589,27.1771914 1.54584719,27.8876418 C13.4983971,29.8260044 23.334205,27.0147935 20.2338741,25.6163312 Z M7.70816942,16.5155918 C7.70816942,16.5155918 2.26549911,17.8083178 5.78078403,18.2777543 C7.26504593,18.4764738 10.223884,18.4315158 12.9799668,18.2005911 C15.2323901,18.0105888 17.4940956,17.6066119 17.4940956,17.6066119 C17.4940956,17.6066119 16.6998634,17.9467435 16.1252557,18.3390975 C10.5983193,19.7926877 -0.0786967946,19.1164603 2.99507892,17.6296156 C5.5945753,16.3730497 7.70816942,16.5155918 7.70816942,16.5155918 Z M17.471657,21.9730329 C17.4456668,22.0425282 17.3587372,22.1202564 17.3587372,22.1201758 C24.8623756,20.1475901 22.10371,15.1670919 18.5166697,16.4281778 C18.2015597,16.5400484 18.0365788,16.7984967 18.0365788,16.7984967 C18.0365788,16.7984967 18.2347334,16.718347 18.6791483,16.625848 C20.4923224,16.2478613 23.0900431,19.0535029 17.471657,21.9730329 Z M14.0843048,0.0322051497 C14.0843048,0.0322051497 17.1958549,3.14480462 11.1331347,7.93110331 C6.27144845,11.7705383 10.0245187,13.9596813 11.1311168,16.4608673 C8.29327,13.9004368 6.21067031,11.6464799 7.6078411,9.54870581 C9.65855853,6.46936079 15.3397406,4.97638171 14.0843048,0.0322051497 Z M8.2602577,29.8842804 C13.6532077,30.229497 21.9346934,29.6927445 22.1308301,27.1409505 C22.1308301,27.1409505 21.7538119,28.1083158 17.6738472,28.8765578 C13.0708515,29.7427876 7.3937051,29.6416522 4.02653158,29.0864967 C4.02661229,29.086416 4.71583478,29.6569879 8.2602577,29.8842804 Z" id="Combined-Shape"></path>
                            </g>
                        </g>
                    </g>
                </g>
            </g>
        </g>
    </g>
</svg>