<?xml version="1.0" encoding="UTF-8"?>
<svg width="27px" height="30px" viewBox="0 0 27 30" version="1.1" xmlns="http://www.w3.org/2000/svg" xmlns:xlink="http://www.w3.org/1999/xlink">
    <!-- Generator: Sketch 48.2 (47327) - http://www.bohemiancoding.com/sketch -->
    <title>jest</title>
    <desc>Created with Sketch.</desc>
    <defs></defs>
    <g id="Skills" stroke="none" stroke-width="1" fill="none" fill-rule="evenodd" transform="translate(-680.000000, -529.000000)">
        <g id="Body" transform="translate(486.000000, 174.000000)" fill="#F2F2F8" fill-rule="nonzero">
            <g id="Daily-Skills" transform="translate(0.000000, 238.000000)">
                <g id="Skills" transform="translate(0.000000, 74.000000)">
                    <g id="Tooling" transform="translate(8.000000, 0.000000)">
                        <g id="Logos" transform="translate(0.000000, 38.000000)">
                            <g id="jest" transform="translate(186.000000, 5.000000)">
                                <path d="M25.4829613,14.3965871 C25.4829613,12.7433939 24.2918556,11.3639576 22.7228475,11.0693097 L26.4759114,0 L8.73560286,0 L12.4943549,11.0917521 C10.9799535,11.4288029 9.84397139,12.782177 9.84397139,14.3965871 C9.84397139,15.6089977 10.4846678,16.6739292 11.4449367,17.2723261 C10.9830561,17.9603896 10.4353357,18.6079117 9.80767043,19.2 C8.81234164,20.1390675 7.70335258,20.8512281 6.50779971,21.3197277 C5.30366285,20.5633026 4.79462208,19.1369129 5.32331294,17.8941998 L5.36468155,17.7969835 L5.44235112,17.6141343 C6.76490563,17.1529777 7.7169008,15.8940274 7.7169008,14.4161338 C7.7169008,12.5488581 6.19774196,11.0298026 4.33046626,11.0298026 C2.46319055,11.0298026 0.944135137,12.5488581 0.944135137,14.4161338 C0.944135137,15.3586142 1.33144876,16.2120486 1.95487374,16.8265793 C1.83863069,17.0730132 1.7206237,17.3186112 1.60086185,17.5633543 C1.03080238,18.7341894 0.384728088,20.0612945 0.140343015,21.5349479 C-0.34501422,24.4616737 0.437783332,26.8012755 2.34456606,28.1227958 C3.50164613,28.9247264 4.67661812,29.240162 5.85903646,29.2400586 C8.08559855,29.2399552 10.3378092,28.1214513 12.5406878,27.0272516 C14.1272774,26.2392829 15.7677497,25.4244247 17.3882617,25.0248039 C17.9912092,24.8760838 18.6116349,24.7866241 19.2684651,24.69189 C20.5709558,24.5039731 21.9179178,24.3097475 23.1109885,23.6187882 C24.4938378,22.8177885 25.4405585,21.474136 25.7082134,19.9324313 C25.938016,18.608946 25.6613634,17.2834956 24.9868482,16.1593036 C25.3119529,15.628875 25.4836804,15.0187181 25.4829613,14.3965871 Z M24.153581,14.3965871 C24.153581,15.530811 23.2308541,16.4536413 22.0965268,16.4536413 C20.9624063,16.4536413 20.039576,15.530811 20.039576,14.3965871 C20.039576,13.2623632 20.9624063,12.3396363 22.0965268,12.3396363 C23.2308541,12.3396363 24.153581,13.2623632 24.153581,14.3965871 Z M24.62146,1.32938033 L21.3073171,11.1040593 C21.1647223,11.1381839 21.0245252,11.1816457 20.8876325,11.2341636 L17.6137206,4.55540808 L14.3302939,11.1946566 C14.1872598,11.145154 14.0410303,11.1054177 13.892614,11.0757218 L10.5898475,1.32938033 L24.62146,1.32938033 Z M13.2303025,12.3396363 C14.3645264,12.3396363 15.2872533,13.2623632 15.2872533,14.3965871 C15.2872533,15.530811 14.3645264,16.4536413 13.2303025,16.4536413 C12.096182,16.4536413 11.1733517,15.530811 11.1733517,14.3965871 C11.1733517,13.2623632 12.096182,12.3396363 13.2303025,12.3396363 Z M4.33046626,12.359183 C5.46479359,12.359183 6.38752047,13.2819099 6.38752047,14.4161338 C6.38752047,15.5503577 5.46479359,16.473188 4.33046626,16.473188 C3.19634577,16.473188 2.27351547,15.5503577 2.27351547,14.4161338 C2.27351547,13.2819099 3.19634577,12.359183 4.33046626,12.359183 Z M24.3983797,19.7050073 C24.1982591,20.8579505 23.4860984,21.8651728 22.4446436,22.4683272 C21.4738257,23.03063 20.310437,23.1984832 19.0786865,23.3760579 C18.4188572,23.4712057 17.7364819,23.569663 17.0699302,23.7341032 C15.3074205,24.1686805 13.6002413,25.0166336 11.9493235,25.8366629 C8.64552271,27.4776523 5.79222615,28.8947341 3.10192192,27.0301474 C1.13122468,25.6643627 1.22223563,23.1372576 1.45183142,21.7524433 C1.66456951,20.4694993 2.23980005,19.2879083 2.79610446,18.1452038 C2.8907564,17.9509581 2.98459503,17.756317 3.07761786,17.5612859 C3.35812089,17.673558 3.65249702,17.7474477 3.95277084,17.7809532 C3.38653796,19.6498837 4.27710075,21.6819099 6.14623804,22.6421787 L6.40199948,22.7736275 L6.67296389,22.6771352 C8.15065069,22.1509265 9.51219512,21.3063863 10.7199517,20.1669913 C11.5006809,19.4305266 12.1715763,18.6156684 12.7232268,17.7449625 C12.8910661,17.7702789 13.0605646,17.7830008 13.2303025,17.7830216 C15.0975782,17.7830216 16.6167371,16.2639662 16.6167371,14.3965871 C16.6167371,13.392364 16.1768853,12.4892873 15.4802379,11.8685512 L17.6084461,7.56497458 L19.7582694,11.9505645 C19.1132293,12.5675774 18.7101956,13.4355942 18.7101956,14.3965871 C18.7101956,16.2639662 20.2292511,17.7830216 22.0965268,17.7830216 C22.7872399,17.7836365 23.4614237,17.5717626 24.0276135,17.1761441 C24.4082048,17.9552185 24.5499957,18.8318194 24.3983797,19.7050073 Z" id="Shape"></path>
                            </g>
                        </g>
                    </g>
                </g>
            </g>
        </g>
    </g>
</svg>