<?xml version="1.0" encoding="UTF-8"?>
<svg width="88px" height="20px" viewBox="0 0 88 20" version="1.1" xmlns="http://www.w3.org/2000/svg" xmlns:xlink="http://www.w3.org/1999/xlink">
    <!-- Generator: Sketch 48.2 (47327) - http://www.bohemiancoding.com/sketch -->
    <title>jquery</title>
    <desc>Created with Sketch.</desc>
    <defs></defs>
    <g id="Skills" stroke="none" stroke-width="1" fill="none" fill-rule="evenodd" transform="translate(-616.000000, -1480.000000)">
        <g id="Body" transform="translate(489.000000, 174.000000)" fill="#F2F2F8" fill-rule="nonzero">
            <g id="Previously" transform="translate(8.000000, 1182.000000)">
                <g id="Skills" transform="translate(0.000000, 74.000000)">
                    <g id="Tooling">
                        <g id="Logos" transform="translate(0.000000, 42.000000)">
                            <g id="jquery" transform="translate(119.000000, 8.000000)">
                                <path d="M83.7125115,1.47797098 L87.3741573,1.49809084 C87.3741573,1.49809084 80.5664369,10.7227089 80.0106256,11.4745208 C79.8300503,11.717971 79.5557494,11.9805351 79.4167549,12.3059737 C79.0651603,13.1241812 78.7041764,14.9188722 78.7041764,14.9188722 L75.3538855,14.9354711 C75.3538855,14.9354711 75.8751573,13.0648276 75.8536961,12.0683918 C75.8347501,11.1978728 75.3904366,10.3285274 75.1411179,9.45549333 C74.8892844,8.57189638 74.5472468,6.84259487 74.5472468,6.84259487 L77.9915983,6.84259487 L78.4665945,8.74291515 L83.7125115,1.47797098" id="Shape"></path>
                                <path d="M76.7790417,3.42339326 C77.4547337,3.83082031 77.8693703,6.07787275 77.8693703,6.07787275 C77.8693703,6.07787275 74.333641,6.13001672 72.4095125,6.13001672 L70.746774,6.13001672 L68.7277467,14.9188722 L65.639852,14.9188722 C65.639852,14.9188722 67.5614656,5.36764188 68.0151685,3.63599306 C68.1623788,3.07548744 69.022335,3.17155974 70.4748209,3.17155974 L72.7943046,3.17155974 C74.2920602,3.17155974 76.042655,2.98042113 76.7790417,3.42339326" id="Shape"></path>
                                <path d="M62.4034058,7.70372465 C62.4034058,7.70372465 62.4996458,7.13953039 62.0767935,6.48630578 C61.7158096,5.92932116 61.3821556,5.79988342 60.4319952,5.77020663 C57.7490126,5.68587091 57.8011566,7.67404786 57.8011566,7.67404786 L62.4034058,7.70372465 Z M65.3132397,5.42699545 C65.706415,6.84510988 64.9569504,10.1776284 64.9569504,10.1776284 C64.9569504,10.1776284 61.0434711,10.1122389 58.8998684,10.1776284 C58.2333983,10.197916 57.4354783,10.105197 57.2371299,10.4152104 C56.9579672,10.8497992 57.3390708,11.5186168 57.6621621,11.8011331 C58.0340441,12.1265717 58.7583586,12.1634581 59.0185754,12.1966559 C60.75844,12.4176389 64.3999658,12.2536621 64.3999658,12.2536621 L63.7692085,15.0469686 C63.7692085,15.0469686 58.6232205,15.3048381 56.049388,14.6906795 C55.5411938,14.5696251 55.0648564,14.3250012 54.7429388,13.9781013 C54.6550821,13.8832027 54.5789621,13.753765 54.4958,13.6420998 C54.4294044,13.5529017 54.2359183,13.2596548 54.1490677,13.0279412 C53.5612325,11.4614428 54.2179781,8.46023118 54.8616458,6.85215183 C54.9364246,6.66570783 55.0303173,6.42946721 55.1290721,6.228604 C55.2524742,5.97811179 55.3569296,5.69542783 55.4555169,5.5457026 C55.5219125,5.44242068 55.6040684,5.37585747 55.6729791,5.27844386 C55.7524523,5.16325768 55.8450038,5.05159248 55.9306807,4.95199921 C56.168095,4.6763572 56.4377012,4.48152995 56.7619662,4.23942103 C57.8343545,3.43647118 59.7750821,2.81292333 62.1064701,3.05167894 C62.984199,3.14188296 64.3097621,3.45541737 64.9569504,4.35812817 C65.1303166,4.59923111 65.215826,5.07774831 65.3132397,5.42699545 Z" id="Shape"></path>
                                <path d="M51.1502034,3.16082916 L54.144373,3.14305662 C54.144373,3.14305662 52.4757665,11.0588781 51.6253672,14.9188722 L48.1810157,14.9188722 C45.7736752,14.9188722 43.6299046,15.2169814 42.7178048,13.4935482 C41.8330342,11.8202469 42.6773973,9.06835381 43.0740937,7.19888397 C43.3544304,5.87583586 43.9447805,3.17155974 43.9447805,3.17155974 L47.0469268,3.14305662 C47.0469268,3.14305662 46.1703716,7.35330386 45.8056991,9.45549333 C45.6750879,10.2084789 45.4056496,10.9175361 45.6869921,11.4745208 C45.9542509,12.0043436 46.3283125,12.042236 47.4684376,12.0683918 C47.8295891,12.076775 49.0124687,12.0683918 49.0124687,12.0683918 L51.1502034,3.16082916" id="Shape"></path>
                                <path d="M37.1357186,8.86162229 C37.449253,7.74765303 37.9064766,6.53979108 37.8482968,5.53614568 C37.7854222,4.46258376 36.8852263,3.48509415 36.3044332,3.27970397 C34.555012,2.66202443 32.9172557,3.52550154 32.2663785,4.22969644 C31.4241949,5.14196417 31.1391636,6.20731046 30.8410545,7.67404786 C30.6190655,8.76303501 30.4373161,9.91271703 30.8410545,10.7619426 C31.55598,12.263219 33.7852598,11.9354331 36.1855586,11.9496846 C36.5418475,10.9948299 36.8364359,9.92227395 37.1357186,8.86162229 Z M41.2926482,4.46727839 C41.6346858,6.95426007 40.3223682,9.69911125 39.4184838,12.0861643 C40.3401409,12.1693264 41.1477853,12.0732541 41.2059651,12.1419969 C41.2664923,12.2311949 40.5882858,14.9913037 40.3518773,14.9983456 C39.6203532,15.0174595 37.1964137,15.0375793 36.1855586,15.0375793 C32.8874113,15.0375793 29.8018639,15.2525264 28.2283236,13.612423 C27.5893506,12.9461204 27.1475521,11.8034804 27.0405815,10.9995245 C26.8623532,9.65736253 27.0856836,8.17989456 27.3968706,6.96146971 C27.678381,5.86158431 28.0393648,4.82356749 28.5846128,3.87340735 C29.9705354,1.45416249 32.3815646,-0.341534532 36.4231405,0.0729344728 C37.2069764,0.153749222 38.3328499,0.49696041 39.036039,0.904219798 C39.0846619,0.932890591 39.2546745,1.06819662 39.2937409,1.09200511 C40.2439009,1.69660674 41.1097251,3.13953564 41.2926482,4.46727839 Z" id="Shape"></path>
                                <path d="M26.6997178,3.17508072 C26.5001959,4.08365983 26.300674,5.11346106 26.0904215,6.01130957 L22.7649448,6.01130957 C23.0226467,5.01604742 23.2198212,4.02665357 23.4775231,3.16082916 C24.5416957,3.16082916 25.5310896,3.17508072 26.6997178,3.17508072" id="Shape"></path>
                                <path d="M22.6462376,6.84259487 L25.8528395,6.84259487 C25.4336759,9.1634201 24.6035643,12.9068867 23.9526868,15.5125756 C23.5452598,17.1432897 23.2733065,18.3333791 22.1710738,19.1943414 C22.0724865,19.271635 22.0156479,19.2349164 21.9336595,19.3132161 C21.7304489,19.5068697 20.7910195,19.7313737 20.2709212,19.7882123 C19.4252166,19.8797576 18.4691882,19.8001166 17.4299978,19.7788231 C17.7019511,18.7847345 18.0096173,17.5911243 18.2518938,16.7003176 C20.7851511,17.0068101 20.849367,14.6123797 21.3397884,12.3059737 C21.6236462,10.9733687 22.4836022,7.37711234 22.6462376,6.84259487" id="Shape"></path>
                                <g id="Group" transform="translate(0.000000, 1.508989)">
                                    <path d="M15.1638314,11.3908557 L15.0950886,11.5689164 C13.9239454,13.8491666 11.8490854,15.2483348 8.88945477,15.3100357 C7.50587942,15.3385388 6.18752595,14.983591 5.32639617,14.5974575 C3.46782462,13.7624836 1.90467957,12.2139254 1.05092707,10.5594027 C-0.173701412,8.18760718 -0.394516817,4.88828632 2.15181844,2.42393949 C2.19105217,2.42393949 1.84297868,2.95828928 1.88221239,2.95828928 L1.81212824,3.18631431 C-0.0228025019,8.93103579 5.63037364,13.8540289 11.1257766,13.2910083 C12.4464774,13.1557023 14.1306769,12.4323935 15.1638314,11.3908557" id="Shape"></path>
                                    <path d="M11.8383548,9.01537152 C13.2209241,9.02492844 14.6650267,8.37874578 15.5201205,7.471508 C14.7719973,9.37065463 12.6057596,10.5914268 9.70062024,10.2031136 C7.26829747,9.87767494 4.95116089,7.42992697 4.71240526,4.97731668 C4.53786554,3.19235026 5.16007203,2.12700397 6.18517863,0.834806301 C5.82888954,1.51066575 5.69576318,2.03193764 5.6625654,2.36441824 C5.27307856,6.22558602 8.74693911,8.99525166 11.8383548,9.01537152" id="Shape"></path>
                                    <path d="M15.3812935,4.21963651 C15.1663464,4.71257296 13.9288077,5.64361921 13.3823859,5.75997904 C11.2184956,6.22089138 9.83257296,5.1947788 9.1067492,4.02715658 C8.99877265,3.85261682 8.79925074,3.37644694 8.76353802,3.2552248 C8.48202769,2.29802274 8.61146544,0.850231521 9.45130171,0.100766938 C9.19829453,0.813345121 9.16140814,1.64110947 9.2945345,2.17914791 C9.37518157,2.50458656 9.62097915,3.07246947 9.86694438,3.42976455 C10.3146111,4.08064185 10.5984688,4.23875036 11.1733936,4.58430885 C11.4322691,4.73990243 11.7100907,4.8646455 11.8301392,4.89901692 C12.3752196,5.05930509 13.5260752,5.48215737 15.3812935,4.21963651" id="Shape"></path>
                                </g>
                            </g>
                        </g>
                    </g>
                </g>
            </g>
        </g>
    </g>
</svg>