<?xml version="1.0" encoding="UTF-8"?>
<svg width="28px" height="25px" viewBox="0 0 28 25" version="1.1" xmlns="http://www.w3.org/2000/svg" xmlns:xlink="http://www.w3.org/1999/xlink">
    <!-- Generator: Sketch 48.2 (47327) - http://www.bohemiancoding.com/sketch -->
    <title>lodash</title>
    <desc>Created with Sketch.</desc>
    <defs></defs>
    <g id="Skills" stroke="none" stroke-width="1" fill="none" fill-rule="evenodd" transform="translate(-631.000000, -1003.000000)">
        <g id="Body" transform="translate(489.000000, 174.000000)" fill="#F2F2F8" fill-rule="nonzero">
            <g id="Occasionally" transform="translate(8.000000, 710.000000)">
                <g id="Skills" transform="translate(0.000000, 74.000000)">
                    <g id="Tooling">
                        <g id="Logos" transform="translate(0.000000, 42.000000)">
                            <g id="lodash" transform="translate(134.179832, 3.000000)">
                                <polygon id="Shape" points="0.04160882 0 2.59441024 0 2.59441024 16.9413157 12.6895775 16.9413157 12.6895775 19.0299701 0.0416089459 19.0299701 0.0416089459 3.58111077e-15"></polygon>
                                <path d="M19.6517621,4.98956544 C21.3923097,4.75749242 23.2488897,5.10560171 24.6413285,6.26596616 C26.1497998,7.31029384 26.9620574,9.16687621 27.0780937,10.907422 C27.3101662,12.9960774 27.0780937,15.0847327 25.9177274,16.8252793 C24.8734011,18.2177163 23.2488898,19.1460083 21.3923097,19.2620445 C19.6517621,19.494117 17.679142,19.1460083 16.1706707,17.9856438 C14.7782319,16.8252793 14.0820144,15.0847327 13.8499418,13.344187 C13.6178693,11.4876041 13.8499418,9.39894872 15.0103044,7.77443925 C15.9385982,6.14992939 17.7951782,5.10560171 19.6517621,4.98956544 Z M19.9998707,6.9621847 C18.6074357,7.07822095 17.3310332,8.00651189 16.7508519,9.2829126 C16.1706707,10.6753496 16.0546306,12.1838226 16.2867031,13.6922959 C16.5187795,14.736624 17.0989606,15.7809513 18.0272508,16.4771707 C18.8395083,17.1733882 20.1159071,17.521497 21.2762735,17.2894245 C22.5526721,17.0573519 23.5970023,16.2450965 24.1771835,15.0847328 C24.7573648,13.9243693 24.8734011,12.5319324 24.7573648,11.2555318 C24.6413285,10.0951673 24.1771835,8.93480383 23.364926,8.00651189 C22.4366361,7.19425721 21.1602334,6.84614794 19.9998708,6.9621847 Z" id="Shape"></path>
                                <polygon id="Shape" points="0.04160882 22.0469185 27.4262025 22.0469185 27.4262025 24.9478284 0.04160882 24.9478284"></polygon>
                            </g>
                        </g>
                    </g>
                </g>
            </g>
        </g>
    </g>
</svg>