<?xml version="1.0" encoding="UTF-8"?>
<svg width="30px" height="30px" viewBox="0 0 30 30" version="1.1" xmlns="http://www.w3.org/2000/svg" xmlns:xlink="http://www.w3.org/1999/xlink">
    <!-- Generator: Sketch 48.2 (47327) - http://www.bohemiancoding.com/sketch -->
    <title>lua</title>
    <desc>Created with Sketch.</desc>
    <defs></defs>
    <g id="Skills" stroke="none" stroke-width="1" fill="none" fill-rule="evenodd" transform="translate(-725.000000, -1586.000000)">
        <g id="Body" transform="translate(489.000000, 174.000000)" fill="#F2F2F8" fill-rule="nonzero">
            <g id="Previously" transform="translate(8.000000, 1182.000000)">
                <g id="Skills" transform="translate(0.000000, 74.000000)">
                    <g id="Languages" transform="translate(0.000000, 114.000000)">
                        <g id="Logos" transform="translate(0.000000, 42.000000)">
                            <g id="lua" transform="translate(228.000000, 0.000000)">
                                <path d="M26.4667477,15.0027878 C26.4667477,21.3336748 21.3286062,26.4718162 14.9977191,26.4718162 C8.66683211,26.4718162 3.5286906,21.3336748 3.5286906,15.0027878 C3.5286906,8.67186906 8.66683211,3.53375924 14.9977191,3.53375924 C21.3286062,3.53375924 26.4667477,8.67186906 26.4667477,15.0027878 Z M23.1087751,10.2509398 C23.1087751,8.3966737 21.6038332,6.89173179 19.7495671,6.89173179 C17.8953009,6.89173179 16.390359,8.3966737 16.390359,10.2509398 C16.390359,12.1052059 17.8953009,13.6101478 19.7495671,13.6101478 C21.6038332,13.6101478 23.1087751,12.1052059 23.1087751,10.2509398 Z M7.17769799,13.3308026 L7.17769799,20.7346884 L11.8952375,20.7346884 L11.8952375,19.8526821 L8.18068638,19.8526821 L8.18068638,13.3308026 L7.17769799,13.3308026 Z M13.7046145,15.3367793 L12.777244,15.3367793 L12.777244,19.0059346 C12.777244,19.4663252 12.8514361,19.8342766 12.9997888,20.1097254 C13.2734002,20.6238121 13.7877086,20.880887 14.5427771,20.880887 C15.0274023,20.880887 15.4395143,20.7397571 15.779113,20.4574973 C15.9505596,20.3163675 16.0940338,20.1433369 16.2095671,19.9383738 L16.1994614,20.7346884 L17.056283,20.7346884 L17.056283,15.3367793 L16.1490602,15.3367793 L16.1490602,17.9878352 C16.1490602,18.5154171 16.0885216,18.9303485 15.9674762,19.232756 C15.7449314,19.797244 15.3260401,20.0795037 14.7109293,20.0795037 C14.2821859,20.0795037 13.9893136,19.9181943 13.8322809,19.5956388 C13.7471595,19.4209927 13.7046145,19.1958184 13.7046145,18.9202746 L13.7046145,15.3367793 Z M21.4311827,17.4679198 L19.9845934,17.6491235 C19.4771911,17.7129251 19.0672968,17.882471 18.7548152,18.1576346 C18.4423337,18.4327983 18.2860929,18.8204224 18.2860929,19.3204118 C18.2860929,19.7768427 18.4448364,20.1568955 18.7623865,20.4605702 C19.079905,20.764245 19.4889123,20.9161458 19.9896305,20.9161458 C20.4062091,20.9161458 20.787624,20.8270644 21.1337487,20.6490919 C21.4797783,20.4710243 21.7452482,20.2610877 21.9300634,20.0191869 C21.9603168,20.2341605 22.0123654,20.4005068 22.0863041,20.5180359 C22.2274339,20.7397571 22.4542555,20.8506336 22.766737,20.8506336 C22.8943717,20.8506336 22.9952059,20.8455649 23.0691446,20.835491 C23.1430201,20.8254487 23.2505702,20.8002323 23.3917001,20.759905 L23.3917001,20.089641 C23.3345195,20.0997149 23.2808237,20.1072229 23.2304224,20.1122598 C23.1800211,20.1172968 23.1346568,20.1197994 23.0943294,20.1197994 C22.9699895,20.1197994 22.8884794,20.0913199 22.8498945,20.0342978 C22.8112144,19.9772756 22.7919219,19.9016578 22.7919219,19.8075712 L22.7919219,16.6976769 C22.7919219,16.1868848 22.5956072,15.8105386 22.2029461,15.5686062 C21.8068955,15.3267054 21.2917001,15.2057234 20.6574551,15.2057234 C20.1104224,15.2057234 19.6296621,15.3362725 19.2152059,15.5974023 C18.8007497,15.8585955 18.5851109,16.3227244 18.5683527,16.9899155 L19.4150686,16.9899155 C19.4486167,16.7097149 19.5206546,16.4986695 19.6313094,16.3567477 C19.8291446,16.1001478 20.1645301,15.9718162 20.6373707,15.9718162 C21.046378,15.9718162 21.3607603,16.0418269 21.5804224,16.1817846 C21.8000528,16.3218057 21.9099155,16.5469482 21.9099155,16.8572122 C21.9099155,17.0090496 21.889736,17.1253748 21.8495037,17.2063464 C21.7789546,17.3539071 21.639472,17.4411827 21.4311827,17.4679198 Z M19.5209081,19.9187645 C19.329377,19.7678775 19.2336431,19.5617107 19.2336431,19.3002323 C19.2336431,18.9549947 19.3738542,18.703527 19.6544667,18.5459873 C19.8200845,18.4520909 20.0672122,18.3833474 20.3958184,18.3397254 L20.9441183,18.269208 C21.1117635,18.2491553 21.2827983,18.2155121 21.4571595,18.1682788 C21.6315206,18.1210771 21.773981,18.0621225 21.8846991,17.9913199 L21.8846991,18.7209504 C21.8846991,19.277867 21.6326927,19.6787012 21.1287117,19.9236431 C20.8295987,20.0712037 20.5205068,20.1450158 20.2013411,20.1450158 C19.9392292,20.1450158 19.7124393,20.0696515 19.5209081,19.9187645 Z" id="Combined-Shape"></path>
                                <path d="M29.8259873,3.53372756 C29.8259873,1.67946145 28.3210454,0.174519536 26.4667793,0.174519536 C24.6125132,0.174519536 23.1075712,1.67946145 23.1075712,3.53372756 C23.1075712,5.38799366 24.6125132,6.89293559 26.4667793,6.89293559 C28.3210454,6.89293559 29.8259873,5.38799366 29.8259873,3.53372756" id="Shape"></path>
                                <path d="M15.5310982,29.9912883 L15.5190919,29.6473812 C15.9443505,29.6325554 16.3730623,29.5990391 16.7932841,29.5476874 L16.8350053,29.8892186 C16.404963,29.9417423 15.9662407,29.9760824 15.5310982,29.9912883 Z M14.2231045,29.9806758 C13.7886589,29.9584372 13.3505386,29.9169377 12.9209398,29.8572861 L12.9682365,29.5164837 C13.3880148,29.5747413 13.8161246,29.6152904 14.2406546,29.6370221 L14.2231045,29.9806758 Z M18.1253537,29.6739915 L18.0539493,29.3374023 C18.4693559,29.2492713 18.8856177,29.1416262 19.2912355,29.0174762 L19.3919747,29.3464625 C18.9767265,29.4735902 18.5505807,29.5837382 18.1253537,29.6739915 Z M11.6343295,29.6208026 C11.2110349,29.5236431 10.7867582,29.4064308 10.3733157,29.2723654 L10.4794087,28.9450581 C10.8833157,29.076019 11.2978036,29.1905386 11.7112777,29.2854488 L11.6343295,29.6208026 Z M20.6249208,28.9089757 L20.4957022,28.590095 C20.8886483,28.4309398 21.2795987,28.2522069 21.6577825,28.0589018 L21.8143717,28.3653009 C21.4272861,28.5631362 21.0270855,28.7460824 20.6249208,28.9089757 Z M9.14708554,28.8141922 C8.74726505,28.6444245 8.34988384,28.4547307 7.96593454,28.2503695 L8.12762407,27.9466315 C8.50270328,28.1462725 8.89096093,28.3316262 9.28156283,28.4974657 L9.14708554,28.8141922 Z M22.9519958,27.7195882 L22.7692397,27.4280464 C23.1287645,27.2026505 23.4828405,26.9586272 23.8217423,26.7027244 L24.0290814,26.9773179 C23.6822914,27.239208 23.3199155,27.4889018 22.9519958,27.7195882 Z M6.83870116,27.5856177 C6.47470961,27.3489757 6.1163886,27.0932312 5.77368532,26.8254171 L5.98555438,26.5542766 C6.32043294,26.8160085 6.6705491,27.0659557 7.02624076,27.2971806 L6.83870116,27.5856177 Z M25.0378352,26.1443505 L24.8074973,25.8888279 C25.1229567,25.6044139 25.4297044,25.3028617 25.7191553,24.992471 L25.9708131,25.2271489 C25.6745513,25.5447307 25.3606758,25.8533474 25.0378352,26.1443505 Z M4.77871172,25.975755 C4.46084477,25.6795564 4.15206969,25.3658395 3.86103485,25.0432523 L4.11649419,24.8127878 C4.40090814,25.1279937 4.70261879,25.4345829 5.01326293,25.7240338 L4.77871172,25.975755 Z M26.820887,24.2325554 L26.549905,24.0205914 C26.8117001,23.6859028 27.0618057,23.3358817 27.2932523,22.9802535 L27.5816262,23.1679198 C27.3447941,23.5318479 27.0888279,23.8900739 26.820887,24.2325554 Z M3.02759239,24.0349103 C2.76538542,23.6880887 2.51546991,23.3257761 2.28481521,22.9581098 L2.57626188,22.7752587 C2.80165787,23.1344984 3.04587117,23.4885111 3.30205914,23.8273812 L3.02759239,24.0349103 Z M28.2469799,22.0410348 L27.9433051,21.8792186 C28.1431679,21.5042027 28.3286801,21.1160718 28.4946779,20.7255333 L28.8113728,20.8601689 C28.6413833,21.2598945 28.4514995,21.6572122 28.2469799,22.0410348 Z M1.63862725,21.8209293 C1.44063357,21.4340654 1.25749736,21.0339915 1.09425554,20.6317318 L1.41310454,20.5023548 C1.57254488,20.8953643 1.75146779,21.2862197 1.94489968,21.6641183 L1.63862725,21.8209293 Z M29.2700845,19.6341605 L28.9428405,19.5278775 C29.0739282,19.1243823 29.1886695,18.7099577 29.2838965,18.2961668 L29.6191869,18.3733051 C29.5217107,18.7969166 29.404245,19.2211298 29.2700845,19.6341605 Z M0.656166843,19.3988807 C0.528817318,18.9835692 0.41841605,18.5574868 0.328035902,18.1324499 L0.664561774,18.0608554 C0.752882788,18.4760718 0.860718057,18.892302 0.985121436,19.2980464 L0.656166843,19.3988807 Z M29.8563357,17.0867898 L29.5155333,17.0393347 C29.5740127,16.6197149 29.6147835,16.1916368 29.636642,15.7670116 L29.9802956,15.7847518 C29.957867,16.2192608 29.9161774,16.6573495 29.8563357,17.0867898 Z M0.11217529,16.8422598 C0.0594297783,16.4119958 0.0248680042,15.9733369 0.00950369589,15.5383527 L0.353379091,15.5262197 C0.368363252,15.9512566 0.402133051,16.3799366 0.453674762,16.8003802 L0.11217529,16.8422598 Z M29.647508,14.4886378 C29.6327139,14.0643928 29.5989757,13.6355544 29.5472122,13.2140654 L29.8886801,13.1720909 C29.9416789,13.603527 29.9762407,14.0424393 29.9913833,14.4766315 L29.647508,14.4886378 Z M0.363072861,14.2478141 L0.0194508976,14.2303907 C0.0414677931,13.7958817 0.0827455121,13.3577613 0.14217529,12.9281943 L0.483009504,12.9753326 C0.424941922,13.3950792 0.384582893,13.8231891 0.363072861,14.2478141 Z M29.3361668,11.9530201 C29.2478459,11.5376452 29.1401373,11.1211932 29.0159873,10.7151954 L29.345037,10.6145829 C29.4721014,11.0301162 29.5823126,11.4563569 29.6726927,11.8814889 L29.3361668,11.9530201 Z M0.71344245,11.7182788 L0.378057022,11.6414572 C0.475058078,11.2179092 0.592080253,10.7936008 0.725892292,10.3802851 L1.05323126,10.4862513 C0.92252376,10.89 0.808194298,11.3045195 0.71344245,11.7182788 Z M28.5892713,9.50993664 C28.4301162,9.11613517 28.2517001,8.72467793 28.0589968,8.34649419 L28.3655861,8.19028511 C28.5628194,8.57733896 28.7453855,8.97798311 28.9082788,9.38103485 L28.5892713,9.50993664 Z M1.50022175,9.28815206 L1.18343189,9.15383316 C1.3530095,8.75388595 1.5425132,8.35640972 1.74668427,7.97242873 L2.05048575,8.1339282 C1.85103485,8.50910243 1.66587117,8.89742344 1.50022175,9.28815206 Z M2.69942978,7.03222809 L2.41086589,6.84484689 C2.64741288,6.4806019 2.90303063,6.12215418 3.17059134,5.7794509 L3.44179514,5.99119324 C3.18034847,6.3260718 2.93059134,6.67634636 2.69942978,7.03222809 Z M4.27159451,5.01848996 L4.01974657,4.78406546 C4.31575501,4.4660718 4.6293453,4.15713833 4.95177402,3.86594509 L5.18239704,4.12127771 C4.86731784,4.40588173 4.56085533,4.70771911 4.27159451,5.01848996 Z M6.16736009,3.30639915 L5.959736,3.03202746 C6.30636748,2.76972545 6.66852165,2.51965153 7.0361246,2.28874339 L7.21916578,2.58009504 C6.85992608,2.80571278 6.5060718,3.05008447 6.16736009,3.30639915 Z M22.9830411,2.70883843 L22.9641922,2.6966737 L23.1513833,2.40791974 L23.1695354,2.41970433 L22.9830411,2.70883843 Z M21.8617635,2.04940866 C21.4865258,1.85062302 21.0980148,1.66602956 20.7070328,1.50072861 L20.8410032,1.18384372 C21.2411721,1.35297783 21.6388068,1.5419113 22.0228194,1.74538542 L21.8617635,2.04940866 Z M8.32998945,1.94813094 L8.17308342,1.64192186 C8.55991553,1.44367477 8.95995776,1.26034847 9.36199577,1.09701162 L9.49149947,1.41579725 C9.09874339,1.57536431 8.70791974,1.7544773 8.32998945,1.94813094 Z M19.5088068,1.05478353 C19.104773,0.924139387 18.690095,0.809778247 18.2763041,0.714899684 L18.3532207,0.379545934 C18.776737,0.476642027 19.2011405,0.593695882 19.6146779,0.727381204 L19.5088068,1.05478353 Z M10.6956177,0.987212249 L10.5945935,0.658289334 C11.0097149,0.530781415 11.4357656,0.420190073 11.8608659,0.329524815 L11.9326188,0.666019008 C11.517339,0.754593454 11.1011404,0.862650475 10.6956177,0.987212249 Z M17.0188068,0.483706441 C16.5981415,0.425258712 16.169905,0.384646252 15.7458817,0.363041183 L15.7634002,0.0194192186 C16.197339,0.041531151 16.6356811,0.083093981 17.0661986,0.142935586 L17.0188068,0.483706441 Z M13.1930306,0.454593454 L13.1509609,0.113062302 C13.5810666,0.0601267159 14.0197254,0.025374868 14.4548046,0.00978880676 L14.4671278,0.353632523 C14.0419324,0.368870116 13.6132841,0.40282999 13.1930306,0.454593454 Z" id="Shape"></path>
                            </g>
                        </g>
                    </g>
                </g>
            </g>
        </g>
    </g>
</svg>