<?xml version="1.0" encoding="UTF-8"?>
<svg width="88px" height="25px" viewBox="0 0 88 25" version="1.1" xmlns="http://www.w3.org/2000/svg" xmlns:xlink="http://www.w3.org/1999/xlink">
    <!-- Generator: Sketch 48.2 (47327) - http://www.bohemiancoding.com/sketch -->
    <title>mongodb</title>
    <desc>Created with Sketch.</desc>
    <defs></defs>
    <g id="Skills" stroke="none" stroke-width="1" fill="none" fill-rule="evenodd" transform="translate(-843.000000, -1003.000000)">
        <g id="Body" transform="translate(489.000000, 174.000000)" fill="#F2F2F8" fill-rule="nonzero">
            <g id="Occasionally" transform="translate(8.000000, 710.000000)">
                <g id="Skills" transform="translate(0.000000, 74.000000)">
                    <g id="Tooling">
                        <g id="Logos" transform="translate(0.000000, 42.000000)">
                            <g id="mongodb" transform="translate(345.972475, 3.000000)">
                                <path d="M81.629014,10.353189 C81.5500658,10.3690083 81.4711171,10.5428723 81.4711171,10.63764 C81.4552979,11.2696713 81.4394788,12.9447388 81.4394788,14.082395 C81.4394788,14.1140336 81.4867887,14.1771628 81.5342466,14.1771628 C81.7712397,14.192982 82.3401418,14.2088013 82.8299476,14.2088013 C83.5094366,14.2088013 83.9044743,14.1140336 84.1257962,14.0192658 C84.6945503,13.7348148 84.9631822,13.118455 84.9631822,12.438966 C84.9631822,10.9062718 83.8886551,10.3215505 82.2926839,10.3215505 C82.1820969,10.3058791 81.8661551,10.3058791 81.629014,10.353189 Z M85.7059483,17.416563 C85.7059483,15.8522303 84.552325,14.983058 82.4665479,14.983058 C82.3717801,14.983058 81.7081106,14.9672388 81.5500658,14.9988773 C81.5026079,15.0146965 81.4394788,15.0463351 81.4394788,15.0937928 C81.4394788,16.2156298 81.4236596,18.0012844 81.4711171,18.6964449 C81.5026079,18.9967151 81.7239298,19.4233916 81.9925616,19.5497978 C82.2768647,19.7078426 82.924863,19.7393332 83.367211,19.7393332 C84.6156021,19.7393332 85.7059483,19.0441728 85.7059483,17.416563 Z M78.4055808,9.48416455 C78.5634781,9.48416455 79.0376123,9.53147449 80.2543647,9.53147449 C81.4078401,9.53147449 82.3243226,9.4999838 83.4463072,9.4999838 C84.8209568,9.4999838 86.7171983,9.98978952 86.7171983,12.043928 C86.7171983,13.0553258 86.0060709,13.8612211 85.0737692,14.2562591 C85.0264592,14.2720783 85.0264592,14.303569 85.0737692,14.3193883 C86.4011086,14.6512971 87.5705514,15.4730116 87.5705514,17.0215251 C87.5705514,18.5385479 86.6224305,19.5023401 85.2476332,20.1028807 C84.4100993,20.4662801 83.367211,20.5926863 82.3085031,20.5926863 C81.5026079,20.5926863 79.3378825,20.4979187 78.1369493,20.5295572 C78.0105432,20.4820993 78.2475363,19.9131973 78.3581233,19.8184296 C78.6425743,19.8026103 78.8637483,19.7867911 79.1640185,19.6920233 C79.5906949,19.5814363 79.6380048,19.4550301 79.7012818,18.8071796 C79.7329205,18.2540969 79.7329205,16.2945783 79.7329205,14.9041096 C79.7329205,12.9920488 79.7487397,11.6963478 79.7329205,11.0643165 C79.7171014,10.5745108 79.5432373,10.4164661 79.1956568,10.3215505 C78.9270253,10.2742405 78.4845295,10.2109635 78.1211301,10.1636536 C78.0420336,10.0845573 78.3106654,9.54729373 78.4055808,9.48416455 Z M69.2879205,19.3128046 C69.6672873,19.6129271 70.4099055,19.7393332 71.073575,19.7393332 C71.9269281,19.7393332 72.7801336,19.5814363 73.6018479,18.8386704 C74.4393818,18.0802329 75.0239551,16.9109381 75.0239551,15.0463351 C75.0239551,13.2606805 74.3444661,11.8069348 72.9539976,10.9537296 C72.1639216,10.463776 71.1525236,10.2584213 69.9832288,10.2584213 C69.6356486,10.2584213 69.3037397,10.2742405 69.0983853,10.3690083 C69.0509274,10.4006468 68.9403404,10.5428723 68.9403404,10.6218208 C68.9087017,10.9379103 68.9087017,13.3712675 68.9087017,14.7935226 C68.9087017,16.2630876 68.9087017,18.317226 68.9403404,18.5542193 C68.9403404,18.7913604 69.0509274,19.1547598 69.2879205,19.3128046 Z M65.7009401,9.48416455 C66.0012103,9.48416455 67.154686,9.53147449 67.7077685,9.53147449 C68.7033473,9.53147449 69.4143267,9.48416455 71.294749,9.48416455 C72.874901,9.48416455 74.2022408,9.91084106 75.1503613,10.7165885 C76.303837,11.712167 76.9043774,13.0869643 76.9043774,14.761884 C76.9043774,17.1479313 75.8140312,18.5227286 74.7236849,19.3128046 C73.6334863,20.1186998 72.2112315,20.5926863 70.1887315,20.5926863 C69.1142045,20.5926863 67.2654205,20.5610478 65.7325788,20.5452286 L65.7167592,20.5452286 C65.637811,20.4031509 65.8431658,19.8500682 65.9695719,19.8342488 C66.3804291,19.7867911 66.4910161,19.7709717 66.6965185,19.6920233 C67.0282795,19.5656171 67.0915565,19.3917531 67.1390144,18.8071796 C67.1863243,17.7168334 67.1705051,16.4053131 67.1705051,14.9199288 C67.1705051,13.8612211 67.1863243,11.7911155 67.154686,11.1274458 C67.107376,10.5745108 66.8703825,10.4322853 66.3962483,10.3373697 C66.1592551,10.2900598 65.8431658,10.2267828 65.4008178,10.1794728 C65.3375408,10.068738 65.6219918,9.57893226 65.7009401,9.48416455 Z" id="Shape"></path>
                                <path d="M46.5810712,19.9290166 C46.1860332,19.8815587 45.9015822,19.8184296 45.5538541,19.6603848 C45.5065442,19.6287462 45.4274479,19.4708493 45.4274479,19.4075723 C45.3958096,18.8544896 45.3958096,17.2743375 45.3958096,16.2156298 C45.3958096,15.3622767 45.2537318,14.6196586 44.8901846,14.0982143 C44.4635079,13.4976737 43.8472959,13.1500935 43.0572199,13.1500935 C42.3619116,13.1500935 41.4296103,13.6242278 40.6553534,14.2878976 C40.6395342,14.303569 40.5131281,14.4143038 40.5289473,14.2404398 C40.5289473,14.0665758 40.5605856,13.7189955 40.5764051,13.4820023 C40.5922243,13.2606805 40.4658182,13.1500935 40.4658182,13.1500935 C39.9600452,13.402906 38.537938,13.7348148 38.0164937,13.7821248 C37.637275,13.8612211 37.5425072,14.2246205 37.9375452,14.3510268 L37.9533646,14.3510268 C38.3798932,14.477433 38.6643442,14.6196586 38.8855182,14.761884 C39.043563,14.8882903 39.0277435,15.0621543 39.0277435,15.2043798 C39.043563,16.3894938 39.043563,18.206639 38.9962531,19.2022176 C38.9804336,19.5972557 38.8698466,19.7393332 38.5853959,19.8026103 L38.6168863,19.7867911 C38.3957123,19.8342488 38.2218483,19.8815587 37.9532166,19.9131973 C37.858449,20.0079651 37.858449,20.5137378 37.9532166,20.6243248 C38.1270808,20.6243248 39.043563,20.5768671 39.8021483,20.5768671 C40.8450366,20.5768671 41.3823003,20.6243248 41.6509318,20.6243248 C41.7615188,20.4979187 41.7931575,20.0237842 41.7298805,19.9131973 C41.4296103,19.8973781 41.2084363,19.8658873 41.0030815,19.8026103 C40.7186305,19.7393332 40.6395342,19.5972557 40.6237151,19.2653467 C40.5922243,18.427813 40.5922243,16.6581256 40.5922243,15.4571923 C40.5922243,15.1252835 40.6869921,14.9672388 40.7817596,14.872471 C41.1451592,14.5565293 41.7298805,14.3352075 42.2513247,14.3352075 C42.7569497,14.3352075 43.0888586,14.4932523 43.3416709,14.6987549 C43.6892514,14.983058 43.7998384,15.3939153 43.8472959,15.6941855 C43.9262445,16.3736746 43.8947538,17.7168334 43.8947538,18.8861281 C43.8947538,19.5181592 43.8472959,19.6762041 43.6103027,19.7551526 C43.4997158,19.8026103 43.2152647,19.8658873 42.8833558,19.8973781 C42.7727688,20.0079651 42.8044075,20.4979187 42.8833558,20.6085057 C43.3416709,20.6085057 43.8789346,20.5610478 44.6690106,20.5610478 C45.6486219,20.5610478 46.280801,20.6085057 46.5336134,20.6085057 C46.612562,20.5137378 46.6442003,20.0554228 46.5809233,19.9290166 L46.5810712,19.9290166 Z M50.9581277,13.8928596 C50.1205942,13.8928596 49.5991497,14.5407101 49.5991497,15.5519601 C49.5991497,16.5790293 50.0573171,17.7641433 51.3531658,17.7641433 C51.5743397,17.7641433 51.9851969,17.6693755 52.1747325,17.4482015 C52.4750027,17.1637505 52.6805055,16.5948486 52.6805055,15.9944558 C52.6805055,14.6829356 52.0325068,13.8928596 50.9581277,13.8928596 Z M50.8473932,20.8771373 C50.5314514,20.8771373 50.3101295,20.9719051 50.1680517,21.0510014 C49.5042342,21.4775301 49.2041116,21.8883873 49.2041116,22.3783409 C49.2041116,22.836508 49.3778281,23.1999075 49.7571945,23.5159971 C50.2153616,23.9110351 50.8473932,24.1007183 51.6532884,24.1007183 C53.2650788,24.1007183 53.9762062,23.2315461 53.9762062,22.3783409 C53.9762062,21.7778003 53.675936,21.3827623 53.059724,21.1615884 C52.6172284,20.9719051 51.8113329,20.8771373 50.8473932,20.8771373 Z M50.9581277,24.9855622 C49.9941877,24.9855622 49.2988795,24.7800596 48.6984866,24.3218923 C48.1137654,23.8793966 47.8609531,23.2157269 47.8609531,22.7575596 C47.8609531,22.6311534 47.8925914,22.2834253 48.1770425,21.9674836 C48.3507589,21.7778003 48.7299774,21.4144009 49.6307884,20.7981889 C49.6622791,20.7823697 49.6780983,20.7665503 49.6780983,20.7349118 C49.6780983,20.7032733 49.6464596,20.6716348 49.6149692,20.6559634 C48.8722031,20.3715123 48.6510291,19.9131973 48.5877521,19.6603848 L48.5877521,19.6287462 C48.5720805,19.5339786 48.5404421,19.4392108 48.6826675,19.3442952 C48.7932545,19.2653467 48.9512993,19.1705791 49.1250154,19.0599921 C49.3936473,18.9019474 49.6780983,18.7280834 49.8519623,18.5858579 C49.8836007,18.5542193 49.8836007,18.5227286 49.8836007,18.4910901 C49.8836007,18.4594515 49.8519623,18.427813 49.8203236,18.4121416 C48.7143062,18.0485943 48.1612233,17.2268798 48.1612233,15.9944558 C48.1612233,15.1885606 48.5246229,14.4616138 49.1724733,14.0034466 C49.6149692,13.6557185 50.7209866,13.2291898 51.4479336,13.2291898 L51.4953914,13.2291898 C52.2380096,13.2448613 52.6488668,13.402906 53.2334404,13.6084086 C53.5495298,13.7189955 53.8498,13.7663055 54.2606572,13.7663055 C54.8768692,13.7663055 55.145501,13.5767701 55.366675,13.3555961 C55.3824942,13.3870867 55.4141329,13.4661831 55.4299521,13.6715378 C55.4457712,13.8770403 55.3824942,14.1771628 55.2244497,14.3984846 C55.0980432,14.5722008 54.8137401,14.6987549 54.529289,14.6987549 L54.4501928,14.6987549 C54.1657418,14.6671163 54.0393356,14.6354778 54.0393356,14.6354778 L53.9762062,14.6671163 C53.960387,14.6987549 53.9762062,14.7302455 53.9920257,14.7777033 L54.0078449,14.8093418 C54.0393356,14.9515673 54.1026127,15.378096 54.1026127,15.4888309 C54.1026127,16.7845318 53.5811682,17.353286 53.0280856,17.7799625 C52.4908219,18.1750005 51.8746099,18.427813 51.1793017,18.4910901 C51.1634825,18.4910901 51.1003534,18.4910901 50.9581277,18.5069094 C50.8790315,18.5069094 50.7684445,18.5227286 50.7526253,18.5227286 L50.7368062,18.5227286 C50.6103997,18.5542193 50.2944582,18.712264 50.2944582,18.9808959 C50.2944582,19.217889 50.4366836,19.5023401 51.1160247,19.5497978 C51.2582503,19.5656171 51.4004757,19.5656171 51.5585205,19.5814363 C52.4591836,19.6445656 53.5811682,19.7236618 54.1026127,19.8973781 C54.8294116,20.1660098 55.2877267,20.8138603 55.2877267,21.5882649 C55.2877267,22.7575596 54.4501928,23.8479058 53.059724,24.5272471 C52.3802349,24.8275173 51.7007459,24.9855622 50.9581277,24.9855622 Z M59.9650534,13.971808 C59.6331445,13.971808 59.3328743,14.0507565 59.1117003,14.2088013 C58.4954884,14.58802 58.179399,15.3466053 58.179399,16.452623 C58.179399,18.5227286 59.2222873,19.9764743 60.7076716,19.9764743 C61.1501675,19.9764743 61.4977476,19.8500682 61.7980178,19.5972557 C62.2561849,19.217889 62.493326,18.4594515 62.493326,17.4007438 C62.493326,15.3466053 61.4661089,13.971808 59.9650534,13.971808 Z M60.2495045,20.7349118 C57.563187,20.7349118 56.5992469,18.7597219 56.5992469,16.9109381 C56.5992469,15.6152371 57.1206911,14.6196586 58.1635795,13.908531 C58.9063455,13.4503638 59.7911894,13.1975513 60.5812654,13.1975513 C62.6354038,13.1975513 64.0734781,14.6671163 64.0734781,16.7845318 C64.0734781,18.2224584 63.504576,19.3601146 62.4142298,20.0554228 C61.8927856,20.4030031 60.9921226,20.7349118 60.2493565,20.7349118 L60.2495045,20.7349118 Z M32.0909236,13.971808 C31.7590149,13.971808 31.4588925,14.0507565 31.2375707,14.2088013 C30.6213587,14.58802 30.3052692,15.3466053 30.3052692,16.452623 C30.3052692,18.5227286 31.3481577,19.9764743 32.833542,19.9764743 C33.2760377,19.9764743 33.623618,19.8500682 33.9238882,19.5972557 C34.3820553,19.217889 34.6191964,18.4594515 34.6191964,17.4007438 C34.6191964,15.3466053 33.6077986,13.971808 32.0909236,13.971808 Z M32.3753747,20.7349118 C29.6890572,20.7349118 28.7251171,18.7597219 28.7251171,16.9109381 C28.7251171,15.6152371 29.2465613,14.6196586 30.2894498,13.908531 C31.0322159,13.4503638 31.9170596,13.1975513 32.7071356,13.1975513 C34.7614219,13.1975513 36.1993485,14.6671163 36.1993485,16.7845318 C36.1993485,18.2224584 35.6304464,19.3601146 34.5401002,20.0554228 C34.0344752,20.4030031 33.1338122,20.7349118 32.3753747,20.7349118 Z M14.3140658,20.5768671 C14.2824273,20.5295572 14.2507888,20.3873317 14.266608,20.2134676 C14.266608,20.0870613 14.2982466,20.0079651 14.3140658,19.9764743 C14.6458268,19.9290166 14.8196908,19.8815587 15.0092263,19.8342488 C15.3253158,19.7551526 15.4517221,19.5814363 15.4675413,19.1863983 C15.5149991,18.2382776 15.5149991,16.4368038 15.4991798,15.1885606 L15.4991798,15.1569221 C15.4991798,15.0146965 15.4991798,14.8408325 15.3253158,14.7144263 C15.0725033,14.5565293 14.772233,14.4143038 14.377195,14.303569 C14.2349695,14.2562591 14.1402018,14.1771628 14.1560211,14.082395 C14.1560211,13.9876273 14.2507888,13.8770403 14.4562913,13.8454018 C14.9777356,13.797944 16.3365658,13.4661831 16.8738293,13.2291898 C16.9054678,13.2606805 16.9529256,13.3555961 16.9529256,13.4820023 L16.9371063,13.6557185 C16.9212871,13.8295825 16.9054678,14.0350851 16.9054678,14.2404398 C16.9054678,14.303569 16.9687448,14.3510268 17.031874,14.3510268 C17.0635126,14.3510268 17.0951511,14.3352075 17.1267896,14.3193883 C18.1380396,13.5293123 19.0545217,13.2448613 19.5285082,13.2448613 C20.3029128,13.2448613 20.9033057,13.6084086 21.3616205,14.3668461 C21.3931113,14.4143038 21.4247498,14.4299752 21.4722075,14.4299752 C21.5038461,14.4299752 21.551156,14.4143038 21.5669753,14.3826653 C22.4992769,13.6715378 23.4315784,13.2448613 24.0477904,13.2448613 C25.5173553,13.2448613 26.3865276,14.3352075 26.3865276,16.1839913 C26.3865276,16.7054355 26.3865276,17.3849245 26.3707084,18.0012844 C26.3707084,18.5542193 26.3548892,19.0599921 26.3548892,19.4233916 C26.3548892,19.5023401 26.4654762,19.7551526 26.6393401,19.8026103 C26.860514,19.9131973 27.1607844,19.9606551 27.5558224,20.0237842 L27.5716416,20.0237842 C27.6032801,20.1343712 27.5400031,20.5452286 27.476874,20.6243248 C27.3819584,20.6243248 27.2397329,20.6243248 27.081836,20.6085057 C26.7815656,20.5926863 26.3548892,20.5768671 25.8809027,20.5768671 C24.9011433,20.5768671 24.3955183,20.5926863 23.9055649,20.6243248 C23.8740741,20.4979187 23.8582548,20.1186998 23.9055649,20.0237842 C24.1900158,19.9764743 24.3322413,19.9290166 24.5061053,19.8815587 C24.8221949,19.7867911 24.9011433,19.6445656 24.9169627,19.2337082 C24.9169627,18.9335858 24.9800918,16.3736746 24.8853241,15.7573148 C24.7905563,15.1252835 24.3164221,14.3826653 23.2735336,14.3826653 C22.8784955,14.3826653 22.2622836,14.5407101 21.661743,14.9988773 C21.6302524,15.0305158 21.5986139,15.1094643 21.5986139,15.1569221 L21.5986139,15.1727413 C21.661743,15.5045023 21.661743,15.8838689 21.661743,16.4684423 L21.661743,17.4955115 C21.661743,18.206639 21.6459238,18.8703089 21.661743,19.3759337 C21.661743,19.7236618 21.8672455,19.8026103 22.0411096,19.8658873 C22.1358774,19.8815587 22.1990065,19.8973781 22.2781029,19.9131973 C22.4203284,19.9448358 22.5625539,19.9764743 22.7837279,20.0237842 C22.8153664,20.0870613 22.8153664,20.2924161 22.7679086,20.4662801 C22.7520894,20.5610478 22.7204509,20.6085057 22.7047795,20.6243248 C22.1675159,20.6085057 21.614433,20.5926863 20.8085378,20.5926863 C20.5715447,20.5926863 20.1606873,20.6085057 19.8129592,20.6085057 C19.5285082,20.6085057 19.2598765,20.6243248 19.1019796,20.6243248 C19.0861603,20.5926863 19.0545217,20.4820993 19.0545217,20.3082353 C19.0545217,20.1660098 19.0861603,20.0554228 19.1177988,20.0237842 C19.1967473,20.0079651 19.2598765,19.9922937 19.3389728,19.9922937 C19.5285082,19.9606551 19.6865531,19.9290166 19.8445978,19.8973781 C20.1132296,19.8184296 20.2079973,19.6762041 20.2238166,19.3286238 C20.2712743,18.5385479 20.3185842,16.2789068 20.2079973,15.7100048 C20.0184618,14.7935226 19.4970176,14.3352075 18.6594839,14.3352075 C18.1696781,14.3352075 17.5533183,14.5722008 17.0476933,14.9515673 C16.9687448,15.0146965 16.9054678,15.1727413 16.9054678,15.3149668 L16.9054678,16.2472683 C16.9054678,17.3849245 16.9054678,18.8071796 16.9212871,19.4233916 C16.9371063,19.6129271 17.0002355,19.8342488 17.3637829,19.9131973 C17.4427313,19.9290166 17.5691375,19.9606551 17.7271824,19.9764743 L18.0116334,20.0237842 C18.0432719,20.1186998 18.0274526,20.4979187 17.9641755,20.6243248 C17.8061308,20.6243248 17.6165954,20.6085057 17.3952735,20.6085057 C17.0635126,20.5926863 16.636836,20.5768671 16.1628496,20.5768671 C15.6097668,20.5768671 15.2147288,20.5926863 14.8986393,20.6085057 C14.6774653,20.5768671 14.5036013,20.5768671 14.3140658,20.5768671 Z" id="Shape"></path>
                                <g id="Group">
                                    <path d="M4.9531147,21.3332359 C4.32871111,20.8789099 -0.281126877,17.3158476 0.0136016078,11.3487676 C0.313724041,4.94906329 4.0745686,1.80457853 4.80136757,1.2356765 C5.27550185,0.730051514 5.29132113,0.540368223 5.32295966,0.0347432373 C5.33408965,0.058600319 5.34477521,0.0928256822 5.3550354,0.136740951 L5.35445021,0.0980202822 C5.35445021,0.0980202822 5.70217827,0.982864007 6.06557774,1.48848899 C6.3973387,2.19961652 9.41556503,4.04840027 10.6954467,9.68951928 C11.6903914,15.5052579 8.75220988,19.0569653 7.21824602,20.4711043 C7.21905324,20.4820993 7.20833783,20.487457 7.1889495,20.4980099 C6.8034967,20.85066 6.51106059,21.0651327 6.39941151,21.1435075 C6.24689181,21.3303639 6.1186689,21.5536895 6.06557776,21.8094389 C5.87589447,22.6311534 6.00230072,24.3693502 6.00230072,24.3693502 L5.35445022,24.1480284 C5.35445022,24.1480284 5.39693439,22.3741751 4.9531147,21.3332359 Z" id="Combined-Shape"></path>
                                </g>
                            </g>
                        </g>
                    </g>
                </g>
            </g>
        </g>
    </g>
</svg>