<?xml version="1.0" encoding="UTF-8"?>
<svg width="32px" height="30px" viewBox="0 0 32 30" version="1.1" xmlns="http://www.w3.org/2000/svg" xmlns:xlink="http://www.w3.org/1999/xlink">
    <!-- Generator: Sketch 48.2 (47327) - http://www.bohemiancoding.com/sketch -->
    <title>mysql</title>
    <desc>Created with Sketch.</desc>
    <defs></defs>
    <g id="Skills" stroke="none" stroke-width="1" fill="none" fill-rule="evenodd" transform="translate(-960.000000, -1000.000000)">
        <g id="Body" transform="translate(489.000000, 174.000000)" fill="#F2F2F8" fill-rule="nonzero">
            <g id="Occasionally" transform="translate(8.000000, 710.000000)">
                <g id="Skills" transform="translate(0.000000, 74.000000)">
                    <g id="Tooling">
                        <g id="Logos" transform="translate(0.000000, 42.000000)">
                            <g id="mysql" transform="translate(463.643708, 0.000000)">
                                <path d="M28.0533662,23.1204324 C26.3964108,23.0791142 25.1122467,23.2449133 24.035191,23.7004719 C23.7245118,23.8246912 23.2273723,23.8248212 23.1859246,24.2182688 C23.351726,24.3840701 23.372385,24.6532995 23.5173924,24.881078 C23.7660943,25.2951846 24.2008627,25.8545646 24.5944425,26.1445842 C25.0293406,26.4759224 25.464368,26.8072606 25.9199305,27.0972801 C26.727749,27.5944196 27.639122,27.884306 28.426152,28.3814432 C28.8819735,28.6711985 29.3373956,29.0442513 29.7930874,29.3549299 C30.0210008,29.5204674 30.1658787,29.7898268 30.4558987,29.8933864 L30.4558987,29.8312776 C30.310886,29.6448189 30.2694383,29.3755895 30.1245605,29.1684695 C29.9175705,28.9613501 29.7103217,28.7748908 29.5032023,28.5677714 C28.902503,27.7600833 28.1569206,27.0558314 27.3491127,26.4759224 C26.6864363,26.0202321 25.2364708,25.398875 24.9672338,24.6325061 C24.9672338,24.6325061 24.9464452,24.6118464 24.9257862,24.5911869 C25.3814727,24.5497365 25.9199305,24.384069 26.3549632,24.259717 C27.0592221,24.0732588 27.7012449,24.1147081 28.426152,23.9283788 C28.7574904,23.8454798 29.0889633,23.7419201 29.4203015,23.6383598 L29.4203015,23.4520327 C29.0476452,23.079111 28.7782843,22.5821052 28.3847044,22.2299736 C27.3284482,21.3184658 26.1684975,20.4280082 24.9672338,19.6824279 C24.3250815,19.2681895 23.4966038,18.9988275 22.8131443,18.6468296 C22.5647067,18.5223487 22.150333,18.4603714 22.0054551,18.2532499 C21.632536,17.7975623 21.4254165,17.1969952 21.1561883,16.6584023 C20.5557535,15.5191196 19.9755789,14.2558698 19.4577869,13.054603 C19.0851305,12.2467849 18.8572204,11.438963 18.4015312,10.6933956 C16.268234,7.17236969 13.9484637,5.03906074 10.385989,2.94707826 C9.61962181,2.51217919 8.70837832,2.32572073 7.73488843,2.09794195 C7.21722201,2.07715099 6.6992913,2.03583293 6.18148895,2.01504196 C5.85015073,1.8700307 5.51868089,1.47658443 5.2286603,1.2901243 C4.04831851,0.544416202 1.00350274,-1.07096084 0.133577952,1.06234552 C-0.425670931,2.40862519 0.96205566,3.7341044 1.43839851,4.41770014 C1.79065905,4.89404974 2.24621661,5.4325061 2.49478635,5.97110075 C2.63979692,6.32296698 2.68111454,6.69601767 2.82612511,7.06880674 C3.1575944,7.97992131 3.46814193,8.99498505 3.90317148,9.84426262 C4.13108161,10.2791616 4.37951973,10.7348503 4.66953925,11.1282936 C4.83520782,11.3560721 5.12509626,11.4597634 5.18733674,11.8325519 C4.89744937,12.2467892 4.87665814,12.868149 4.71085687,13.3859514 C3.96528033,15.7263681 4.25529932,18.6260476 5.31155607,20.345106 C5.6428943,20.8627735 6.43004844,22.002193 7.48631329,21.5671645 C8.41835018,21.1943743 8.2112302,20.013765 8.48045957,18.9781679 C8.54270112,18.729467 8.50125026,18.5639306 8.6254696,18.3982599 C8.62557748,18.4189195 8.6254696,18.4397096 8.6254696,18.4397096 C8.91548858,19.0196176 9.20537756,19.5788702 9.47460585,20.1587686 C10.1167543,21.1735744 11.2351242,22.2299612 12.1671551,22.9342265 C12.6644263,23.3068819 13.0578733,23.949033 13.6792289,24.176942 L13.6792289,24.1147005 L13.6377792,24.1147005 C13.5134287,23.9282418 13.3271006,23.8454712 13.161431,23.7004633 C12.7886418,23.3276742 12.3742719,22.8719839 12.0843845,22.4577477 C11.2145887,21.297796 10.4480882,20.0137661 9.76462483,18.6881543 C9.43328661,18.0461375 9.14326763,17.3418731 8.87403826,16.6998585 C8.74968786,16.4511582 8.74968786,16.0785007 8.54256843,15.9542825 C8.23188982,16.4098389 7.77633227,16.8034187 7.54842215,17.3626687 C7.15510614,18.2532552 7.11352421,19.3509639 6.96851419,20.4901127 C6.88574408,20.5109045 6.92706333,20.4901127 6.88561301,20.531564 C6.22293604,20.3657629 5.9950259,19.6824279 5.74645185,19.1023871 C5.12509411,17.631896 5.02153494,15.2706767 5.56012365,13.572409 C5.70513369,13.1373795 6.32649143,11.770442 6.07792169,11.3562026 C5.95370236,10.9626223 5.53933243,10.7348449 5.31155392,10.4241663 C5.04232455,10.0305865 4.75230557,9.53357917 4.56597738,9.09855448 C4.06883789,7.93873585 3.82026923,6.65457274 3.28181374,5.49462088 C3.033244,4.95603173 2.59834606,4.39691473 2.24621661,3.89990551 C1.85276952,3.34065814 1.41773889,2.94707826 1.10705598,2.28426793 C1.00362734,2.05648915 0.858486237,1.68370137 1.02415589,1.43513055 C1.0656062,1.26946246 1.14837468,1.20735237 1.31417487,1.16590178 C1.58340423,0.937991606 2.349772,1.2280108 2.61899543,1.35223051 C3.3853632,1.6627768 4.02738164,1.95292961 4.66953008,2.38782754 C4.95941799,2.5949467 5.27009658,2.98852657 5.64288567,3.09208618 L6.07791468,3.09208618 C6.74072273,3.23696492 7.48630088,3.1335345 8.10765808,3.3198649 C9.20549569,3.67186286 10.1995077,4.18979218 11.0902345,4.74904181 C13.803575,6.46810107 16.0403039,8.91221604 17.5523885,11.832553 C17.8009582,12.3087702 17.9043863,12.7439298 18.1322964,13.2409393 C18.567326,14.2558768 19.1057831,15.2914733 19.5406821,16.2856212 C19.97558,17.2589763 20.3898183,18.2532574 21.0111739,19.0610771 C21.3219842,19.4958445 22.5645718,19.7237536 23.1238126,19.9516637 C23.5380514,20.137993 24.1802037,20.3037942 24.5529895,20.5315721 C25.2571192,20.9663385 25.9613781,21.4636107 26.6241839,21.9399579 C26.9556517,22.188397 27.9911193,22.7063267 28.0533608,23.1204345 L28.0533662,23.1204324 Z" id="Shape"></path>
                                <path d="M6.926963,5.12169814 C6.57483408,5.12169814 6.32639649,5.16328007 6.07782675,5.22539055 C6.07782675,5.22528267 6.07782675,5.24618125 6.07782675,5.26684087 L6.11927761,5.26684087 C6.28507833,5.59817898 6.57483517,5.82608911 6.78195405,6.11597593 C6.94775531,6.44731415 7.09263265,6.77878506 7.25843392,7.1102549 C7.27909245,7.08946367 7.29975208,7.06880458 7.29975208,7.06880458 C7.58990375,6.86155355 7.73478163,6.53021532 7.73478163,6.03320745 C7.61043068,5.88819742 7.58977106,5.74318793 7.48621188,5.5981779 C7.36199255,5.39092643 7.09263157,5.2874994 6.926963,5.12169814 Z" id="Shape"></path>
                            </g>
                        </g>
                    </g>
                </g>
            </g>
        </g>
    </g>
</svg>