<?xml version="1.0" encoding="UTF-8"?>
<svg width="31px" height="30px" viewBox="0 0 31 30" version="1.1" xmlns="http://www.w3.org/2000/svg" xmlns:xlink="http://www.w3.org/1999/xlink">
    <!-- Generator: Sketch 48.2 (47327) - http://www.bohemiancoding.com/sketch -->
    <title>netlify</title>
    <desc>Created with Sketch.</desc>
    <defs></defs>
    <g id="Skills" stroke="none" stroke-width="1" fill="none" fill-rule="evenodd" transform="translate(-681.000000, -754.000000)">
        <g id="Body" transform="translate(489.000000, 174.000000)" fill="#FFFFFF" fill-rule="nonzero">
            <g id="Daily-Skills" transform="translate(5.000000, 238.000000)">
                <g id="Skills" transform="translate(0.000000, 74.000000)">
                    <g id="The-rest" transform="translate(3.000000, 226.000000)">
                        <g id="Logos" transform="translate(0.000000, 42.000000)">
                            <g id="netlify" transform="translate(184.500000, 0.000000)">
                                <path d="M17.8709407,19.3399131 L10.5419546,17.8083717 C10.5106701,17.8681391 10.4770509,17.9260388 10.4396962,17.9806701 L17.111707,27.7134292 L17.5142036,27.3113995 L18.6493186,20.2527678 C18.2631648,20.0907419 17.9727322,19.7522153 17.8709407,19.3399131 Z M15.1972802,9.75937428 C14.9227234,10.1805482 14.4487861,10.4593074 13.9090111,10.4593074 C13.825897,10.4593074 13.7451175,10.4509026 13.6657388,10.4382954 L10.3234298,15.6679491 L19.2530635,11.8250875 C19.2502619,11.7891336 19.242324,11.7555145 19.242324,11.7186267 C19.242324,11.6434504 19.2525965,11.5706088 19.2647368,11.4987011 L15.1972802,9.75937428 Z M15.4400856,8.80636328 L19.7666902,10.6563533 C19.9035016,10.5494255 20.0594574,10.4700469 20.2308219,10.4219527 L20.9419614,6.00009375 L18.2328141,3.29094636 L15.1832722,8.06253843 C15.3294224,8.27826165 15.4200075,8.5322734 15.4400856,8.80636328 Z M24.5060638,9.56419613 L21.7908463,6.84851168 L21.2006426,10.5148725 C21.3509951,10.5909826 21.485005,10.6923071 21.597069,10.8165114 L24.5060638,9.56419613 Z M18.0007481,18.3742948 C18.212269,17.9918764 18.6026253,17.7275922 19.0616207,17.6921052 L19.8413995,12.8420684 C19.7802313,12.8014452 19.7256,12.7528841 19.6719027,12.7029222 L10.6909063,16.5681967 C10.7137861,16.6620502 10.7296618,16.7577716 10.7371327,16.8572283 L18.0007481,18.3742948 Z M25.2456863,10.3042855 L22.1041586,11.6560576 L29.8552525,14.9698837 L29.8832685,14.9418677 L25.2456863,10.3042855 Z M19.6317465,20.2672428 L18.6876071,26.1370621 L24.1698718,20.6547975 L20.2210164,19.8301931 C20.0701968,20.0267721 19.8680147,20.1789923 19.6317465,20.2672428 Z M8.9758601,18.7581141 C8.77741341,18.7581141 8.58737154,18.7240279 8.40946991,18.6637935 L6.58842979,21.5134879 L5.88476121,20.8102863 L7.60961307,18.1114114 C7.56665519,18.0586479 7.52743279,18.0030829 7.49054505,17.946117 L4.36582697,19.291352 L3.62527066,18.5507957 L7.04555756,17.0785548 L0.861958994,15.7879509 L0.0163426679,14.9418677 L0.283895486,14.6743149 L7.41443492,16.1628984 C7.49708212,16.0069428 7.60214213,15.8635941 7.72587947,15.7407907 L4.26496937,10.6927741 L4.96396861,9.99377483 L8.5799006,15.2682542 C8.7073734,15.2393043 8.83951555,15.2220278 8.9758601,15.2220278 C9.1285473,15.2220278 9.27656518,15.2435066 9.41804598,15.2799274 L12.8014452,9.98583696 C12.536227,9.7094124 12.3723334,9.33493185 12.3723334,8.92169582 C12.3723334,8.80029315 12.3877422,8.68262594 12.4143574,8.56962807 L8.19327977,6.7649306 L8.93383609,6.02437429 L12.9331204,7.7347512 C13.1988055,7.51622639 13.5387329,7.38501811 13.9094781,7.38501811 C14.084578,7.38501811 14.2526741,7.41583571 14.4100306,7.46999999 L17.5296124,2.58774472 L14.9418677,0 L0,14.9418677 L14.9418677,29.8837354 L16.4122409,28.4133622 L9.69026814,18.6068277 C9.4712764,18.703483 9.22987185,18.7581141 8.9758601,18.7581141 Z M20.7925428,13.0512545 L19.999223,17.9816039 C20.2723791,18.2019964 20.454483,18.5246475 20.4890361,18.8935248 L24.9916745,19.8334617 L29.1146961,15.71044 L21.6727122,12.5287561 C21.463993,12.8061145 21.1520814,12.9984911 20.7925428,13.0512545 Z" id="Shape"></path>
                            </g>
                        </g>
                    </g>
                </g>
            </g>
        </g>
    </g>
</svg>