<?xml version="1.0" encoding="UTF-8"?>
<svg width="27px" height="30px" viewBox="0 0 27 30" version="1.1" xmlns="http://www.w3.org/2000/svg" xmlns:xlink="http://www.w3.org/1999/xlink">
    <!-- Generator: Sketch 48.2 (47327) - http://www.bohemiancoding.com/sketch -->
    <title>nodejs-icon</title>
    <desc>Created with Sketch.</desc>
    <defs></defs>
    <g id="Skills" stroke="none" stroke-width="1" fill="none" fill-rule="evenodd" transform="translate(-556.000000, -642.000000)">
        <g id="Body" transform="translate(489.000000, 174.000000)" fill="#F2F2F8" fill-rule="nonzero">
            <g id="Daily-Skills" transform="translate(5.000000, 238.000000)">
                <g id="Skills" transform="translate(0.000000, 74.000000)">
                    <g id="Languages" transform="translate(3.000000, 114.000000)">
                        <g id="Logos" transform="translate(0.000000, 42.000000)">
                            <g id="nodejs-icon" transform="translate(59.268293, 0.000000)">
                                <path d="M12.0917488,0.371562013 C12.8143228,-0.0420342501 13.7554748,-0.043902439 14.4774261,0.371562013 C18.1094966,2.4238713 21.7427089,4.47296316 25.3741567,6.5265179 C26.0571873,6.91126103 26.5140633,7.67140633 26.5071095,8.4584328 L26.5071095,20.8059159 C26.5121951,21.6255319 26.0101713,22.4038402 25.2895693,22.7798651 C21.6694344,24.8208614 18.0511676,26.8643487 14.4316554,28.9053451 C13.694136,29.3270368 12.7340944,29.2945511 12.019616,28.8382979 C10.934302,28.2091334 9.84711988,27.5830825 8.76170213,26.9545407 C8.53990659,26.8223145 8.28988064,26.7170732 8.13326414,26.5020239 C8.2717177,26.3154126 8.51925272,26.292164 8.7203944,26.2106902 C9.1734302,26.0666321 9.58951738,25.8353918 10.0057084,25.6110016 C10.1109497,25.5389725 10.2394395,25.5665802 10.3403217,25.6310327 C11.2683965,26.1631552 12.1882719,26.7107421 13.1194603,27.2377789 C13.3181111,27.352465 13.5192527,27.2002076 13.6890503,27.1055527 C17.2415153,25.0977686 20.7983394,23.097561 24.3501816,21.0891541 C24.4817852,21.0258433 24.5545407,20.8861443 24.5438505,20.7419824 C24.5463415,16.6688116 24.5444733,12.5949144 24.545096,8.52174364 C24.5601453,8.35817333 24.4654904,8.20778412 24.3175921,8.14084069 C20.7100156,6.10918526 17.1043072,4.07441619 13.4973534,2.04224183 C13.3694378,1.9543013 13.2006171,1.95405388 13.0724442,2.0416191 C9.4654904,4.07441619 5.86040477,6.11105345 2.25345096,8.14260509 C2.10607161,8.20965231 2.00716139,8.3575506 2.02470161,8.52174364 C2.02532434,12.5949144 2.02470161,16.6688116 2.02470161,20.7426051 C2.01189172,20.8866694 2.09016825,21.0234669 2.22086144,21.0854177 C3.18339388,21.6312403 4.14717177,22.1732226 5.11032693,22.717177 C5.65293202,23.0092372 6.31914894,23.1827711 6.91696938,22.9590036 C7.44452517,22.7697976 7.81432278,22.2314478 7.80425532,21.6713025 C7.80923716,17.6218993 7.8017644,13.5718734 7.8079917,9.52309289 C7.79481059,9.3433316 7.96533472,9.19481059 8.14011417,9.21172807 C8.60259471,9.20861443 9.06569798,9.20550078 9.52817852,9.21297353 C9.7212247,9.20861443 9.85407369,9.40217955 9.83020239,9.58329009 C9.8283342,13.658329 9.83518422,17.7334717 9.82708874,21.8085106 C9.8283342,22.8945511 9.38214842,24.0762844 8.37758173,24.6076803 C7.14001038,25.2487805 5.61037883,25.1128179 4.38775298,24.4980799 C3.32932019,23.9697976 2.31925272,23.3463415 1.2796056,22.780384 C0.557135444,22.4064349 0.0576024909,21.625013 0.0626881162,20.8060197 L0.0626881162,8.4584328 C0.0551115724,7.65511157 0.530150493,6.88116243 1.23445771,6.50202387 C4.8539699,4.45936689 8.47285937,2.41515309 12.0917488,0.371562013 Z" id="Shape"></path>
                                <path d="M15.2494032,8.9247535 C16.8280228,8.82314478 18.5180073,8.86455631 19.9385573,9.64224183 C21.0384017,10.2381941 21.6481578,11.4889465 21.6675662,12.7108459 C21.6368448,12.8756617 21.4645563,12.9665802 21.3072133,12.9552673 C20.8491956,12.9546445 20.3910742,12.9614946 19.9330566,12.9521536 C19.7387649,12.9596264 19.6258433,12.7804878 19.601453,12.6087182 C19.4698495,12.0240789 19.1510119,11.4450441 18.6007265,11.1630514 C17.7559938,10.7401142 16.7765439,10.7613908 15.8554229,10.7702128 C15.1829787,10.8059159 14.4598858,10.8641412 13.890192,11.2595745 C13.4528282,11.5591074 13.3199792,12.1637779 13.4760768,12.6507525 C13.6232486,13.0004152 14.0268812,13.113233 14.3571354,13.2172289 C16.2595745,13.7147898 18.2755579,13.6652828 20.141671,14.320083 C20.9142709,14.5870265 21.6700571,15.1059678 21.9345096,15.9148936 C22.2804359,16.9990659 22.1288012,18.2949663 21.3574468,19.1653347 C20.7319149,19.8815776 19.8208614,20.2714063 18.9121951,20.4831344 C17.7033731,20.7526725 16.4488843,20.7595226 15.2212766,20.6398547 C14.0669434,20.5082512 12.865698,20.2049818 11.9745719,19.4184743 C11.2125584,18.7568241 10.8403736,17.7258952 10.8773223,16.730877 C10.8861443,16.5628438 11.053451,16.4456668 11.2144266,16.4594707 C11.6756617,16.4557343 12.1368967,16.4544888 12.5981318,16.4600934 C12.782356,16.4469123 12.9189414,16.6061235 12.9283861,16.7797613 C13.0134925,17.3367929 13.2228334,17.9214323 13.7085625,18.2516866 C14.6459782,18.8564608 15.8222107,18.8150493 16.895589,18.8319668 C17.7848469,18.7925272 18.7830825,18.7805916 19.5087701,18.1928386 C19.891645,17.8576025 20.0050856,17.2967307 19.9016087,16.814219 C19.7895174,16.40685 19.3633627,16.2170213 18.9974053,16.0928905 C17.1193565,15.4988064 15.0808511,15.7143747 13.2209652,15.0425532 C12.4659056,14.7757135 11.7357551,14.2711988 11.4456668,13.4954852 C11.0408926,12.3976129 11.2263622,11.0396471 12.0785677,10.1986508 C12.9094966,9.36211728 14.1089777,9.03995848 15.2494032,8.92464971 L15.2494032,8.9247535 Z" id="Shape"></path>
                            </g>
                        </g>
                    </g>
                </g>
            </g>
        </g>
    </g>
</svg>