<?xml version="1.0" encoding="UTF-8"?>
<svg width="44px" height="30px" viewBox="0 0 44 30" version="1.1" xmlns="http://www.w3.org/2000/svg" xmlns:xlink="http://www.w3.org/1999/xlink">
    <!-- Generator: Sketch 48.2 (47327) - http://www.bohemiancoding.com/sketch -->
    <title>phoenix</title>
    <desc>Created with Sketch.</desc>
    <defs></defs>
    <g id="Skills" stroke="none" stroke-width="1" fill="none" fill-rule="evenodd" transform="translate(-497.000000, -1000.000000)">
        <g id="Body" transform="translate(489.000000, 174.000000)" fill="#F2F2F8" fill-rule="nonzero">
            <g id="Occasionally" transform="translate(8.000000, 710.000000)">
                <g id="Skills" transform="translate(0.000000, 74.000000)">
                    <g id="Tooling">
                        <g id="Logos" transform="translate(0.000000, 42.000000)">
                            <g id="phoenix">
                                <path d="M16.4802857,20.9208079 C16.2869143,20.8860079 16.2111429,20.8728079 16.1353714,20.8587507 C13.686,20.403265 12.1376571,18.9210936 11.4039429,16.5910365 C10.9465714,15.1386937 11.7776571,14.0691508 13.3009714,13.9986937 C14.5482857,13.9409222 15.402,14.6578365 16.1569714,15.4920079 C17.1301714,16.5675508 18.0222857,17.7159507 18.9781714,18.8076079 C20.3544,20.3790936 21.9759429,21.3910365 24.1945714,21.0786936 C26.184,20.7985793 27.9176571,20.0002365 29.4262286,18.6862365 C29.6530286,18.4887507 29.9017714,18.3166365 30.1405714,18.1326936 C30.0903429,18.0735507 30.0402857,18.0144079 29.9900571,17.955265 C28.7237143,18.3485222 27.4321714,18.4806936 26.1125143,18.4143507 C24.1157143,18.3138936 22.2130286,17.8969793 20.5105714,16.8006937 C18.9570857,15.8002365 17.8114286,14.4596651 17.2668,12.6690937 C16.8269143,11.2225794 17.7272571,10.2106365 19.2262286,10.4197794 C19.8188571,10.5024079 20.3177143,10.7693222 20.7654857,11.1478365 C21.1301143,11.4557222 21.4798286,11.7821222 21.8516571,12.0807508 C23.6012571,13.4866365 26.046,13.5648079 28.2668571,12.0384079 C24.6157714,12.0217794 22.1317714,10.0134937 19.95,7.46829365 C19.0961143,6.47212222 18.2624571,5.45812222 17.3909143,4.47772222 C15.7045714,2.58052222 13.8337714,0.909093651 11.2721143,0.338922223 C7.99988571,-0.389477777 4.8408,0.086579365 1.80857143,1.47532222 C1.20394286,1.75217937 0.623314286,2.07412222 0,2.59286508 C0.308571429,2.59286508 0.476914286,2.59663651 0.644914286,2.59235079 C2.17371429,2.55292222 3.31937143,3.23229365 4.14565714,4.48286508 C4.74702857,5.39297937 5.0304,6.42223651 5.2464,7.48115079 C5.56697143,9.05263651 5.40102857,10.6548079 5.58617143,12.2334937 C6.06205714,16.2920651 8.13634286,19.1242365 11.9986286,20.5745222 C13.4149714,21.106465 14.8676571,21.2835507 16.4802857,20.9208079 Z M6.71931429,2.40703651 C6.10902857,2.56097937 5.62131429,2.31463651 5.11868571,1.80600794 C5.97942857,1.59155079 6.73851429,1.50840794 7.55417143,1.47635079 C7.48748571,2.00589365 7.17514286,2.29217937 6.71931429,2.40703651 Z M26.7178286,26.1072079 C26.6646857,25.7165222 26.3309143,25.5444079 26.0684571,25.340065 C24.9075429,24.436465 23.5498286,24.1165793 22.1103429,24.0900079 C21.2513143,24.0742365 20.4012,24.0101222 19.5910286,23.7089222 C19.2197143,23.5709222 18.8043429,23.393665 18.8137714,22.9138365 C18.8232,22.4269793 19.2468,22.2893222 19.6323429,22.1741222 C19.9479429,22.0798365 20.2736571,22.019665 20.6329714,21.935665 C19.7202857,21.3507507 18.8286857,21.269665 17.6406857,21.7474365 C15.7705714,22.4993222 13.9268571,22.4101793 12.0625714,21.7369793 C11.01,21.3570936 10.0758857,20.7606936 9.10337143,20.2325222 L9.0768,20.250865 C9.08948571,20.2421222 9.10285714,20.232865 9.102,20.2333793 C9.078,20.1600079 9.03445714,20.1581222 8.97857143,20.1990936 C9.00411429,20.2213793 9.02948571,20.243665 9.05485714,20.2659507 C9.86142857,21.5878365 10.9510286,22.6513793 12.1818857,23.5602936 C14.5524,25.3105793 17.1416571,26.3544079 20.1713143,25.8912079 C21.1498286,25.7415507 22.1357143,25.6254936 23.1226286,25.5459507 C24.36,25.4460079 25.5389143,25.7941793 26.7178286,26.1072079 Z M21.006,7.14395079 C20.9405143,7.09646508 20.8776,6.97732222 20.7438857,7.10057937 C21.8338286,8.57486508 23.2340571,9.66172222 24.9200571,10.3458937 C27.6411429,11.4500651 30.4028571,11.6389794 33.2274857,10.6645794 C35.4204,9.90823651 36.9973714,10.6472651 37.8162857,12.7764079 C37.9347429,10.3050937 36.4808571,8.50440794 34.1650286,8.15143651 C32.8621714,7.95292222 31.6592571,8.38509365 30.4388571,8.73909365 C27.0426857,9.72377937 23.8866857,9.23760794 21.006,7.14395079 Z M37.9323429,16.7830365 C38.3749714,16.8202365 38.8172571,16.8603508 39.2597143,16.8990937 C38.2599429,16.0208651 37.0414286,15.9512651 35.8086857,16.0213794 C33.9315429,16.1280079 32.5791429,17.2105793 31.3462286,18.5040079 C30.2598857,19.6440079 29.2782857,20.922865 27.6570857,21.3809222 C27.6841714,21.4296079 27.6912,21.4539507 27.6987429,21.4539507 C27.9168,21.4572079 28.1353714,21.4674936 28.3529143,21.4575507 C30.7074857,21.3509222 32.9256,20.8542936 34.6901143,19.1454936 C35.2457143,18.6073793 35.7430286,18.0096079 36.2794286,17.4510936 C36.7268571,16.9853222 37.2694286,16.7271508 37.9323429,16.7830365 Z M32.4625714,13.8649794 C30.7054286,14.0185794 29.1790286,14.7454365 27.7453714,15.7038937 C26.6418857,16.4415508 25.4617714,16.7905794 24.1356,16.5598365 C23.9022857,16.5192079 23.6672571,16.4888651 23.4330857,16.4537222 C23.4303429,16.4864651 23.4277714,16.5190365 23.4250286,16.5517794 C23.5093714,16.5951508 23.5908,16.6458937 23.6785714,16.6806937 C23.8995429,16.7681222 24.1172571,16.8733794 24.3466286,16.9278937 C26.8985143,17.5345793 29.3413714,17.2237793 31.5438857,15.8010937 C32.9321143,14.9043508 34.3692,14.7344651 35.9268,14.9660651 C36.0841714,14.9895508 36.2408571,15.0181794 36.3989143,15.0329222 C36.5453143,15.0468079 36.6982286,15.1923508 36.8958857,15.0348079 C35.5342286,14.0511508 34.0674857,13.7247508 32.4625714,13.8649794 Z M26.1824571,7.90046508 C27.1042286,7.93235079 28.0218857,7.81166508 28.986,7.23892222 C28.7036571,7.26395079 28.5838286,7.26343651 28.4689714,7.28640794 C27.1407429,7.55109365 25.9484571,7.26137937 24.8864571,6.42172222 C24.4968,6.11349365 24.1006286,5.81349365 23.706,5.51160794 C22.1415429,4.31503651 20.3475429,3.91475079 18.3852,3.94869365 C18.4169143,4.04520794 18.4188,4.11137937 18.4529143,4.14566508 C20.5880571,6.30532222 23.0592,7.79280794 26.1824571,7.90046508 Z M41.6353714,18.981265 C40.314,17.6706936 38.5407429,17.5018365 36.8998286,18.6456079 C37.986,18.694465 38.8013143,19.0409222 39.4625143,19.7256079 C39.6965143,19.9678365 39.9390857,20.2056079 40.2008571,20.4168079 C41.2006286,21.2232079 42.8955429,21.2619507 43.8857143,20.5138365 C42.7225714,20.0598936 42.7225714,20.0598936 41.6353714,18.981265 Z M28.4753143,29.0175507 C27.3140571,26.8560079 25.3623429,26.3682936 23.1077143,26.5133222 C23.7742286,26.6981222 24.3966857,26.9825222 24.9678857,27.381265 C25.4926286,27.7476079 25.9342286,28.2012079 26.3694857,28.6657793 C27.2319429,29.5861793 28.578,30.1510365 29.4699429,29.960065 C29.0604,29.7018936 28.6966286,29.4293222 28.4753143,29.0175507 Z M39.2806286,16.9436651 C39.2809714,16.9299508 39.2813143,16.9160651 39.2821714,16.9016651 C39.2821714,16.9014937 39.2804571,16.9033794 39.2787429,16.9052651 L39.2825143,16.9011508 C39.2749714,16.9004651 39.2672571,16.8997794 39.2597143,16.8990937 C39.2641714,16.9032079 39.2689714,16.9064651 39.2734286,16.9105794 C39.2758286,16.9215508 39.2782286,16.9326937 39.2806286,16.9436651 Z M26.7822857,26.1581222 C26.7670286,26.1493793 26.7517714,26.1408079 26.7365143,26.1322365 C26.7385714,26.1420079 26.7409714,26.1516079 26.7461143,26.1594936 C26.7492,26.1646365 26.7697714,26.1588079 26.7822857,26.1581222 Z M26.7365143,26.1322365 C26.7351429,26.1252079 26.7339429,26.1180079 26.7320571,26.1109793 C26.7320571,26.1109793 26.7294857,26.1142365 26.7267429,26.1174936 L26.7320571,26.1111507 C26.7274286,26.1097793 26.7226286,26.1085793 26.7178286,26.1072079 C26.7186857,26.1130365 26.7207429,26.1178365 26.7214286,26.1238365 C26.7265714,26.1265793 26.7315429,26.1294936 26.7365143,26.1322365 Z" id="Shape"></path>
                            </g>
                        </g>
                    </g>
                </g>
            </g>
        </g>
    </g>
</svg>