<?xml version="1.0" encoding="UTF-8"?>
<svg width="31px" height="30px" viewBox="0 0 31 30" version="1.1" xmlns="http://www.w3.org/2000/svg" xmlns:xlink="http://www.w3.org/1999/xlink">
    <!-- Generator: Sketch 48.2 (47327) - http://www.bohemiancoding.com/sketch -->
    <title>python</title>
    <desc>Created with Sketch.</desc>
    <defs></defs>
    <g id="Skills" stroke="none" stroke-width="1" fill="none" fill-rule="evenodd" transform="translate(-497.000000, -1586.000000)">
        <g id="Body" transform="translate(489.000000, 174.000000)" fill="#F2F2F8" fill-rule="nonzero">
            <g id="Previously" transform="translate(8.000000, 1182.000000)">
                <g id="Skills" transform="translate(0.000000, 74.000000)">
                    <g id="Languages" transform="translate(0.000000, 114.000000)">
                        <g id="Logos" transform="translate(0.000000, 42.000000)">
                            <g id="python">
                                <path d="M14.9312784,0.00850300578 C7.30395095,0.0085035498 7.78025045,3.31617233 7.78025045,3.31617233 L7.78875345,6.74288371 L15.0673266,6.74288371 L15.0673266,7.77174744 L4.89773142,7.77174744 C4.89773142,7.77174744 0.0170060115,7.21822868 0.0170060115,14.9142724 C0.0170054675,22.6103145 4.27701199,22.3373966 4.27701199,22.3373966 L6.81941076,22.3373966 L6.81941076,18.7661341 C6.81941076,18.7661341 6.68236898,14.5061281 11.0113927,14.5061281 L18.2304447,14.5061281 C18.2304447,14.5061281 22.2863786,14.5716925 22.2863786,10.5862424 L22.2863786,3.9964128 C22.2863786,3.99641225 22.9021813,0.00850300578 14.9312784,0.00850300578 Z M10.9178596,2.31281761 C11.6420243,2.31281708 12.2273226,2.89811584 12.2273226,3.62228053 C12.2273231,4.34644522 11.6420243,4.93174345 10.9178596,4.93174345 C10.1936949,4.93174399 9.60839672,4.34644522 9.60839672,3.62228053 C9.60839616,2.89811584 10.1936949,2.31281761 10.9178596,2.31281761 Z" id="Shape"></path>
                                <path d="M15.1478942,29.8972084 C22.7752239,29.8972084 22.2989222,26.5895389 22.2989222,26.5895389 L22.2904193,23.1628276 L15.0118461,23.1628276 L15.0118461,22.1339639 L25.1814413,22.1339639 C25.1814413,22.1339639 30.0621667,22.6874811 30.0621667,14.9914362 C30.0621694,7.29539489 25.8021607,7.56831281 25.8021607,7.56831281 L23.2597619,7.56831281 L23.2597619,11.1395745 C23.2597619,11.1395745 23.3968059,15.3995805 19.06778,15.3995805 L11.8487273,15.3995805 C11.8487273,15.3995805 7.79279353,15.3340162 7.79279353,19.3194689 L7.79279353,25.9092986 C7.79279353,25.9092986 7.17699088,29.8972084 15.1478942,29.8972084 Z M19.1613129,27.5928938 C18.4371481,27.5928938 17.8518501,27.0075958 17.8518501,26.2834308 C17.8518501,25.5592658 18.4371481,24.9739679 19.1613129,24.9739679 C19.885478,24.9739679 20.4707759,25.5592658 20.4707759,26.2834308 C20.4707786,27.0075958 19.885478,27.5928938 19.1613129,27.5928938 Z" id="Shape"></path>
                            </g>
                        </g>
                    </g>
                </g>
            </g>
        </g>
    </g>
</svg>