<?xml version="1.0" encoding="UTF-8"?>
<svg width="32px" height="30px" viewBox="0 0 32 30" version="1.1" xmlns="http://www.w3.org/2000/svg" xmlns:xlink="http://www.w3.org/1999/xlink">
    <!-- Generator: Sketch 48.2 (47327) - http://www.bohemiancoding.com/sketch -->
    <title>rails</title>
    <desc>Created with Sketch.</desc>
    <defs></defs>
    <g id="Skills" stroke="none" stroke-width="1" fill="none" fill-rule="evenodd" transform="translate(-570.000000, -1000.000000)">
        <g id="Body" transform="translate(489.000000, 174.000000)" fill="#F2F2F8" fill-rule="nonzero">
            <g id="Occasionally" transform="translate(8.000000, 710.000000)">
                <g id="Skills" transform="translate(0.000000, 74.000000)">
                    <g id="Tooling">
                        <g id="Logos" transform="translate(0.000000, 42.000000)">
                            <g id="rails" transform="translate(73.885714, 0.000000)">
                                <g id="Group">
                                    <path d="M3.52941176,30 C5,1.76470588 21.9117647,-2.5 30.2941176,5.88235294 L29.8529412,6.91176471 C16.4705882,-0.294117647 12.3529412,20 18.2352941,30 L3.52941176,30 Z" id="Shape"></path>
                                    <path d="M26.4705882,6.02941176 L26.4705882,6.91176471 L27.9411765,7.05882353 L27.9411765,6.32352941 L26.4705882,6.02941176 Z M26.6176471,1.76470588 L26.6176471,2.64705882 L28.2352941,3.67647059 L28.2352941,2.94117647 L26.6176471,1.76470588 Z M21.7647059,6.76470588 L23.0882353,6.32352941 L23.5294118,7.64705882 L22.3529412,8.08823529 L21.7647059,6.76470588 Z M19.1176471,0 L21.1764706,0 L21.6176471,1.47058824 L19.7058824,1.47058824 L19.1176471,0 Z M19.4117647,8.67647059 L20.4411765,10.2941176 L19.7058824,11.3235294 L18.5294118,9.70588235 L19.4117647,8.67647059 Z M14.4117647,0.882352941 L15.5882353,2.64705882 L13.9705882,3.67647059 L12.6470588,1.91176471 L14.4117647,0.882352941 Z M17.0588235,13.2352941 L16.6176471,14.8529412 L18.2352941,16.0294118 L18.5294118,14.5588235 L17.0588235,13.2352941 Z M8.08823529,5.44117647 L10,7.05882353 L8.67647059,8.97058824 L6.76470588,7.5 L8.08823529,5.44117647 Z M16.1764706,18.5294118 L16.1764706,20.2941176 L18.3823529,21.0294118 L18.2352941,19.4117647 L16.1764706,18.5294118 Z M3.38235294,13.0882353 L5.73529412,14.1176471 L5,16.3235294 L2.5,15.4411765 L3.38235294,13.0882353 Z M17.0588235,25.1470588 L17.6470588,27.0588235 L20.2941176,27.3529412 L19.7058824,25.5882353 L17.0588235,25.1470588 Z M0.588235294,22.3529412 L3.23529412,22.7941176 L2.94117647,25.5882353 L0,25.2941176 L0.588235294,22.3529412 Z" id="Shape"></path>
                                </g>
                            </g>
                        </g>
                    </g>
                </g>
            </g>
        </g>
    </g>
</svg>