<?xml version="1.0" encoding="UTF-8"?>
<svg width="32px" height="29px" viewBox="0 0 32 29" version="1.1" xmlns="http://www.w3.org/2000/svg" xmlns:xlink="http://www.w3.org/1999/xlink">
    <!-- Generator: Sketch 48.2 (47327) - http://www.bohemiancoding.com/sketch -->
    <title>Combined Shape</title>
    <desc>Created with Sketch.</desc>
    <defs></defs>
    <g id="Skills" stroke="none" stroke-width="1" fill="none" fill-rule="evenodd" transform="translate(-498.000000, -530.000000)">
        <g id="Body" transform="translate(486.000000, 174.000000)" fill="#F2F2F8" fill-rule="nonzero">
            <g id="Daily-Skills" transform="translate(0.000000, 238.000000)">
                <g id="Skills" transform="translate(0.000000, 74.000000)">
                    <g id="Tooling" transform="translate(8.000000, 0.000000)">
                        <g id="Logos" transform="translate(0.000000, 38.000000)">
                            <g id="react">
                                <path d="M29.9478778,15.1007278 C33.3563459,16.2740822 35.5589168,18.1121185 35.5589168,20.0125867 C35.5589168,21.9946212 33.205085,23.9325205 29.5871143,25.1311548 C29.3959082,25.1945643 29.1999534,25.2554597 29.0002276,25.3143998 C29.0714585,25.6009994 29.1350076,25.8824312 29.1894783,26.157997 C29.9037426,29.7657719 29.3537284,32.731072 27.6609472,33.7109857 C26.0219383,34.6597532 23.3729871,33.7277459 20.6907948,31.4197253 C20.3992528,31.168245 20.1147774,30.9086868 19.8377001,30.6413532 C19.6177224,30.8540682 19.398024,31.0570064 19.1791635,31.2483521 C16.4100975,33.6688058 13.5664485,34.6730217 11.872131,33.6960411 C10.2317254,32.7497876 9.7162093,29.9895207 10.3762822,26.5131738 C10.4484076,26.1353694 10.531077,25.7596543 10.6241937,25.3864687 C10.3375635,25.3046502 10.0530171,25.2157004 9.77081965,25.119702 C6.29056204,23.9302858 4,21.9685032 4,20.0125867 C4,18.1189623 6.13385407,16.2932167 9.47500194,15.1283821 C9.84847529,14.9982112 10.2388485,14.8758616 10.6430489,14.7610542 C10.5564591,14.4146599 10.4786853,14.0661213 10.4098027,13.7157758 C9.71746631,10.1779748 10.2046297,7.35066701 11.849365,6.39854741 C13.5646329,5.40564463 16.421271,6.47187333 19.271205,9.0023857 C19.4484786,9.16013403 19.6228147,9.32115278 19.7941236,9.48535909 C20.0499334,9.2384103 20.3119419,8.99796424 20.5798981,8.76425105 C23.2992422,6.39784907 25.9917699,5.40787933 27.6380415,6.35734523 C29.3551251,7.34731497 29.8579314,10.3546553 29.0889171,14.0877128 C29.040865,14.319626 28.988527,14.5506306 28.9319298,14.7806078 C29.273214,14.8787646 29.6119709,14.9855052 29.9478778,15.1007278 Z M29.163081,23.8515128 L29.1632207,23.8515128 C32.2869048,22.8164301 34.2108372,21.2325903 34.2108372,20.0125867 C34.2108372,18.8673057 32.4295062,17.3808147 29.5090397,16.3756211 C29.2070765,16.2715681 28.8936606,16.1731019 28.5708869,16.0795241 C28.1826087,17.3358415 27.6644389,18.6631104 27.0349533,20.0192908 C27.6944676,21.4082932 28.2335877,22.752881 28.6330393,24.0172992 C28.8134909,23.9638062 28.9905905,23.9086372 29.163081,23.8515128 Z M27.8669581,26.4198753 C27.8176551,26.1708465 27.7603911,25.916231 27.6961436,25.6564477 C26.3889869,25.9585505 24.9476088,26.179925 23.421871,26.3152637 C22.5545302,27.5708827 21.66582,28.7016382 20.7765512,29.6742891 C21.0422006,29.9298823 21.3071515,30.1715086 21.5701472,30.3977715 C23.8637819,32.3715655 25.9907922,33.1199089 26.985371,32.5441957 C27.4527015,32.273658 27.8306443,31.5982215 28.018638,30.5850668 C28.2278613,29.4575237 28.1827484,28.015168 27.8669581,26.4198753 Z M14.7590772,32.4447518 L14.7592168,32.4447518 C15.8405297,32.0627587 17.0675167,31.3035212 18.2919898,30.2331024 C18.4969272,30.0535164 18.6974122,29.8689119 18.8932623,29.6794568 C17.9717301,28.6904647 17.057321,27.5611059 16.1842537,26.3324429 C14.6548845,26.2084173 13.2239816,26.0026857 11.9313504,25.7167845 C11.8448609,26.063851 11.7680138,26.4132495 11.7008975,26.7645769 C11.1364974,29.7374192 11.5501953,31.953957 12.5457518,32.5279942 C13.0135013,32.7976939 13.787404,32.7879171 14.7590772,32.4447518 Z M10.2068644,23.8439707 C10.4645172,23.9316289 10.7242858,24.0129404 10.9859349,24.0878317 C11.3845485,22.7882171 11.9099811,21.4237964 12.5432377,20.0454088 C11.9180819,18.6872731 11.4000517,17.3442216 11.0050694,16.0596911 C10.6397448,16.1629901 10.2775226,16.2769617 9.91886817,16.4014598 C7.06139203,17.3977146 5.34807956,18.8635346 5.34807956,20.0125867 C5.34807956,20.5526844 5.74334118,21.2182044 6.52604299,21.8886128 C7.3971549,22.6344422 8.66799783,23.3179794 10.2068644,23.8439707 Z M11.7328816,13.4568305 L11.7328816,13.4566909 C11.7970023,13.7825856 11.8693269,14.1068124 11.9497866,14.4290624 C13.2559657,14.133105 14.6768125,13.9121496 16.1610687,13.7745762 C17.0265939,12.5530362 17.9326229,11.4321972 18.8494064,10.4476745 C18.6911621,10.2964136 18.5331971,10.1501808 18.3759305,10.0105123 C15.9152523,7.82567929 13.5806947,6.95414837 12.5248015,7.56533736 C11.5335747,8.13909522 11.1397098,10.4256069 11.7328816,13.4568305 Z M25.3459431,16.8182303 C25.6594594,17.3595397 25.9621347,17.9070559 26.2537879,18.4604516 C26.6529602,17.5260698 26.9919354,16.6145938 27.2638698,15.7429232 C26.3579805,15.5360742 25.3932907,15.3670755 24.3862815,15.2399772 C24.7174649,15.7591092 25.0374264,16.2853157 25.3459431,16.8182303 Z M19.7945426,11.4111072 C19.162962,12.0925494 18.5348731,12.8436862 17.9217288,13.6522266 C19.1643834,13.5940656 20.4090851,13.5943453 21.6517135,13.6530646 C21.0391278,12.8369821 20.4163464,12.084728 19.7945426,11.4111072 Z M14.2075266,16.8274484 C14.5175313,16.2899537 14.8401146,15.7598125 15.1750097,15.2374632 C14.1745648,15.3624664 13.2143445,15.5271355 12.3139022,15.728677 C12.588211,16.6127781 12.9241135,17.5283045 13.3167214,18.4594739 C13.6009197,17.9086095 13.8979356,17.3644528 14.2075266,16.8274484 Z M15.2037814,24.8839417 C14.860679,24.3516552 14.5303158,23.8112642 14.2129736,23.2632294 C13.9019752,22.7259839 13.6036541,22.181499 13.3182578,21.6302263 C12.9172697,22.5813682 12.5739648,23.5165879 12.2953263,24.4163319 C13.1954892,24.6122866 14.1702351,24.7685756 15.2037814,24.8839417 Z M19.8318341,28.70932 C20.4494478,28.0292745 21.0699946,27.2655676 21.6845356,26.4303504 C21.0586814,26.4582841 20.4227711,26.47267 19.7794584,26.47267 C19.1533249,26.47267 18.5372475,26.4606585 17.9330419,26.4369148 C18.5555441,27.2571875 19.192851,28.019777 19.8318341,28.70932 Z M26.2666374,21.5817613 C25.9739985,22.1458528 25.6688405,22.703361 25.3513902,23.2538716 C25.0391115,23.7955461 24.7160877,24.3309545 24.3825104,24.8597791 C25.4234591,24.7349155 26.4113338,24.5667547 27.3264413,24.3579505 C27.0440318,23.4734304 26.688436,22.5432387 26.2666374,21.5817613 Z M24.1834829,22.5803905 L24.1836226,22.5803905 C24.6658189,21.745247 25.1181191,20.8931951 25.5396632,20.0258552 C25.1137378,19.1672629 24.6599945,18.3227535 24.1791532,17.4936668 C23.7010131,16.6667469 23.1938408,15.8569577 22.6585831,15.0658107 C21.7202907,14.9943005 20.7567183,14.9568693 19.7795981,14.9568693 C18.8068075,14.9568693 17.8444922,14.9940211 16.9059204,15.0649727 C16.3651934,15.857339 15.8547564,16.6699569 15.3757132,17.5010692 L15.3757132,17.5007899 C14.8965197,18.3317252 14.4487521,19.1803919 14.0333601,20.0449897 C14.4498113,20.9093287 14.8989361,21.7575409 15.3797636,22.5877929 C15.8628491,23.4224734 16.3773364,24.2385808 16.9221219,25.0343646 C17.8421178,25.094003 18.7974498,25.1245904 19.7794584,25.1245904 C20.7655174,25.1245904 21.7331402,25.0900923 22.6694773,25.0231911 C23.2004905,24.2255502 23.7054259,23.4108528 24.1834829,22.5803905 Z M26.9647001,7.52525253 C25.9724957,6.95303102 23.7949254,7.75361039 21.4649769,9.78131647 C21.2175958,9.99715877 20.9756155,10.2191138 20.7392598,10.4469761 C21.6412384,11.418789 22.5397253,12.5415834 23.4069265,13.7763919 C24.8955125,13.9160603 26.317337,14.1409264 27.6265887,14.4430292 C27.6776625,14.2347703 27.7249713,14.025606 27.7684918,13.8156387 C28.4324755,10.5925106 28.0214313,8.1347655 26.9647001,7.52525253 Z M19.7794584,17.194497 C21.3359232,17.194497 22.597548,18.4562615 22.597548,20.0125867 C22.597548,21.5690515 21.3359232,22.830816 19.7794584,22.830816 C18.2231332,22.830816 16.9613688,21.5690515 16.9613688,20.0125867 C16.9613688,18.4562615 18.2231332,17.194497 19.7794584,17.194497 Z" id="Combined-Shape"></path>
                            </g>
                        </g>
                    </g>
                </g>
            </g>
        </g>
    </g>
</svg>