<?xml version="1.0" encoding="UTF-8"?>
<svg width="31px" height="30px" viewBox="0 0 31 30" version="1.1" xmlns="http://www.w3.org/2000/svg" xmlns:xlink="http://www.w3.org/1999/xlink">
    <!-- Generator: Sketch 48.2 (47327) - http://www.bohemiancoding.com/sketch -->
    <title>redux</title>
    <desc>Created with Sketch.</desc>
    <defs></defs>
    <g id="Skills" stroke="none" stroke-width="1" fill="none" fill-rule="evenodd" transform="translate(-619.000000, -529.000000)">
        <g id="Body" transform="translate(486.000000, 174.000000)" fill="#F2F2F8" fill-rule="nonzero">
            <g id="Daily-Skills" transform="translate(0.000000, 238.000000)">
                <g id="Skills" transform="translate(0.000000, 74.000000)">
                    <g id="Tooling" transform="translate(8.000000, 0.000000)">
                        <g id="Logos" transform="translate(0.000000, 38.000000)">
                            <g id="redux" transform="translate(125.000000, 5.000000)">
                                <path d="M21.2772091,20.3598161 C22.4103958,20.242503 23.270092,19.2656138 23.2309876,18.0932027 C23.1920032,16.9209116 22.214994,15.9830068 21.0427029,15.9830068 L20.9646142,15.9830068 C19.7530988,16.0221112 18.8153139,17.0381048 18.8544182,18.2495002 C18.8935226,18.8357057 19.1279088,19.3437025 19.4796082,19.6954018 C18.1510196,22.3137145 16.1190324,24.2285086 13.0710516,25.8307077 C10.99996,26.92491 8.85077969,27.3157137 6.70159936,27.0422231 C4.94310276,26.8077169 3.57540984,26.0262295 2.71559376,24.7365054 C1.46521391,22.8217113 1.34802079,20.7504998 2.40311875,18.6794082 C3.14562175,17.1944022 4.31779288,16.1001999 5.06029588,15.5530988 C4.9039984,15.045102 4.6694922,14.1854058 4.55229908,13.5602159 C-1.11387445,17.6634146 -0.527668932,23.212515 1.19172331,25.8307077 C2.48120752,27.7847261 5.09940024,28.9961216 7.99108357,28.9961216 C8.77257097,28.9961216 9.55405838,28.9179128 10.3356657,28.7226309 C15.337545,27.7456218 19.1280288,24.7756098 21.2772091,20.3598161 Z M28.1547781,15.5141144 C25.184886,12.0361056 20.8083167,10.1213115 15.8064374,10.1213115 L15.1812475,10.1213115 C14.8295482,9.41791283 14.0870452,8.94890044 13.2664534,8.94890044 L13.1882447,8.94890044 C11.9769692,8.9880048 11.0391843,10.0039984 11.0781687,11.2155138 C11.1172731,12.3878049 12.0941623,13.3257097 13.2664534,13.3257097 L13.3445422,13.3257097 C14.2042383,13.2866054 14.9467413,12.7395042 15.2593363,11.9970012 L15.9627349,11.9970012 C18.9326269,11.9970012 21.7461016,12.8566973 24.2862055,14.5371052 C26.239984,15.8267093 27.6467813,17.5071172 28.4282687,19.5391044 C29.092563,21.1804078 29.0534586,22.782607 28.35006,24.1504198 C27.2559776,26.2215114 25.4193922,27.3548181 22.9966014,27.3548181 C21.4335066,27.3548181 19.9486206,26.8858057 19.1670132,26.5341064 C18.7372251,26.92491 17.9556178,27.5501 17.4085166,27.9410236 C19.0889244,28.722511 20.8083167,29.152419 22.4495002,29.152419 C26.2008796,29.152419 28.9753699,27.0812075 30.0304678,25.010116 C31.1636545,22.7435026 31.0854458,18.8357057 28.1547781,15.5141144 Z M8.30367853,21.0239904 C8.34278289,22.1964014 9.31967213,23.1341863 10.4919632,23.1341863 L10.5701719,23.1341863 C11.7815674,23.0952019 12.7193523,22.0790884 12.6802479,20.8676929 C12.6412635,19.6952819 11.6642543,18.757497 10.4919632,18.757497 L10.4138745,18.757497 C10.3356657,18.757497 10.2183527,18.757497 10.1403838,18.7964814 C8.53818473,16.1391843 7.87389044,13.247501 8.10839664,10.1211915 C8.26457417,7.7764894 9.04618153,5.74438225 10.4138745,4.06397441 C11.5470612,2.61807277 13.7353459,1.91467413 15.2203519,1.87568972 C19.362415,1.79748101 21.1207917,6.95577769 21.2381048,9.0269892 C21.7461016,9.14418233 22.6057977,9.41779288 23.1920032,9.61319472 C22.7229908,3.28260696 18.8153139,0 15.0640544,0 C11.5470612,0 8.30367853,2.54010396 7.01407437,6.29160336 C5.21659336,11.2936026 6.38888445,16.1001999 8.57716913,19.8908037 C8.38188725,20.1642943 8.26457417,20.5942023 8.30367853,21.0241104 L8.30367853,21.0239904 Z" id="Shape"></path>
                            </g>
                        </g>
                    </g>
                </g>
            </g>
        </g>
    </g>
</svg>