<?xml version="1.0" encoding="UTF-8"?>
<svg width="32px" height="32px" viewBox="0 0 32 32" version="1.1" xmlns="http://www.w3.org/2000/svg" xmlns:xlink="http://www.w3.org/1999/xlink">
    <!-- Generator: Sketch 48.2 (47327) - http://www.bohemiancoding.com/sketch -->
    <title>ruby</title>
    <desc>Created with Sketch.</desc>
    <defs></defs>
    <g id="Skills" stroke="none" stroke-width="1" fill="none" fill-rule="evenodd" transform="translate(-546.000000, -1113.000000)">
        <g id="Body" transform="translate(489.000000, 174.000000)" fill="#F2F2F8" fill-rule="nonzero" stroke="#37394C">
            <g id="Occasionally" transform="translate(8.000000, 710.000000)">
                <g id="Skills" transform="translate(0.000000, 74.000000)">
                    <g id="Languages" transform="translate(0.000000, 114.000000)">
                        <g id="Logos" transform="translate(0.000000, 42.000000)">
                            <g id="ruby" transform="translate(50.000000, 0.000000)">
                                <polygon id="Shape" points="23.2314514 19.7368962 6.11130949 29.9027372 28.2786545 28.3985196 29.9859769 6.04623115"></polygon>
                                <polygon id="Shape" points="28.3149773 28.3832338 26.4096955 15.2328702 21.2199255 22.08577"></polygon>
                                <polygon id="Shape" points="28.3407059 28.3832338 14.3823115 27.2874964 6.18546852 29.8741331"></polygon>
                                <polygon id="Shape" points="6.20514336 29.8770086 9.69213125 18.4534909 2.01894176 20.0942216"></polygon>
                                <polygon id="Shape" points="21.2185634 22.1236062 18.0100502 9.55592078 8.82795152 18.1629087"></polygon>
                                <polygon id="Shape" points="29.2580076 9.73299439 20.5783742 2.64399645 18.1613952 10.4579367"></polygon>
                                <polygon id="Shape" points="25.1989359 0.116535619 20.0940704 2.93760567 16.8734496 0.0786993793"></polygon>
                                <polygon id="Shape" points="0 23.9261247 2.13850428 20.0259652 0.408631392 15.3796748"></polygon>
                                <path d="M0.293609222,15.2328702 L2.03407626,20.1697428 L9.59678392,18.4730145 L18.2310139,10.4487047 L20.6676678,2.70907479 L16.8309216,0 L10.3079539,2.44119421 C8.25284067,4.35268105 4.26490098,8.1347916 4.12112326,8.20592374 C3.978859,8.27856932 1.48772095,12.9869111 0.293609222,15.2328702 Z" id="Shape"></path>
                                <path d="M6.40491871,6.36405558 C10.8590009,1.94780964 16.6010287,-0.661377475 18.8046113,1.56187999 C21.0068318,3.78513745 18.6714278,9.18815253 14.2173455,13.6028851 C9.76326338,18.0176175 4.09236772,20.7705824 1.89029855,18.5473248 C-0.313284067,16.3255808 1.95083654,10.7787881 6.40491871,6.36405558 Z" id="Shape"></path>
                                <path d="M6.20514336,29.8724682 L9.66488915,18.4126279 L21.1549985,22.1039314 C17.0005794,25.9995507 12.3800178,29.2928171 6.20514336,29.8724682 Z" id="Shape"></path>
                                <path d="M18.2461484,10.4261543 L21.1958616,22.1099852 C24.6662016,18.4610582 27.7808808,14.5381968 29.3062867,9.68607745 L18.2461484,10.4261543 Z" id="Shape"></path>
                                <path d="M29.2761691,9.74510198 C30.4566598,6.18244162 30.7290807,1.07152232 25.1624618,0.122589418 L20.5948708,2.64550991 L29.2761691,9.74510198 Z" id="Shape"></path>
                                <path d="M0,23.8746674 C0.163452556,29.7545705 4.40565179,29.8421992 6.21271061,29.8938079 L2.03861661,20.1455276 L0,23.8746674 Z" id="Shape"></path>
                                <path d="M18.2626449,10.4443157 C20.9293432,12.0833816 26.3037541,15.3751345 26.4127225,15.4356725 C26.5820774,15.5310198 28.7298138,11.8139875 29.2171446,9.71331954 L18.2626449,10.4443157 Z" id="Shape"></path>
                                <path d="M9.6603488,18.4126279 L14.2854508,27.3359267 C17.0202542,25.8527461 19.1617854,24.0456873 21.1232161,22.1099852 L9.6603488,18.4126279 Z" id="Shape"></path>
                                <path d="M2.02045521,20.1576352 L1.36513154,27.9609814 C2.60161986,29.6499912 4.30273721,29.7967958 6.08709429,29.6651256 C4.79612179,26.4520721 2.21720367,20.0274786 2.02045521,20.1576352 Z" id="Shape"></path>
                                <path d="M20.5677801,2.66518475 L29.7559326,3.95464381 C29.2655749,1.87667751 27.7596926,0.535761159 25.192882,0.116535619 L20.5677801,2.66518475 Z" id="Shape"></path>
                            </g>
                        </g>
                    </g>
                </g>
            </g>
        </g>
    </g>
</svg>