<?xml version="1.0" encoding="UTF-8"?>
<svg width="41px" height="30px" viewBox="0 0 41 30" version="1.1" xmlns="http://www.w3.org/2000/svg" xmlns:xlink="http://www.w3.org/1999/xlink">
    <!-- Generator: Sketch 48.2 (47327) - http://www.bohemiancoding.com/sketch -->
    <title>sass</title>
    <desc>Created with Sketch.</desc>
    <defs></defs>
    <g id="Skills" stroke="none" stroke-width="1" fill="none" fill-rule="evenodd" transform="translate(-733.000000, -1472.000000)">
        <g id="Body" transform="translate(489.000000, 174.000000)" fill="#F2F2F8" fill-rule="nonzero">
            <g id="Previously" transform="translate(8.000000, 1182.000000)">
                <g id="Skills" transform="translate(0.000000, 74.000000)">
                    <g id="Tooling">
                        <g id="Logos" transform="translate(0.000000, 42.000000)">
                            <g id="sass" transform="translate(236.521368, 0.000000)">
                                <path d="M34.4189436,17.2677595 C33.0273223,17.2750455 31.8178506,17.6102003 30.8051002,18.1056466 C30.4335155,17.3697633 30.0619308,16.7140255 29.996357,16.2331512 C29.9234973,15.6721311 29.8360656,15.3296903 29.9234973,14.6593807 C30.0109289,13.989071 30.4043716,13.0346084 30.3970856,12.9617486 C30.3897997,12.8888889 30.3096539,12.5464481 29.5081967,12.5391621 C28.7067395,12.5318761 28.0145719,12.6921676 27.9344263,12.9034608 C27.8542805,13.1147541 27.701275,13.5956284 27.5992714,14.0910747 C27.4608378,14.8196721 25.996357,17.420765 25.15847,18.7832422 C24.8888889,18.2513661 24.6557377,17.7850637 24.6047359,17.4134791 C24.5318761,16.8524591 24.4444444,16.5100183 24.5318761,15.8397086 C24.6193078,15.1693989 25.0127505,14.2149362 25.0054645,14.1420765 C24.9981784,14.0692167 24.9180328,13.726776 24.1165756,13.71949 C23.3151184,13.712204 22.6229508,13.8724955 22.5428052,14.0837887 C22.4626594,14.295082 22.3752277,14.7905282 22.2076503,15.2714025 C22.0400728,15.7522769 20.0947177,20.0947177 19.5846995,21.2167578 C19.3224044,21.7923497 19.0965392,22.2513661 18.9362477,22.564663 C18.9362477,22.564663 18.9289617,22.5865209 18.9071038,22.6229508 C18.7686703,22.8925319 18.6885245,23.0382514 18.6885245,23.0382514 C18.6885245,23.0382514 18.6885245,23.0382514 18.6885245,23.0455373 C18.579235,23.2422586 18.4626594,23.424408 18.4043716,23.424408 C18.3606558,23.424408 18.28051,22.8998178 18.4189436,22.1857923 C18.7103825,20.6775956 19.4025502,18.3315119 19.3952641,18.2513661 C19.3952641,18.2076503 19.5264117,17.7996356 18.9435338,17.5883425 C18.3752277,17.3770492 18.1712205,17.7267759 18.1202186,17.7267759 C18.0692167,17.7267759 18.0327869,17.8506375 18.0327869,17.8506375 C18.0327869,17.8506375 18.6666667,15.2131147 16.8233152,15.2131147 C15.6721311,15.2131147 14.0837887,16.4735883 13.2969035,17.6102003 C12.8014572,17.8797814 11.7449909,18.4553734 10.6156648,19.0746812 C10.1857923,19.3151184 9.74134791,19.5555556 9.32604736,19.7814208 C9.29690345,19.7522769 9.26775956,19.715847 9.23861567,19.6867031 C7.00910747,17.3041894 2.88524591,15.6211293 3.0601093,12.4225865 C3.12568306,11.2568306 3.52641166,8.19672131 10.9799636,4.48087431 C17.1147541,1.4571949 21.996357,2.29508197 22.84153,4.15300547 C24.0510019,6.80510019 20.2258652,11.7304189 13.8870674,12.4444444 C11.4681239,12.7140255 10.2003643,11.7814208 9.87978142,11.431694 C9.54462659,11.0673953 9.49362477,11.0455373 9.3697632,11.1183971 C9.16575592,11.2276867 9.29690345,11.5555556 9.3697632,11.7449909 C9.55919855,12.2404372 10.3387978,13.1147541 11.6575592,13.5446266 C12.8233151,13.9234973 15.6575592,14.1347905 19.0892531,12.8087432 C22.9289617,11.3224044 25.9307833,7.19125683 25.0491803,3.73041894 C24.1675773,0.218579234 18.3387978,-0.939890711 12.8233151,1.02003643 C9.54462659,2.18579234 5.98907103,4.02185792 3.43169398,6.41165756 C0.393442623,9.25318761 -0.0874316941,11.723133 0.109289618,12.7577413 C0.816029144,16.4298725 5.87978142,18.8196722 7.90528233,20.5901639 C7.80327869,20.6484517 7.70856102,20.6994536 7.6284153,20.7431694 C6.61566484,21.2459016 2.75409836,23.2641166 1.79234973,25.398907 C0.699453552,27.8178506 1.96721311,29.5519125 2.80510019,29.7850637 C5.40619308,30.5063752 8.08014572,29.2094717 9.5154827,27.0673953 C10.9508197,24.9253187 10.7759563,22.1420766 10.1129326,20.8670309 C10.1056466,20.8524591 10.0983607,20.837887 10.0837887,20.8233152 C10.3460838,20.6703097 10.6156648,20.5100183 10.8779599,20.3570128 C11.3952641,20.0510019 11.9052823,19.7668487 12.3424408,19.5336977 C12.0947177,20.2112933 11.9125683,21.0200364 11.8251366,22.1857923 C11.715847,23.5555556 12.276867,25.3333333 13.0127505,26.0327869 C13.3406193,26.3387978 13.726776,26.3460837 13.9744991,26.3460837 C14.8342441,26.3460837 15.2204007,25.6320583 15.6502733,24.7868853 C16.1748634,23.7522769 16.6484517,22.5500911 16.6484517,22.5500911 C16.6484517,22.5500911 16.0582878,25.7996356 17.6612022,25.7996356 C18.2440802,25.7996356 18.8342441,25.0418944 19.0965392,24.6557377 L19.0965392,24.6630237 C19.0965392,24.6630237 19.1111111,24.6411658 19.140255,24.5901639 C19.1985428,24.4954462 19.2349727,24.4371584 19.2349727,24.4371584 L19.2349727,24.4225866 C19.4681239,24.0145719 19.9927141,23.0892531 20.7723133,21.5519125 C21.7777778,19.5701275 22.7468123,17.0928962 22.7468123,17.0928962 C22.7468123,17.0928962 22.8342441,17.697632 23.1329691,18.7030966 C23.3078325,19.2932605 23.6721311,19.9417122 23.9635702,20.5683059 C23.7304189,20.8961748 23.5846995,21.0783242 23.5846995,21.0783242 C23.5846995,21.0783242 23.5846995,21.0783242 23.5919855,21.0856102 C23.4025502,21.3333333 23.1985428,21.6029144 22.9726777,21.8652095 C22.1785064,22.8123861 21.2313297,23.8979964 21.1001822,24.2112933 C20.9471767,24.582878 20.9836066,24.8524591 21.2750455,25.0710383 C21.4863388,25.2313297 21.8652095,25.2531877 22.2513661,25.2313297 C22.9653916,25.1803278 23.4681239,25.0054645 23.715847,24.8961748 C24.1020036,24.7577414 24.5537341,24.5464481 24.9763206,24.2331512 C25.7559198,23.6575592 26.2295081,22.8342441 26.1857923,21.7486339 C26.1639344,21.1511839 25.9672131,20.5537341 25.7267759,19.9927141 C25.7996356,19.8907103 25.8652095,19.7887067 25.9380692,19.6867031 C27.1693989,17.8870673 28.1238616,15.9125683 28.1238616,15.9125683 C28.1238616,15.9125683 28.2112933,16.5173042 28.5100183,17.5227686 C28.6557377,18.0327869 28.9544627,18.5865209 29.2167578,19.1256831 C28.0582878,20.0655737 27.3442623,21.15847 27.0892531,21.8724955 C26.6302367,23.1985428 26.9872495,23.7959927 27.6648452,23.9344262 C27.9708561,24 28.4080145,23.8542805 28.7285975,23.715847 C29.136612,23.5846995 29.6174864,23.3588342 30.0765027,23.0236794 C30.856102,22.4480875 31.6065573,21.6466303 31.5628416,20.56102 C31.5409836,20.0655737 31.4098361,19.5774134 31.2276867,19.1038252 C32.2112933,18.6958106 33.4790528,18.4699453 35.0965392,18.6593806 C38.564663,19.0673953 39.2495447,21.2313297 39.118397,22.1420766 C38.9872495,23.0528233 38.258652,23.5482695 38.018215,23.701275 C37.7777778,23.8542805 37.697632,23.9052823 37.71949,24.0145719 C37.7486339,24.1748634 37.8652095,24.1675773 38.0692167,24.1384334 C38.3533697,24.0874317 39.8907103,23.4025502 39.9562842,21.7267759 C40.0655738,19.5846995 38.0255009,17.2459016 34.4189436,17.2677595 Z M7.66484517,26.2877959 C6.5136612,27.5409836 4.91074681,28.0145719 4.21857923,27.6138433 C3.47540984,27.1839708 3.76684881,25.3333333 5.18032788,24.0072859 C6.04007286,23.1985428 7.14754098,22.4480875 7.88342441,21.9890711 C8.05100183,21.8870673 8.29872495,21.741348 8.59744991,21.5591986 C8.64845173,21.5300547 8.67759563,21.5154827 8.67759563,21.5154827 C8.73588342,21.4790528 8.79417122,21.442623 8.85245902,21.4061931 C9.3697632,23.3005464 8.87431694,24.9690345 7.66484517,26.2877959 Z M16.0437158,20.5901639 C15.6429872,21.5664845 14.8051002,24.0655737 14.295082,23.9271403 C13.8579235,23.8105647 13.5883424,21.9162112 14.2076503,20.0437158 C14.5209472,19.1038252 15.1839709,17.981785 15.5701275,17.5446266 C16.1967212,16.845173 16.8888889,16.6120219 17.0564662,16.8961748 C17.2677595,17.2677595 16.2914389,19.978142 16.0437158,20.5901639 Z M22.9581056,23.8979964 C22.7905283,23.9854281 22.6302367,24.0437158 22.557377,24 C22.5063752,23.9708561 22.6302367,23.8542805 22.6302367,23.8542805 C22.6302367,23.8542805 23.4972678,22.9216758 23.8397086,22.4990892 C24.0364298,22.2513661 24.2695811,21.9599272 24.5173042,21.6320583 L24.5173042,21.7267759 C24.5173042,22.84153 23.43898,23.5919855 22.9581056,23.8979964 Z M28.2914389,22.6812386 C28.1675773,22.5938069 28.1894353,22.302368 28.6047359,21.3916211 C28.7650273,21.0346084 29.143898,20.4371584 29.7923497,19.8615666 C29.8652095,20.0947177 29.9162112,20.3205828 29.9089253,20.5318761 C29.9016394,21.9380692 28.8961748,22.4626594 28.2914389,22.6812386 Z" id="Shape"></path>
                            </g>
                        </g>
                    </g>
                </g>
            </g>
        </g>
    </g>
</svg>