<?xml version="1.0" encoding="UTF-8"?>
<svg width="31px" height="30px" viewBox="0 0 31 30" version="1.1" xmlns="http://www.w3.org/2000/svg" xmlns:xlink="http://www.w3.org/1999/xlink">
    <!-- Generator: Sketch 48.2 (47327) - http://www.bohemiancoding.com/sketch -->
    <title>slack</title>
    <desc>Created with Sketch.</desc>
    <defs></defs>
    <g id="Skills" stroke="none" stroke-width="1" fill="none" fill-rule="evenodd" transform="translate(-804.000000, -754.000000)">
        <g id="Body" transform="translate(489.000000, 174.000000)" fill="#FFFFFF" fill-rule="nonzero">
            <g id="Daily-Skills" transform="translate(5.000000, 238.000000)">
                <g id="Skills" transform="translate(0.000000, 74.000000)">
                    <g id="The-rest" transform="translate(3.000000, 226.000000)">
                        <g id="Logos" transform="translate(0.000000, 42.000000)">
                            <g id="slack" transform="translate(307.500000, 0.000000)">
                                <path d="M19.4488525,1.85606557 C18.9929508,0.452704918 17.4858197,-0.315245902 16.0827049,0.14090164 C14.6793443,0.596803279 13.9113934,2.10393443 14.3675409,3.50704918 L21.2754098,24.7608197 C21.7497541,26.0717214 23.1659017,26.8084426 24.5252459,26.4172131 C25.9431148,26.0090164 26.8074591,24.5031148 26.355,23.1105738 C26.3377869,23.0574591 19.4488525,1.85606557 19.4488525,1.85606557" id="Shape"></path>
                                <path d="M8.74524591,5.33385246 C8.28909836,3.93073771 6.78196721,3.16278689 5.37885246,3.61868852 C3.9754918,4.07459017 3.20754098,5.58172131 3.66368852,6.98508197 L10.5715574,28.2388525 C11.0459016,29.5497541 12.4620492,30.2864754 13.8213934,29.895 C15.2392623,29.4870492 16.1036066,27.9811475 15.6511475,26.5883606 C15.6339345,26.5354918 8.74524591,5.33385246 8.74524591,5.33385246" id="Shape"></path>
                                <path d="M28.1439345,19.4584426 C29.5472951,19.0025409 30.315,17.4954098 29.8590983,16.0920492 C29.4031968,14.6889345 27.8960655,13.9209836 26.4929508,14.3768852 L5.23918032,21.285 C3.92827869,21.7590983 3.19155738,23.1752459 3.58278689,24.5345902 C3.9909836,25.9524591 5.49688525,26.8168032 6.88942623,26.3643443 C6.94254098,26.3471311 28.1439345,19.4584426 28.1439345,19.4584426" id="Shape"></path>
                                <path d="M9.66885246,25.4613934 C11.0522951,25.0118852 12.8353279,24.4325409 14.7486885,23.8109017 C14.2991803,22.4274591 13.719836,20.6441803 13.0979508,18.7305738 L8.01786885,20.3818032 L9.66885246,25.4613934" id="Shape"></path>
                                <path d="M20.3727049,21.9833606 C22.2931968,21.3595082 24.0781968,20.7794262 25.4525409,20.3328689 C25.0030328,18.9494262 24.4234426,17.1656557 23.8015574,15.2515574 L18.7214754,16.9027869 L20.3727049,21.9833606" id="Shape"></path>
                                <path d="M24.6661475,8.75459017 C26.0692623,8.29868852 26.8372131,6.79155738 26.3813115,5.38819672 C25.9254098,3.98508197 24.4182786,3.21713115 23.014918,3.67303279 L1.76114754,10.5811475 C0.450245902,11.0552459 -0.286475409,12.4713934 0.105,13.8307377 C0.51295082,15.2486066 2.01885246,16.1129508 3.41163934,15.6604918 C3.4645082,15.6432786 24.6661475,8.75459017 24.6661475,8.75459017" id="Shape"></path>
                                <path d="M6.19008197,14.7577869 C7.57352459,14.3082786 9.35704918,13.7286885 11.2706557,13.1070492 C10.6468033,11.1863115 10.0667213,9.40131148 9.62016394,8.02672131 L4.53885246,9.67819672 L6.19008197,14.7577869" id="Shape"></path>
                                <path d="M16.8936885,11.28 C18.8146721,10.6559016 20.599918,10.0758197 21.9745082,9.6290164 C21.3504098,7.70803279 20.7703279,5.92254098 20.3235246,4.54770492 L15.2424591,6.19918032 L16.8936885,11.28" id="Shape"></path>
                            </g>
                        </g>
                    </g>
                </g>
            </g>
        </g>
    </g>
</svg>