<?xml version="1.0" encoding="UTF-8"?>
<svg width="30px" height="30px" viewBox="0 0 30 30" version="1.1" xmlns="http://www.w3.org/2000/svg" xmlns:xlink="http://www.w3.org/1999/xlink">
    <!-- Generator: Sketch 48.2 (47327) - http://www.bohemiancoding.com/sketch -->
    <title>visual-studio-code (1)</title>
    <desc>Created with Sketch.</desc>
    <defs></defs>
    <g id="Skills" stroke="none" stroke-width="1" fill="none" fill-rule="evenodd" transform="translate(-497.000000, -754.000000)">
        <g id="Body" transform="translate(489.000000, 174.000000)" fill="#FFFFFF" fill-rule="nonzero">
            <g id="Daily-Skills" transform="translate(5.000000, 238.000000)">
                <g id="Skills" transform="translate(0.000000, 74.000000)">
                    <g id="The-rest" transform="translate(3.000000, 226.000000)">
                        <g id="Logos" transform="translate(0.000000, 42.000000)">
                            <g id="visual-studio-code-(1)">
                                <path d="M22.4975215,0 L22.4975215,25.7657011 L0,22.4242791 L22.4975215,29.9997754 L29.9975215,26.8798826 L29.9975215,3.58503609 L30,3.58390936 L29.9975215,3.5789514 L29.9975215,3.1201172 L22.4975215,0 Z M14.6245498,4.38957334 L7.73369899,11.2010969 L3.58503608,8.07669789 L1.8752254,8.64776152 L6.09600369,12.820087 L1.8752254,16.9921882 L3.58503608,17.5634771 L7.73369899,14.4388525 L7.73392445,14.4388525 L14.6243236,21.2499257 L18.7513521,19.4963945 L18.7513521,6.14310405 L14.6245498,4.38957334 Z M14.6243236,9.24969963 L14.6243236,16.3895736 L9.88363898,12.819637 L14.6243236,9.24969963 Z" id="Shape"></path>
                            </g>
                        </g>
                    </g>
                </g>
            </g>
        </g>
    </g>
</svg>