<?xml version="1.0" encoding="UTF-8"?>
<svg width="27px" height="30px" viewBox="0 0 27 30" version="1.1" xmlns="http://www.w3.org/2000/svg" xmlns:xlink="http://www.w3.org/1999/xlink">
    <!-- Generator: Sketch 48.2 (47327) - http://www.bohemiancoding.com/sketch -->
    <title>webpack</title>
    <desc>Created with Sketch.</desc>
    <defs></defs>
    <g id="Skills" stroke="none" stroke-width="1" fill="none" fill-rule="evenodd" transform="translate(-737.000000, -529.000000)">
        <g id="Body" transform="translate(486.000000, 174.000000)" fill="#F2F2F8" fill-rule="nonzero">
            <g id="Daily-Skills" transform="translate(0.000000, 238.000000)">
                <g id="Skills" transform="translate(0.000000, 74.000000)">
                    <g id="Tooling" transform="translate(8.000000, 0.000000)">
                        <g id="Logos" transform="translate(0.000000, 38.000000)">
                            <g id="webpack" transform="translate(243.000000, 5.000000)">
                                <path d="M25.5398878,22.5116244 L13.7268955,29.201318 L13.7268955,23.9988514 L21.0895168,19.9443203 L25.5398878,22.5116244 Z M26.3485319,21.7821482 L26.3485319,7.80334652 L22.0282228,10.2971376 L22.0282228,19.2883571 L26.3485319,21.7821482 Z M0.873410037,22.5116244 L12.6864022,29.1956632 L12.6864022,23.9931965 L5.32378095,19.9443203 L0.873410037,22.5116244 Z M0.0647657561,21.7821482 L0.0647657561,7.80334652 L4.38507502,10.2971376 L4.38507502,19.2883571 L0.0647657561,21.7821482 Z M0.568047863,6.89856972 L12.6864022,0.0448854088 L12.6864022,5.0777064 L4.92228624,9.34712195 L4.86008283,9.38105104 L0.568047863,6.89856972 Z M25.8395951,6.89856972 L13.7268955,0.0448854088 L13.7268955,5.0777064 L21.4853567,9.35277681 L21.54756,9.38670591 L25.8395951,6.89856972 Z" id="Shape"></path>
                                <path d="M12.6864022,22.8113317 L5.42556834,18.8133492 L5.42556834,10.9022071 L12.6864022,15.0924547 L12.6864022,22.8113317 Z M13.7268955,22.8113317 L20.9877294,18.8190041 L20.9877294,10.9022071 L13.7268955,15.0924547 L13.7268955,22.8113317 Z M5.91188587,9.98612055 L13.2066488,5.97682835 L20.4957571,9.98612055 L13.2066488,14.1933327 L5.91188587,9.98612055 Z" id="Shape"></path>
                            </g>
                        </g>
                    </g>
                </g>
            </g>
        </g>
    </g>
</svg>