<?xml version="1.0" encoding="UTF-8"?>
<svg width="462px" height="131px" viewBox="0 0 462 131" version="1.1" xmlns="http://www.w3.org/2000/svg" xmlns:xlink="http://www.w3.org/1999/xlink">
    <!-- Generator: Sketch 48.2 (47327) - http://www.bohemiancoding.com/sketch -->
    <title>Logo</title>
    <desc>Created with Sketch.</desc>
    <defs></defs>
    <g id="Dark-Blog" stroke="none" stroke-width="1" fill="none" fill-rule="evenodd" transform="translate(-489.000000, -174.000000)">
        <g id="Body" transform="translate(489.000000, 174.000000)">
            <g id="Logo">
                <path d="M87.1352415,89.3147354 C87.1697277,92.8764294 87.1927677,96.3296503 87.1927677,99.6473139 C87.1927677,119.426616 89.4412851,128.004223 67.9972674,130.863426 C46.5532496,133.722628 2.23561298,90.8345926 0.806011793,82.2569855 C-0.62358939,73.6793784 0.806011793,35.0801464 5.09481534,17.9249322 C9.18664563,1.55761108 76.443665,-9.566396 74.4932295,11.757623 C74.5084647,11.7602099 74.5236638,11.7627667 74.5388268,11.7652934 C75.2086888,11.0504661 75.6496166,10.3604108 75.8616103,9.69512772 C76.7458059,6.92032555 71.6600629,-3.26343567e-13 72.3420683,0 C73.0240737,3.2610811e-13 79.9753491,5.43672795 79.4972832,9.69512772 C79.4905522,9.75508448 79.4835202,9.81485607 79.4761872,9.87444249 C80.5232285,7.76242577 81.1446269,4.59295214 81.3942103,4.85140339 C81.7351622,5.20446943 82.393353,11.4762398 79.9962587,13.4236562 C83.9337844,13.433888 87.7082705,16.6899801 87.1927677,31.5941439 C86.9558534,38.443785 86.8560188,45.3705121 86.8337776,52.2353606 L90.7300887,52.2353606 C92.3869429,52.2353606 93.7300887,53.5785064 93.7300887,55.2353606 L93.7300887,70.6793784 C93.7300887,72.3362326 92.3869429,73.6793784 90.7300887,73.6793784 L86.9536146,73.6793784 C86.9982389,77.572267 87.0479676,81.3919172 87.0904702,85.1095244 C90.2348428,83.9975405 91.3067936,82.6778003 90.5886045,84.8323675 C90.0549298,86.4333917 88.8839122,88.029588 87.1352415,89.3147354 Z M82.4896085,91.490594 C81.0832671,91.8655902 79.5140877,92.0788177 77.792101,92.0788177 C70.7059804,92.0788177 64.9289274,91.3074051 64.0612406,90.8669268 C63.7276658,90.6975886 63.45324,90.4615818 63.2289065,90.1763999 C63.004573,90.4615818 62.7301471,90.6975886 62.3965723,90.8669268 C61.5288855,91.3074051 55.7518325,92.0788177 48.665712,92.0788177 C41.5795914,92.0788177 37.0810994,88.4680404 35.8692084,84.8323675 C34.6573175,81.1966946 38.5426826,87.4537879 48.8816093,85.9121112 C53.7708508,85.1830579 56.6117094,82.8973468 58.4622556,82.1309158 C60.286689,81.3752998 62.0966738,81.8665715 63.2289065,82.5524548 C64.3611392,81.8665715 66.1711239,81.3752998 67.9955573,82.1309158 C69.8461036,82.8973468 72.6869621,85.1830579 77.5762036,85.9121112 C79.9652771,86.2683551 82.0097566,86.2081764 83.7263771,85.9498621 C83.7469214,83.8802944 83.854145,79.3189421 83.9452427,73.6793784 L68.138065,73.6793784 C66.4812108,73.6793784 65.138065,72.3362326 65.138065,70.6793784 L65.138065,60.8129677 L61.0669717,60.8129677 L61.0669717,70.6793784 C61.0669717,72.3362326 59.7238259,73.6793784 58.0669717,73.6793784 L35.474948,73.6793784 C33.8180938,73.6793784 32.474948,72.3362326 32.474948,70.6793784 L32.474948,59.3833665 L17.3011716,59.3833665 C16.379474,64.5357737 16.0501352,68.8942175 16.5316248,70.820176 C17.961226,76.5385807 45.1236484,96.5529973 50.8420532,99.4121996 C56.5604579,102.271402 75.1452733,100.841801 76.5748745,99.4121996 C77.5832674,98.4038067 80.7255205,95.2615536 82.4896085,91.490594 Z M32.474948,56.5241642 L32.474948,55.2353606 C32.474948,53.5785064 33.8180938,52.2353606 35.474948,52.2353606 L58.0669717,52.2353606 C59.7238259,52.2353606 61.0669717,53.5785064 61.0669717,55.2353606 L61.0669717,56.5241642 L65.138065,56.5241642 L65.138065,55.2353606 C65.138065,53.5785064 66.4812108,52.2353606 68.138065,52.2353606 L84.041013,52.2353606 C83.9160096,42.4503114 83.4644261,33.9776645 82.2932792,32.2209441 C79.4340768,27.9321405 35.1164402,26.5025393 27.9684343,32.2209441 C23.6626007,35.6656109 19.8755189,46.8915539 17.8571367,56.5241642 L32.474948,56.5241642 Z M68.9972674,55.094563 C68.4449826,55.094563 67.9972674,55.5422782 67.9972674,56.094563 L67.9972674,69.820176 C67.9972674,70.3724607 68.4449826,70.820176 68.9972674,70.820176 L89.8708863,70.820176 C90.423171,70.820176 90.8708863,70.3724607 90.8708863,69.820176 L90.8708863,56.094563 C90.8708863,55.5422782 90.423171,55.094563 89.8708863,55.094563 L68.9972674,55.094563 Z M74.1496209,67.209903 L84.4014109,56.9581129 C84.535867,56.8236569 84.6132832,56.7790595 84.7017127,56.7522568 C84.7901422,56.7254542 84.8805772,56.7254542 84.9690067,56.7522568 C85.0574362,56.7790595 85.1348524,56.8236569 85.2693084,56.9581129 L85.4122916,57.1010961 C85.5467477,57.2355522 85.591345,57.3129683 85.6181477,57.4013979 C85.6449504,57.4898274 85.6449504,57.5802623 85.6181477,57.6686919 C85.591345,57.7571214 85.5467477,57.8345376 85.4122916,57.9689936 L75.1605015,68.2207837 C75.0260455,68.3552398 74.9486293,68.3998371 74.8601998,68.4266398 C74.7717702,68.4534425 74.6813353,68.4534425 74.5929058,68.4266398 C74.5044762,68.3998371 74.4270601,68.3552398 74.292604,68.2207837 L74.1496209,68.0778005 C74.0151648,67.9433445 73.9705674,67.8659283 73.9437648,67.7774988 C73.9169621,67.6890692 73.9169621,67.5986343 73.9437648,67.5102048 C73.9705674,67.4217752 74.0151648,67.3443591 74.1496209,67.209903 Z M78.4286522,67.5367971 L83.2987039,62.6667454 C83.4214332,62.544016 83.5008038,62.4974643 83.5892334,62.4706616 C83.6776629,62.4438589 83.7680978,62.4438589 83.8565274,62.4706616 C83.9449569,62.4974643 84.0243275,62.544016 84.1470569,62.6667454 L84.2590173,62.7787058 C84.3817467,62.9014352 84.4282985,62.9808058 84.4551012,63.0692354 C84.4819038,63.1576649 84.4819038,63.2480998 84.4551012,63.3365293 C84.4282985,63.4249589 84.3817467,63.5043295 84.2590173,63.6270589 L79.3889656,68.4971106 C79.2662362,68.6198399 79.1868656,68.6663917 79.0984361,68.6931944 C79.0100066,68.7199971 78.9195716,68.7199971 78.8311421,68.6931944 C78.7427126,68.6663917 78.6633419,68.6198399 78.5406126,68.4971106 L78.4286522,68.3851501 C78.3059228,68.2624208 78.259371,68.1830502 78.2325683,68.0946206 C78.2057656,68.0061911 78.2057656,67.9157562 78.2325683,67.8273266 C78.259371,67.7388971 78.3059228,67.6595265 78.4286522,67.5367971 Z M36.3341504,55.094563 C35.7818656,55.094563 35.3341504,55.5422782 35.3341504,56.094563 L35.3341504,69.820176 C35.3341504,70.3724607 35.7818656,70.820176 36.3341504,70.820176 L57.2077693,70.820176 C57.7600541,70.820176 58.2077693,70.3724607 58.2077693,69.820176 L58.2077693,56.094563 C58.2077693,55.5422782 57.7600541,55.094563 57.2077693,55.094563 L36.3341504,55.094563 Z M41.4865039,67.209903 L51.738294,56.9581129 C51.87275,56.8236569 51.9501662,56.7790595 52.0385957,56.7522568 C52.1270253,56.7254542 52.2174602,56.7254542 52.3058897,56.7522568 C52.3943193,56.7790595 52.4717354,56.8236569 52.6061915,56.9581129 L52.7491746,57.1010961 C52.8836307,57.2355522 52.9282281,57.3129683 52.9550307,57.4013979 C52.9818334,57.4898274 52.9818334,57.5802623 52.9550307,57.6686919 C52.9282281,57.7571214 52.8836307,57.8345376 52.7491746,57.9689936 L42.4973846,68.2207837 C42.3629285,68.3552398 42.2855123,68.3998371 42.1970828,68.4266398 C42.1086533,68.4534425 42.0182183,68.4534425 41.9297888,68.4266398 C41.8413593,68.3998371 41.7639431,68.3552398 41.6294871,68.2207837 L41.4865039,68.0778005 C41.3520478,67.9433445 41.3074505,67.8659283 41.2806478,67.7774988 C41.2538451,67.6890692 41.2538451,67.5986343 41.2806478,67.5102048 C41.3074505,67.4217752 41.3520478,67.3443591 41.4865039,67.209903 Z M45.7655352,67.5367971 L50.6355869,62.6667454 C50.7583163,62.544016 50.8376869,62.4974643 50.9261164,62.4706616 C51.0145459,62.4438589 51.1049809,62.4438589 51.1934104,62.4706616 C51.2818399,62.4974643 51.3612105,62.544016 51.4839399,62.6667454 L51.5959003,62.7787058 C51.7186297,62.9014352 51.7651815,62.9808058 51.7919842,63.0692354 C51.8187868,63.1576649 51.8187868,63.2480998 51.7919842,63.3365293 C51.7651815,63.4249589 51.7186297,63.5043295 51.5959003,63.6270589 L46.7258486,68.4971106 C46.6031193,68.6198399 46.5237487,68.6663917 46.4353191,68.6931944 C46.3468896,68.7199971 46.2564547,68.7199971 46.1680251,68.6931944 C46.0795956,68.6663917 46.000225,68.6198399 45.8774956,68.4971106 L45.7655352,68.3851501 C45.6428058,68.2624208 45.596254,68.1830502 45.5694513,68.0946206 C45.5426487,68.0061911 45.5426487,67.9157562 45.5694513,67.8273266 C45.596254,67.7388971 45.6428058,67.6595265 45.7655352,67.5367971 Z" id="Combined-Shape" fill="#FECA57"></path>
                <path d="M118.457587,43.5934926 L118.457587,2.77581366 L127.022954,2.77581366 C131.129417,2.77581366 134.37224,3.18116652 136.75152,3.9918844 C139.307044,4.78497798 141.624605,6.13321685 143.704273,8.03664145 C147.916481,11.8787392 150.022553,16.928026 150.022553,23.1846531 C150.022553,29.4589046 147.828361,34.5346274 143.43991,38.4119737 C141.236872,40.3506469 138.928123,41.6988858 136.513594,42.4567308 C134.257683,43.2145758 131.05892,43.5934926 126.917209,43.5934926 L118.457587,43.5934926 Z M124.617249,37.8039384 L127.393063,37.8039384 C130.160078,37.8039384 132.460015,37.5131418 134.292943,36.9315398 C136.12587,36.3146892 137.78253,35.3365552 139.262971,33.9971082 C142.294351,31.2300928 143.810018,27.6259772 143.810018,23.1846531 C143.810018,18.7080805 142.311975,15.0775287 139.315844,12.2928891 C136.619325,9.8078625 132.645105,8.56536786 127.393063,8.56536786 L124.617249,8.56536786 L124.617249,37.8039384 Z M181.746138,33.6798724 L164.27173,33.6798724 L159.724683,43.5934926 L153.089167,43.5934926 L173.286515,0.211490564 L192.770084,43.5934926 L186.028822,43.5934926 L181.746138,33.6798724 Z M179.234688,27.8903182 L173.18077,14.0112499 L166.836053,27.8903182 L179.234688,27.8903182 Z M197.872294,43.5934926 L197.872294,0 L227.63959,31.1419856 L227.63959,2.77581366 L233.799253,2.77581366 L233.799253,46.0785067 L204.031956,15.0158301 L204.031956,43.5934926 L197.872294,43.5934926 Z M249.740354,2.77581366 L249.740354,43.5934926 L243.580692,43.5934926 L243.580692,2.77581366 L249.740354,2.77581366 Z M282.071974,8.56536786 L265.707892,8.56536786 L265.707892,18.3732428 L281.596121,18.3732428 L281.596121,24.162797 L265.707892,24.162797 L265.707892,37.8039384 L282.071974,37.8039384 L282.071974,43.5934926 L259.548229,43.5934926 L259.548229,2.77581366 L282.071974,2.77581366 L282.071974,8.56536786 Z M296.321151,2.77581366 L296.321151,37.8039384 L308.323241,37.8039384 L308.323241,43.5934926 L290.161489,43.5934926 L290.161489,2.77581366 L296.321151,2.77581366 Z M133.328546,67.0277751 L133.328546,98.8630267 L122.716795,98.8630267 L122.716795,67.0277751 L114,67.0277751 L114,58.040272 L142.045341,58.040272 L142.045341,67.0277751 L133.328546,67.0277751 Z M157.367409,73.7954731 L172.689478,73.7954731 L172.689478,58.040272 L183.301228,58.040272 L183.301228,98.8630267 L172.689478,98.8630267 L172.689478,82.024994 L157.367409,82.024994 L157.367409,98.8630267 L146.755659,98.8630267 L146.755659,58.040272 L157.367409,58.040272 L157.367409,73.7954731 Z M201.113809,78.4516494 C201.113809,80.075905 201.420609,81.5738072 202.034216,82.9454009 C202.647824,84.3169946 203.477987,85.5080975 204.524729,86.5187455 C205.571472,87.5293934 206.789645,88.3144386 208.179286,88.8739044 C209.568927,89.4333702 211.039759,89.713099 212.591825,89.713099 C214.143892,89.713099 215.614724,89.4333702 217.004364,88.8739044 C218.394005,88.3144386 219.621202,87.5293934 220.685992,86.5187455 C221.750782,85.5080975 222.589968,84.3169946 223.203576,82.9454009 C223.817184,81.5738072 224.123983,80.075905 224.123983,78.4516494 C224.123983,76.8273937 223.817184,75.3294915 223.203576,73.9578979 C222.589968,72.5863042 221.750782,71.3952013 220.685992,70.3845533 C219.621202,69.3739053 218.394005,68.5888602 217.004364,68.0293944 C215.614724,67.4699285 214.143892,67.1901998 212.591825,67.1901998 C211.039759,67.1901998 209.568927,67.4699285 208.179286,68.0293944 C206.789645,68.5888602 205.571472,69.3739053 204.524729,70.3845533 C203.477987,71.3952013 202.647824,72.5863042 202.034216,73.9578979 C201.420609,75.3294915 201.113809,76.8273937 201.113809,78.4516494 Z M190.014785,78.4516494 C190.014785,75.4197055 190.574242,72.5953477 191.693174,69.9784914 C192.812105,67.3616351 194.364149,65.0786878 196.34935,63.129581 C198.334551,61.1804742 200.707734,59.6555015 203.468968,58.5546171 C206.230203,57.4537327 209.271125,56.9032988 212.591825,56.9032988 C215.876431,56.9032988 218.90833,57.4537327 221.687612,58.5546171 C224.466893,59.6555015 226.858123,61.1804742 228.861371,63.129581 C230.86462,65.0786878 232.425687,67.3616351 233.544619,69.9784914 C234.66355,72.5953477 235.223008,75.4197055 235.223008,78.4516494 C235.223008,81.4835933 234.66355,84.307951 233.544619,86.9248073 C232.425687,89.5416637 230.86462,91.824611 228.861371,93.7737178 C226.858123,95.7228246 224.466893,97.2477973 221.687612,98.3486817 C218.90833,99.4495661 215.876431,100 212.591825,100 C209.271125,100 206.230203,99.4495661 203.468968,98.3486817 C200.707734,97.2477973 198.334551,95.7228246 196.34935,93.7737178 C194.364149,91.824611 192.812105,89.5416637 191.693174,86.9248073 C190.574242,84.307951 190.014785,81.4835933 190.014785,78.4516494 Z M240.09575,98.8630267 L247.025873,58.040272 L257.52934,58.040272 L265.70472,79.805189 L273.825957,58.040272 L284.329425,58.040272 L291.259548,98.8630267 L280.701939,98.8630267 L277.182736,75.3655791 L267.545534,98.8630267 L263.32249,98.8630267 L254.172562,75.3655791 L250.653359,98.8630267 L240.09575,98.8630267 Z M308.584855,76.7732603 L312.104058,76.7732603 C316.002271,76.7732603 317.951349,75.0768409 317.951349,71.6839513 C317.951349,68.2910617 316.002271,66.5946424 312.104058,66.5946424 L308.584855,66.5946424 L308.584855,76.7732603 Z M308.584855,98.8630267 L297.973104,98.8630267 L297.973104,58.040272 L314.865278,58.040272 C319.449289,58.040272 322.959433,59.231375 325.395817,61.6136166 C327.8322,63.9958582 329.050374,67.3526029 329.050374,71.6839513 C329.050374,76.0152997 327.8322,79.3720444 325.395817,81.754286 C322.959433,84.1365277 319.449289,85.3276306 314.865278,85.3276306 L308.584855,85.3276306 L308.584855,98.8630267 Z M357.095714,68.4895978 C355.940688,67.551139 354.785679,66.856329 353.630653,66.4051468 C352.475627,65.9539647 351.356712,65.728377 350.273875,65.728377 C348.902281,65.728377 347.783366,66.0532233 346.917096,66.7029255 C346.050827,67.3526278 345.617698,68.2008375 345.617698,69.24758 C345.617698,69.9694714 345.834263,70.5650229 346.267397,71.0342523 C346.700532,71.5034817 347.269013,71.9095395 347.972857,72.252438 C348.676701,72.5953364 349.47077,72.8931121 350.355087,73.1457741 C351.239404,73.3984361 352.114684,73.6691413 352.980954,73.9578979 C356.446033,75.1129241 358.981638,76.6559438 360.587846,78.5870033 C362.194055,80.5180628 362.997147,83.0356213 362.997147,86.1397544 C362.997147,88.2332394 362.64523,90.1281759 361.941386,91.8246207 C361.237542,93.5210655 360.208862,94.9738502 358.855316,96.1830183 C357.501769,97.3921864 355.841444,98.3306311 353.87429,98.9983807 C351.907136,99.6661302 349.67833,100 347.187804,100 C342.026281,100 337.243822,98.4660038 332.840284,95.3979653 L337.388178,86.843595 C338.976339,88.2512832 340.546429,89.29801 342.098495,89.9838069 C343.650562,90.6696037 345.184558,91.012497 346.70053,91.012497 C348.433069,91.012497 349.723431,90.6154627 350.571653,89.8213821 C351.419876,89.0273016 351.843981,88.1249509 351.843981,87.1143029 C351.843981,86.5006952 351.735699,85.9683083 351.519131,85.5171262 C351.302564,85.065944 350.941623,84.6508627 350.436299,84.2718697 C349.930975,83.8928767 349.272259,83.5409599 348.460132,83.2161088 C347.648004,82.8912577 346.664441,82.5303174 345.509415,82.1332771 C344.137822,81.7001423 342.793319,81.2218964 341.475867,80.6985251 C340.158415,80.1751539 338.985359,79.4803438 337.956664,78.6140741 C336.927969,77.7478045 336.097806,76.6559601 335.466151,75.3385083 C334.834496,74.0210565 334.518674,72.3517076 334.518674,70.3304117 C334.518674,68.3091158 334.852543,66.4773438 335.520293,64.8350409 C336.188042,63.1927379 337.126487,61.7850708 338.335655,60.6119973 C339.544823,59.4389238 341.024679,58.5275495 342.775265,57.8778473 C344.525852,57.228145 346.483953,56.9032988 348.649627,56.9032988 C350.670923,56.9032988 352.782424,57.1830275 354.984192,57.7424933 C357.185961,58.3019592 359.297462,59.1230983 361.318758,60.2059354 L357.095714,68.4895978 Z M378.914773,78.4516494 C378.914773,80.075905 379.221572,81.5738072 379.83518,82.9454009 C380.448787,84.3169946 381.27895,85.5080975 382.325693,86.5187455 C383.372435,87.5293934 384.590609,88.3144386 385.98025,88.8739044 C387.369891,89.4333702 388.840722,89.713099 390.392789,89.713099 C391.944855,89.713099 393.415687,89.4333702 394.805328,88.8739044 C396.194969,88.3144386 397.422166,87.5293934 398.486956,86.5187455 C399.551745,85.5080975 400.390932,84.3169946 401.004539,82.9454009 C401.618147,81.5738072 401.924946,80.075905 401.924946,78.4516494 C401.924946,76.8273937 401.618147,75.3294915 401.004539,73.9578979 C400.390932,72.5863042 399.551745,71.3952013 398.486956,70.3845533 C397.422166,69.3739053 396.194969,68.5888602 394.805328,68.0293944 C393.415687,67.4699285 391.944855,67.1901998 390.392789,67.1901998 C388.840722,67.1901998 387.369891,67.4699285 385.98025,68.0293944 C384.590609,68.5888602 383.372435,69.3739053 382.325693,70.3845533 C381.27895,71.3952013 380.448787,72.5863042 379.83518,73.9578979 C379.221572,75.3294915 378.914773,76.8273937 378.914773,78.4516494 Z M367.815748,78.4516494 C367.815748,75.4197055 368.375205,72.5953477 369.494137,69.9784914 C370.613069,67.3616351 372.165112,65.0786878 374.150313,63.129581 C376.135515,61.1804742 378.508697,59.6555015 381.269932,58.5546171 C384.031166,57.4537327 387.072088,56.9032988 390.392789,56.9032988 C393.677395,56.9032988 396.709293,57.4537327 399.488575,58.5546171 C402.267857,59.6555015 404.659086,61.1804742 406.662335,63.129581 C408.665584,65.0786878 410.22665,67.3616351 411.345582,69.9784914 C412.464514,72.5953477 413.023971,75.4197055 413.023971,78.4516494 C413.023971,81.4835933 412.464514,84.307951 411.345582,86.9248073 C410.22665,89.5416637 408.665584,91.824611 406.662335,93.7737178 C404.659086,95.7228246 402.267857,97.2477973 399.488575,98.3486817 C396.709293,99.4495661 393.677395,100 390.392789,100 C387.072088,100 384.031166,99.4495661 381.269932,98.3486817 C378.508697,97.2477973 376.135515,95.7228246 374.150313,93.7737178 C372.165112,91.824611 370.613069,89.5416637 369.494137,86.9248073 C368.375205,84.307951 367.815748,81.4835933 367.815748,78.4516494 Z M419.737528,98.8630267 L419.737528,58.040272 L430.349278,58.040272 L449.948532,82.9995425 L449.948532,58.040272 L460.506141,58.040272 L460.506141,98.8630267 L449.948532,98.8630267 L430.349278,73.9037563 L430.349278,98.8630267 L419.737528,98.8630267 Z" id="DANIEL-THOMPSON" fill="#FFFFFF"></path>
                <path d="M130.335938,113.060547 L125.082031,113.060547 L125.082031,116.683594 L130.150391,116.683594 L130.150391,118.822266 L125.082031,118.822266 L125.082031,126 L122.806641,126 L122.806641,110.921875 L130.335938,110.921875 L130.335938,113.060547 Z M141.148047,110.921875 L141.148047,120.003906 C141.148047,121.299486 141.359633,122.246742 141.782813,122.845703 C142.414326,123.711593 143.302989,124.144531 144.448828,124.144531 C145.601178,124.144531 146.493096,123.711593 147.124609,122.845703 C147.547789,122.266273 147.759375,121.319017 147.759375,120.003906 L147.759375,110.921875 L150.034766,110.921875 L150.034766,120.628906 C150.034766,122.217456 149.539979,123.526037 148.550391,124.554688 C147.437104,125.700527 146.06993,126.273438 144.448828,126.273438 C142.827726,126.273438 141.463808,125.700527 140.357031,124.554688 C139.367443,123.526037 138.872656,122.217456 138.872656,120.628906 L138.872656,110.921875 L141.148047,110.921875 Z M161.823438,110.921875 L161.823438,123.861328 L166.257031,123.861328 L166.257031,126 L159.548047,126 L159.548047,110.921875 L161.823438,110.921875 Z M176.590625,110.921875 L176.590625,123.861328 L181.024219,123.861328 L181.024219,126 L174.315235,126 L174.315235,110.921875 L176.590625,110.921875 Z M209.679688,113.167969 L207.833985,114.261719 C207.488931,113.662757 207.160158,113.272136 206.847657,113.089844 C206.522134,112.881509 206.102217,112.777344 205.587891,112.777344 C204.956378,112.777344 204.432294,112.956378 204.015625,113.314453 C203.598957,113.666017 203.390625,114.108721 203.390625,114.642578 C203.390625,115.378259 203.937495,115.970701 205.03125,116.419922 L206.535157,117.035156 C207.759121,117.52995 208.654295,118.133785 209.220704,118.84668 C209.787113,119.559574 210.070313,120.433589 210.070313,121.46875 C210.070313,122.855476 209.608078,124.001298 208.683594,124.90625 C207.7526,125.817713 206.597013,126.273438 205.216797,126.273438 C203.908197,126.273438 202.827479,125.886072 201.97461,125.111328 C201.134762,124.336585 200.610679,123.246101 200.402344,121.839844 L202.707032,121.332031 C202.811199,122.217452 202.993489,122.829425 203.253907,123.167969 C203.722659,123.819014 204.406246,124.144531 205.304688,124.144531 C206.014327,124.144531 206.603514,123.906903 207.072266,123.431641 C207.541018,122.956378 207.775391,122.35417 207.775391,121.625 C207.775391,121.33203 207.734701,121.063478 207.653321,120.819336 C207.57194,120.575194 207.444988,120.350587 207.272461,120.145508 C207.099935,119.940429 206.876955,119.748373 206.603516,119.569336 C206.330077,119.390299 206.00456,119.219402 205.626954,119.056641 L204.171875,118.451172 C202.108063,117.578772 201.076172,116.302743 201.076172,114.623047 C201.076172,113.490229 201.509111,112.542973 202.375,111.78125 C203.24089,111.013017 204.318353,110.628906 205.607422,110.628906 C207.345712,110.628906 208.703121,111.475252 209.679688,113.167969 Z M223.157813,113.060547 L223.157813,126 L220.882422,126 L220.882422,113.060547 L217.415626,113.060547 L217.415626,110.921875 L226.614844,110.921875 L226.614844,113.060547 L223.157813,113.060547 Z M242.583204,122.337891 L236.128126,122.337891 L234.448438,126 L231.997266,126 L239.458204,109.974609 L246.655469,126 L244.165235,126 L242.583204,122.337891 Z M241.655469,120.199219 L239.419141,115.072266 L237.075391,120.199219 L241.655469,120.199219 Z M264.879688,111.732422 L264.879688,114.427734 C263.564578,113.327468 262.203914,112.777344 260.797657,112.777344 C259.24817,112.777344 257.942845,113.333979 256.881641,114.447266 C255.813928,115.554042 255.280079,116.908195 255.280079,118.509766 C255.280079,120.091805 255.813928,121.426427 256.881641,122.513672 C257.949355,123.600917 259.257936,124.144531 260.807423,124.144531 C261.608208,124.144531 262.28854,124.014324 262.848438,123.753906 C263.16094,123.623697 263.48483,123.447918 263.820118,123.226562 C264.155406,123.005207 264.508593,122.738283 264.879688,122.425781 L264.879688,125.169922 C263.577598,125.905603 262.210425,126.273438 260.778126,126.273438 C258.623167,126.273438 256.783993,125.521492 255.260548,124.017578 C253.743613,122.500643 252.985157,120.671235 252.985157,118.529297 C252.985157,116.608714 253.619916,114.896492 254.889454,113.392578 C256.451962,111.550121 258.473426,110.628906 260.953907,110.628906 C262.30808,110.628906 263.616661,110.996741 264.879688,111.732422 Z M276.346095,116.9375 L282.215235,110.921875 L285.252345,110.921875 L278.435938,117.748047 L285.291407,126 L282.244532,126 L276.814845,119.291016 L276.346095,119.759766 L276.346095,126 L274.070704,126 L274.070704,110.921875 L276.346095,110.921875 L276.346095,116.9375 Z M305.294532,126 L305.294532,110.921875 L308.458595,110.921875 C309.975529,110.921875 311.173434,111.071613 312.052345,111.371094 C312.99636,111.664064 313.852471,112.162106 314.620704,112.865234 C316.176702,114.284512 316.954689,116.149728 316.954689,118.460938 C316.954689,120.778657 316.14415,122.653639 314.523048,124.085938 C313.709242,124.802087 312.856386,125.300129 311.964454,125.580078 C311.131117,125.860027 309.949488,126 308.419532,126 L305.294532,126 Z M307.569923,123.861328 L308.595314,123.861328 C309.617454,123.861328 310.467055,123.753907 311.144142,123.539062 C311.821228,123.311197 312.433201,122.949872 312.980079,122.455078 C314.099876,121.432938 314.659767,120.101571 314.659767,118.460938 C314.659767,116.807283 314.106387,115.466151 312.99961,114.4375 C312.003512,113.519527 310.535427,113.060547 308.595314,113.060547 L307.569923,113.060547 L307.569923,123.861328 Z M334.036329,113.060547 L327.991407,113.060547 L327.991407,116.683594 L333.860548,116.683594 L333.860548,118.822266 L327.991407,118.822266 L327.991407,123.861328 L334.036329,123.861328 L334.036329,126 L325.716017,126 L325.716017,110.921875 L334.036329,110.921875 L334.036329,113.060547 Z M343.686329,110.921875 L347.856251,121.371094 L352.084767,110.921875 L354.575001,110.921875 L347.807423,127.132812 L341.196095,110.921875 L343.686329,110.921875 Z M370.670314,113.060547 L364.625392,113.060547 L364.625392,116.683594 L370.494533,116.683594 L370.494533,118.822266 L364.625392,118.822266 L364.625392,123.861328 L370.670314,123.861328 L370.670314,126 L362.350001,126 L362.350001,110.921875 L370.670314,110.921875 L370.670314,113.060547 Z M381.833986,110.921875 L381.833986,123.861328 L386.26758,123.861328 L386.26758,126 L379.558595,126 L379.558595,110.921875 L381.833986,110.921875 Z M392.958595,118.392578 C392.958595,116.270172 393.736582,114.447273 395.29258,112.923828 C396.842067,111.400383 398.704027,110.638672 400.878517,110.638672 C403.026965,110.638672 404.869395,111.406893 406.405861,112.943359 C407.948837,114.479825 408.720314,116.32551 408.720314,118.480469 C408.720314,120.648448 407.945582,122.487623 406.396095,123.998047 C404.840098,125.514982 402.961861,126.273438 400.76133,126.273438 C398.814705,126.273438 397.066676,125.599616 395.517189,124.251953 C393.811451,122.76106 392.958595,120.807955 392.958595,118.392578 Z M395.253517,118.421875 C395.253517,120.08855 395.813407,121.458979 396.933205,122.533203 C398.046491,123.607427 399.332286,124.144531 400.790627,124.144531 C402.372666,124.144531 403.707288,123.597662 404.794533,122.503906 C405.881778,121.39713 406.425392,120.049487 406.425392,118.460938 C406.425392,116.852857 405.888288,115.505214 404.814064,114.417969 C403.74635,113.324213 402.424749,112.777344 400.84922,112.777344 C399.280202,112.777344 397.955345,113.324213 396.874611,114.417969 C395.793876,115.498703 395.253517,116.833325 395.253517,118.421875 Z M419.757033,119.876953 L419.757033,126 L417.481642,126 L417.481642,110.921875 L420.059767,110.921875 C421.322794,110.921875 422.276561,111.009765 422.921095,111.185547 C423.57214,111.361329 424.145051,111.693357 424.639845,112.181641 C425.505735,113.027999 425.938673,114.095697 425.938673,115.384766 C425.938673,116.764981 425.476439,117.85872 424.551955,118.666016 C423.627471,119.473311 422.380739,119.876953 420.81172,119.876953 L419.757033,119.876953 Z M419.757033,117.767578 L420.606642,117.767578 C422.696496,117.767578 423.741408,116.96355 423.741408,115.355469 C423.741408,113.799471 422.663945,113.021484 420.508986,113.021484 L419.757033,113.021484 L419.757033,117.767578 Z M442.502736,113.060547 L436.457814,113.060547 L436.457814,116.683594 L442.326955,116.683594 L442.326955,118.822266 L436.457814,118.822266 L436.457814,123.861328 L442.502736,123.861328 L442.502736,126 L434.182424,126 L434.182424,110.921875 L442.502736,110.921875 L442.502736,113.060547 Z M456.498439,119.574219 L461.166408,126 L458.383205,126 L454.076564,119.828125 L453.666408,119.828125 L453.666408,126 L451.391017,126 L451.391017,110.921875 L454.057033,110.921875 C456.049231,110.921875 457.488018,111.29622 458.373439,112.044922 C459.350007,112.878259 459.838283,113.978509 459.838283,115.345703 C459.838283,116.413417 459.532297,117.331376 458.920314,118.099609 C458.308332,118.867842 457.501048,119.359374 456.498439,119.574219 Z M453.666408,117.845703 L454.389064,117.845703 C456.544023,117.845703 457.621486,117.022144 457.621486,115.375 C457.621486,113.832024 456.57332,113.060547 454.476955,113.060547 L453.666408,113.060547 L453.666408,117.845703 Z" id="FULL-STACK-DEVELOPER" fill="#FECA57"></path>
            </g>
        </g>
    </g>
</svg>